<svg width="500" height="399" viewBox="0 0 500 399" fill="none" xmlns="http://www.w3.org/2000/svg">
<path opacity="0.3" d="M118.628 115.628L59.367 149.87L84.7494 164.5L42.3747 188.883L93.2455 218.248L0 271.997L220.37 399L322.111 340.375L296.623 325.745L313.615 315.886L347.494 335.498L415.251 296.38L432.243 306.133L500 267.12L398.364 208.389L483.114 159.623L423.747 125.593L449.235 110.751L346.963 51.8083L254.248 105.875L194.881 71.7387L118.628 115.628Z" fill="#1F0549"/>
<path d="M0 252.915V257.791L220.37 384.794V375.041L0 252.915Z" fill="url(#paint0_linear_616_4975)"/>
<path d="M220.37 379.918L322.111 321.293V326.169L220.37 384.794V379.918Z" fill="url(#paint1_linear_616_4975)"/>
<path d="M313.615 296.804V301.786L300.871 309.101L296.623 306.663L313.615 296.804Z" fill="url(#paint2_linear_616_4975)"/>
<path d="M313.615 296.804L347.494 316.416V321.293L313.615 301.786V296.804Z" fill="url(#paint3_linear_616_4975)"/>
<path d="M347.494 316.416L415.251 277.297V282.28C415.251 282.28 347.387 322.247 347.494 321.399C347.6 320.445 347.494 316.416 347.494 316.416Z" fill="url(#paint4_linear_616_4975)"/>
<path d="M415.251 277.297L432.243 287.051V292.033L415.251 282.28V277.297Z" fill="url(#paint5_linear_616_4975)"/>
<path d="M432.243 287.05L500 248.038V252.914L432.243 292.033V287.05Z" fill="url(#paint6_linear_616_4975)"/>
<path d="M93.2456 199.166L88.8913 201.604L42.3747 174.783V169.801L93.2456 199.166Z" fill="url(#paint7_linear_616_4975)"/>
<path d="M84.7495 145.418L80.5014 147.856L59.3671 135.77V130.788L84.7495 145.418Z" fill="url(#paint8_linear_616_4975)"/>
<path d="M398.365 194.608V189.307L483.114 140.541V145.524L398.365 194.608Z" fill="url(#paint9_linear_616_4975)"/>
<path d="M449.235 91.6692V96.6518L427.995 108.949L423.747 106.511L449.235 91.6692Z" fill="url(#paint10_linear_616_4975)"/>
<path d="M118.628 96.5457L59.367 130.788L84.7494 145.418L42.3747 169.8L93.2455 199.166L0 252.914L220.37 379.918L322.111 321.293L296.623 306.663L313.615 296.804L347.494 316.416L415.251 277.297L432.243 287.05L500 248.038L398.364 189.307L483.114 140.541L423.747 106.511L449.235 91.6691L346.963 32.7261L254.248 86.7925L194.881 52.6565L118.628 96.5457Z" fill="#1F0549"/>
<path d="M327.952 275.389L297.366 257.367L275.913 269.665" stroke="white" stroke-width="0.3459" stroke-miterlimit="10"/>
<path d="M391.886 117.219L417.693 132.06" stroke="white" stroke-width="0.3459" stroke-miterlimit="10"/>
<path d="M273.365 195.456L285.047 202.241" stroke="white" stroke-width="0.3459" stroke-miterlimit="10"/>
<path d="M309.367 215.068L324.873 223.867" stroke="white" stroke-width="0.3459" stroke-miterlimit="10"/>
<path d="M294.18 220.899L275.701 210.297C274.958 209.873 274.958 208.707 275.701 208.283L295.136 197.046C295.986 196.516 297.048 196.516 297.897 197.046L317.332 208.283C318.076 208.707 318.076 209.873 317.332 210.297L298.853 220.899C297.472 221.747 295.667 221.747 294.18 220.899Z" stroke="white" stroke-width="0.2268" stroke-miterlimit="10"/>
<path d="M314.252 208.919V204.785L278.356 204.997V208.919C278.356 209.343 278.462 209.661 278.781 209.874L294.286 218.779C295.561 219.521 297.048 219.521 298.322 218.779L313.828 209.874C314.146 209.661 314.359 209.237 314.252 208.919Z" fill="url(#paint11_linear_616_4975)"/>
<path d="M298.322 214.644L313.828 205.739C314.465 205.315 314.465 204.361 313.828 204.043L297.472 194.608C296.729 194.184 295.879 194.184 295.136 194.608L278.781 204.043C278.144 204.467 278.144 205.421 278.781 205.739L294.286 214.644C295.561 215.386 297.048 215.386 298.322 214.644Z" fill="url(#paint12_linear_616_4975)"/>
<path d="M314.252 204.785V202.877L278.356 203.089V204.785C278.356 205.209 278.462 205.527 278.781 205.739L294.286 214.644C295.561 215.386 297.048 215.386 298.322 214.644L313.828 205.739C314.146 205.527 314.359 205.103 314.252 204.785Z" fill="url(#paint13_linear_616_4975)"/>
<path d="M298.322 212.736L313.828 203.831C314.465 203.407 314.465 202.453 313.828 202.135L297.472 192.699C296.729 192.275 295.879 192.275 295.136 192.699L278.781 202.135C278.144 202.559 278.144 203.513 278.781 203.831L294.286 212.736C295.561 213.478 297.048 213.478 298.322 212.736Z" fill="url(#paint14_linear_616_4975)"/>
<path d="M297.791 210.085L309.048 203.513C309.579 203.195 309.579 202.558 309.048 202.24L297.154 195.35C296.623 195.032 295.986 195.032 295.455 195.35L283.56 202.24C283.029 202.558 283.029 203.195 283.56 203.513L294.817 209.979C295.773 210.615 296.835 210.615 297.791 210.085Z" fill="url(#paint15_linear_616_4975)"/>
<path d="M307.562 202.983V201.816L285.047 202.028V203.089C285.047 203.301 285.153 203.619 285.365 203.725L295.03 209.343C295.773 209.767 296.729 209.767 297.579 209.343L307.243 203.725C307.562 203.513 307.562 203.301 307.562 202.983Z" fill="url(#paint16_linear_616_4975)"/>
<path d="M297.579 208.071L307.243 202.452C307.668 202.24 307.668 201.604 307.243 201.392L297.048 195.455C296.623 195.243 296.092 195.243 295.561 195.455L285.365 201.392C284.941 201.604 284.941 202.24 285.365 202.452L295.03 208.071C295.879 208.495 296.835 208.495 297.579 208.071Z" fill="url(#paint17_linear_616_4975)"/>
<path d="M297.26 206.375L304.376 202.346C304.694 202.134 304.694 201.71 304.376 201.604L296.941 197.258C296.623 197.046 296.198 197.046 295.879 197.258L288.445 201.604C288.127 201.816 288.127 202.24 288.445 202.346L295.561 206.375C295.986 206.693 296.623 206.693 297.26 206.375Z" fill="url(#paint18_linear_616_4975)"/>
<path d="M197.111 84.5662C254.354 85.2022 300.446 115.416 300.021 151.884C299.596 188.353 252.867 217.506 195.624 216.87C138.381 216.234 92.2897 186.02 92.7145 149.552C93.0331 112.978 139.868 83.9301 197.111 84.5662Z" stroke="white" stroke-width="0.3459" stroke-miterlimit="10"/>
<path d="M196.793 211.039C143.585 210.403 99.8301 181.462 100.255 147.538L100.043 138.103L292.693 141.495L292.8 150.612C292.375 184.536 250 211.675 196.793 211.039Z" fill="url(#paint19_linear_616_4975)"/>
<path d="M197.005 78.9475C250.213 79.5836 293.012 107.571 292.587 141.495C292.162 175.419 248.726 202.452 195.518 201.816C142.311 201.18 99.5116 173.193 99.9364 139.269C100.361 105.345 143.798 78.3114 197.005 78.9475Z" fill="url(#paint20_linear_616_4975)"/>
<path d="M196.793 190.049C152.188 189.519 114.698 167.68 107.901 140.223C106.627 135.028 107.689 129.622 110.663 125.169L152.719 61.7736L239.061 60.6074L282.498 127.925C285.365 132.378 286.427 137.891 285.047 143.085C277.931 170.118 241.398 190.579 196.793 190.049Z" fill="url(#paint21_linear_616_4975)"/>
<path d="M196.686 42.3734C222.387 42.6914 242.991 56.155 242.778 72.587C242.566 88.9129 221.644 101.952 195.943 101.634C170.242 101.316 149.639 87.8528 149.851 71.4208C150.064 55.0949 171.092 42.0553 196.686 42.3734Z" fill="url(#paint22_linear_616_4975)"/>
<path d="M196.687 44.7056C220.37 45.0236 239.38 57.4271 239.167 72.4809C238.955 87.5347 219.732 99.5142 196.049 99.3021C172.366 98.9841 153.356 86.5806 153.568 71.5268C153.781 56.473 173.003 44.3876 196.687 44.7056Z" fill="url(#paint23_linear_616_4975)"/>
<path d="M196.687 46.5078C218.777 46.7198 236.512 58.3812 236.406 72.4809C236.194 86.5806 218.246 97.8179 196.156 97.4999C174.066 97.2879 156.33 85.6265 156.436 71.5268C156.542 57.4271 174.597 46.1898 196.687 46.5078Z" fill="url(#paint24_linear_616_4975)"/>
<path d="M196.687 46.5078C218.777 46.7198 236.512 58.3812 236.406 72.4809C236.194 86.5806 218.246 97.8179 196.156 97.4999C174.066 97.2879 156.33 85.6265 156.436 71.5268C156.542 57.4271 174.597 46.1898 196.687 46.5078Z" fill="url(#paint25_linear_616_4975)"/>
<path d="M196.687 49.7942C215.909 50.0062 231.415 60.1834 231.202 72.3749C231.096 84.6723 215.378 94.4255 196.156 94.2135C176.933 94.0014 161.427 83.8242 161.64 71.6328C161.746 59.3353 177.464 49.5821 196.687 49.7942Z" fill="url(#paint26_linear_616_4975)"/>
<path d="M196.474 76.7214C211.372 76.7214 223.45 64.6657 223.45 49.7942C223.45 34.9227 211.372 22.8669 196.474 22.8669C181.576 22.8669 169.499 34.9227 169.499 49.7942C169.499 64.6657 181.576 76.7214 196.474 76.7214Z" fill="url(#paint27_radial_616_4975)"/>
<path d="M196.474 59.5473C216.768 59.5473 233.22 55.1807 233.22 49.7942C233.22 44.4077 216.768 40.041 196.474 40.041C176.18 40.041 159.728 44.4077 159.728 49.7942C159.728 55.1807 176.18 59.5473 196.474 59.5473Z" stroke="white" stroke-width="0.3459" stroke-miterlimit="10"/>
<path d="M204.917 54.6874C215.064 37.144 219.502 20.7389 214.829 18.0456C210.156 15.3523 198.142 27.3908 187.994 44.9342C177.847 62.4777 173.41 78.8828 178.083 81.576C182.756 84.2693 194.77 72.2309 204.917 54.6874Z" stroke="white" stroke-width="0.3459" stroke-miterlimit="10"/>
<path d="M219.244 78.5663C223.477 75.2256 216.705 59.6357 204.118 43.7453C191.532 27.8549 177.897 17.6814 173.664 21.0221C169.432 24.3629 176.204 39.9527 188.79 55.8431C201.377 71.7335 215.011 81.907 219.244 78.5663Z" stroke="white" stroke-width="0.3459" stroke-miterlimit="10"/>
<path opacity="0.8" d="M196.262 161.002V145.524L189.571 149.446V164.818L196.262 161.002Z" fill="white"/>
<path opacity="0.8" d="M243.947 137.785V122.413L237.256 126.229V141.707L243.947 137.785Z" fill="white"/>
<path opacity="0.8" d="M211.024 127.926V112.554L204.333 116.37V131.742L211.024 127.926Z" fill="white"/>
<path opacity="0.8" d="M126.168 146.16V130.682L132.859 134.604V149.976L126.168 146.16Z" fill="white"/>
<path opacity="0.8" d="M161.958 183.582V168.104L168.649 172.027V187.399L161.958 183.582Z" fill="white"/>
<path opacity="0.8" d="M127.974 73.011V57.6392L134.664 61.4556V76.9335L127.974 73.011Z" fill="white"/>
<path opacity="0.8" d="M146.984 106.723V100.362L149.639 101.952V108.313L146.984 106.723Z" fill="white"/>
<path opacity="0.8" d="M197.749 184.006V177.751L200.51 179.342V185.596L197.749 184.006Z" fill="white"/>
<path opacity="0.8" d="M136.895 172.239V165.878L139.656 167.468V173.723L136.895 172.239Z" fill="white"/>
<path opacity="0.8" d="M115.229 121.035V114.674L117.991 116.264V122.625L115.229 121.035Z" fill="white"/>
<path opacity="0.8" d="M123.301 102.8V96.4397L125.956 98.0299V104.391L123.301 102.8Z" fill="white"/>
<path opacity="0.8" d="M167.481 141.389V135.134L170.136 136.724V142.979L167.481 141.389Z" fill="white"/>
<path opacity="0.8" d="M173.641 109.903V103.542L176.402 105.133V111.493L173.641 109.903Z" fill="white"/>
<path opacity="0.8" d="M270.603 83.9302V68.5583L263.913 72.3748V87.8527L270.603 83.9302Z" fill="white"/>
<path opacity="0.8" d="M242.566 181.78V166.302L235.875 170.225V185.597L242.566 181.78Z" fill="white"/>
<path opacity="0.8" d="M281.648 150.082V134.604L274.958 138.527V153.899L281.648 150.082Z" fill="white"/>
<path d="M346.007 58.0632C377.868 58.3813 403.568 75.2373 403.356 95.5917C403.144 115.946 377.018 132.166 345.157 131.742C313.297 131.424 287.596 114.568 287.808 94.2135C288.02 73.8591 314.04 57.7452 346.007 58.0632Z" stroke="white" stroke-width="0.3459" stroke-miterlimit="10"/>
<path d="M345.794 126.654C316.376 126.335 292.056 110.328 292.269 91.4573L292.162 86.2627L398.789 88.1709L398.896 93.2595C398.789 112.024 375.319 127.078 345.794 126.654Z" fill="url(#paint28_linear_616_4975)"/>
<path d="M346.007 53.5047C375.425 53.8228 399.214 69.4066 399.002 88.1709C398.789 106.935 374.681 121.883 345.263 121.565C315.845 121.247 292.056 105.663 292.269 86.8987C292.481 68.1345 316.483 53.1867 346.007 53.5047Z" fill="url(#paint29_linear_616_4975)"/>
<path d="M345.794 115.098C321.049 114.78 300.34 102.694 296.517 87.5346C295.773 84.6723 296.41 81.5979 298.003 79.1596L321.262 44.0694L369.053 43.4333L393.161 80.7498C394.754 83.1881 395.285 86.2625 394.541 89.1248C390.718 104.073 370.54 115.31 345.794 115.098Z" fill="url(#paint30_linear_616_4975)"/>
<path d="M345.794 33.2563C360.026 33.4683 371.389 40.8892 371.389 50.0063C371.283 59.1234 359.707 66.3322 345.476 66.1202C331.245 65.9082 319.881 58.4873 319.881 49.3702C319.987 40.3591 331.563 33.1503 345.794 33.2563Z" fill="url(#paint31_linear_616_4975)"/>
<path d="M345.795 34.5286C358.857 34.6346 369.478 41.5254 369.371 49.9004C369.265 58.2754 358.539 64.8482 345.476 64.7422C332.413 64.6362 321.793 57.7454 321.899 49.3704C322.005 41.1014 332.732 34.4226 345.795 34.5286Z" fill="url(#paint32_linear_616_4975)"/>
<path d="M345.794 35.5885C358.008 35.6945 367.884 42.1613 367.778 50.0062C367.672 57.8511 357.689 63.9999 345.476 63.8939C333.263 63.7879 323.386 57.3211 323.492 49.4761C323.492 41.6312 333.581 35.3765 345.794 35.5885Z" fill="url(#paint33_linear_616_4975)"/>
<path d="M345.794 35.5885C358.008 35.6945 367.884 42.1613 367.778 50.0062C367.672 57.8511 357.689 63.9999 345.476 63.8939C333.263 63.7879 323.386 57.3211 323.492 49.4761C323.492 41.6312 333.581 35.3765 345.794 35.5885Z" fill="url(#paint34_linear_616_4975)"/>
<path d="M345.794 37.3907C356.415 37.4967 365.017 43.1154 364.911 49.9002C364.805 56.685 356.096 62.0916 345.476 61.9856C334.856 61.8796 326.253 56.2609 326.359 49.4761C326.359 42.6913 335.068 37.2847 345.794 37.3907Z" fill="url(#paint35_linear_616_4975)"/>
<path d="M344.626 42.0552C352.485 41.4192 358.645 39.1929 358.645 34.4223C358.645 29.7578 345.263 35.8005 345.582 29.1217C345.901 22.4429 357.795 29.4397 357.37 23.291C356.946 17.1423 339.635 27.5315 341.653 22.7609C343.67 17.9904 351.211 21.8068 353.441 18.2024" fill="url(#paint36_linear_616_4975)"/>
<path d="M344.839 8.66138C337.936 12.4778 333.156 17.0364 335.174 21.3829C337.086 25.7294 346.856 14.5981 349.299 20.8528C351.742 27.0016 338.042 25.6234 340.909 30.924C343.777 36.3307 355.353 19.7927 355.459 24.9873C355.565 30.182 347.175 29.8639 346.538 33.9984" fill="url(#paint37_linear_616_4975)"/>
<path d="M355.99 0.710469C348.131 0.498443 341.546 2.72471 340.591 9.08547C339.635 15.5522 354.184 9.08547 352.591 18.0966C350.998 27.1076 340.484 15.9763 339.741 24.3513C338.997 32.7263 358.114 21.0649 355.14 27.2136C352.167 33.3624 345.476 27.2136 342.608 31.6662" fill="url(#paint38_linear_616_4975)"/>
<path d="M354.609 33.2562C347.812 29.3338 341.334 27.6376 338.679 31.56C336.024 35.4825 350.574 38.0268 346.538 43.3274C342.502 48.6281 336.661 36.1186 333.475 41.4192C330.395 46.7198 350.467 47.992 346.113 50.7483C341.759 53.5047 337.723 46.1898 333.794 47.78" fill="url(#paint39_linear_616_4975)"/>
<path d="M433.73 126.759C444.35 126.865 452.952 132.484 452.846 139.269C452.74 146.054 444.031 151.46 433.411 151.354C422.791 151.248 414.189 145.63 414.295 138.845C414.401 132.06 423.11 126.653 433.73 126.759Z" stroke="white" stroke-width="0.3459" stroke-miterlimit="10"/>
<path d="M433.624 149.658C423.747 149.552 415.675 144.251 415.782 137.891V136.194L451.359 136.83V138.527C451.359 144.781 443.5 149.764 433.624 149.658Z" fill="url(#paint40_linear_616_4975)"/>
<path d="M433.73 125.275C443.607 125.381 451.466 130.576 451.359 136.83C451.253 143.085 443.288 148.068 433.411 147.962C423.534 147.856 415.676 142.661 415.782 136.406C415.888 130.152 423.853 125.169 433.73 125.275Z" fill="url(#paint41_linear_616_4975)"/>
<path d="M433.624 145.842C425.34 145.736 418.437 141.707 417.162 136.619C416.95 135.664 417.162 134.604 417.693 133.862L425.446 122.201L441.376 121.989L449.448 134.392C449.979 135.24 450.191 136.194 449.873 137.149C448.598 142.131 441.907 145.842 433.624 145.842Z" fill="url(#paint42_linear_616_4975)"/>
<path d="M433.624 118.49C438.403 118.596 442.226 121.035 442.12 124.109C442.12 127.184 438.19 129.516 433.517 129.516C428.738 129.41 424.915 126.971 425.021 123.897C425.021 120.823 428.951 118.49 433.624 118.49Z" fill="url(#paint43_linear_616_4975)"/>
<path d="M433.624 118.915C437.978 118.915 441.483 121.247 441.483 124.003C441.483 126.759 437.872 128.986 433.517 128.986C429.163 128.986 425.659 126.653 425.659 123.897C425.659 121.141 429.269 118.915 433.624 118.915Z" fill="url(#paint44_linear_616_4975)"/>
<path d="M433.624 119.232C437.659 119.232 440.952 121.459 440.952 124.003C440.952 126.653 437.553 128.668 433.518 128.668C429.482 128.668 426.19 126.441 426.19 123.897C426.19 121.353 429.588 119.232 433.624 119.232Z" fill="url(#paint45_linear_616_4975)"/>
<path d="M433.624 119.232C437.659 119.232 440.952 121.459 440.952 124.003C440.952 126.653 437.553 128.668 433.518 128.668C429.482 128.668 426.19 126.441 426.19 123.897C426.19 121.353 429.588 119.232 433.624 119.232Z" fill="url(#paint46_linear_616_4975)"/>
<path d="M433.624 119.869C437.128 119.869 439.996 121.777 439.996 124.003C439.996 126.229 437.022 128.032 433.517 128.032C430.013 128.032 427.145 126.123 427.145 123.897C427.145 121.671 430.119 119.869 433.624 119.869Z" fill="url(#paint47_linear_616_4975)"/>
<path d="M339.741 274.223C350.361 274.329 358.963 279.948 358.857 286.733C358.751 293.517 350.043 298.924 339.422 298.818C328.802 298.712 320.2 293.093 320.306 286.309C320.412 279.418 329.121 274.011 339.741 274.223Z" stroke="white" stroke-width="0.3459" stroke-miterlimit="10"/>
<path d="M339.741 297.016C329.864 296.91 321.793 291.609 321.899 285.248V283.552L357.477 284.188V285.885C357.37 292.139 349.511 297.228 339.741 297.016Z" fill="url(#paint48_linear_616_4975)"/>
<path d="M339.741 272.633C349.618 272.739 357.477 277.934 357.371 284.188C357.264 290.443 349.299 295.426 339.422 295.32C329.546 295.214 321.687 290.019 321.793 283.764C321.899 277.51 329.864 272.527 339.741 272.633Z" fill="url(#paint49_linear_616_4975)"/>
<path d="M339.741 293.199C331.457 293.093 324.554 289.065 323.28 283.976C323.067 283.022 323.28 281.962 323.811 281.22L331.563 269.558L347.494 269.346L355.565 281.75C356.096 282.598 356.308 283.552 355.99 284.506C354.715 289.489 347.918 293.305 339.741 293.199Z" fill="url(#paint50_linear_616_4975)"/>
<path d="M339.635 265.954C344.414 266.06 348.237 268.498 348.131 271.573C348.131 274.647 344.201 276.979 339.528 276.979C334.749 276.873 330.926 274.435 331.032 271.361C331.032 268.286 334.962 265.848 339.635 265.954Z" fill="url(#paint51_linear_616_4975)"/>
<path d="M339.635 266.378C343.989 266.378 347.494 268.71 347.494 271.467C347.494 274.223 343.883 276.449 339.529 276.449C335.174 276.449 331.67 274.117 331.67 271.361C331.776 268.498 335.28 266.272 339.635 266.378Z" fill="url(#paint52_linear_616_4975)"/>
<path d="M339.635 266.696C343.67 266.696 346.963 268.922 346.963 271.467C346.963 274.117 343.564 276.131 339.529 276.131C335.493 276.131 332.201 273.905 332.201 271.361C332.307 268.71 335.599 266.59 339.635 266.696Z" fill="url(#paint53_linear_616_4975)"/>
<path d="M339.635 266.696C343.67 266.696 346.963 268.922 346.963 271.467C346.963 274.117 343.564 276.131 339.529 276.131C335.493 276.131 332.201 273.905 332.201 271.361C332.307 268.71 335.599 266.59 339.635 266.696Z" fill="url(#paint54_linear_616_4975)"/>
<path d="M339.635 267.332C343.139 267.332 346.007 269.241 346.007 271.467C346.007 273.693 343.033 275.495 339.529 275.495C336.024 275.495 333.156 273.587 333.156 271.361C333.263 269.029 336.13 267.226 339.635 267.332Z" fill="url(#paint55_linear_616_4975)"/>
<path d="M93.1393 269.771L64.9957 253.551C63.8275 252.809 63.8275 251.112 64.9957 250.37L94.7324 233.302C96.0068 232.56 97.706 232.56 98.9804 233.302L128.717 250.37C129.885 251.112 129.885 252.809 128.717 253.551L100.573 269.771C98.1308 271.043 95.3696 271.043 93.1393 269.771Z" stroke="white" stroke-width="0.3459" stroke-miterlimit="10"/>
<path d="M123.726 251.43V217.824L69.0316 218.249V251.43C68.9254 251.961 69.1378 252.597 69.775 252.915L93.3519 266.484C95.2636 267.544 97.6 267.544 99.5117 266.484L123.089 252.915C123.62 252.597 123.832 252.067 123.726 251.43Z" fill="url(#paint56_linear_616_4975)"/>
<path d="M99.4053 232.984L122.982 219.415C124.044 218.779 124.044 217.4 122.982 216.764L98.1308 202.453C97.0688 201.817 95.6882 201.817 94.6262 202.453L69.7748 216.764C68.7128 217.4 68.7128 218.779 69.7748 219.415L93.3517 232.984C95.2634 234.044 97.5998 234.044 99.4053 232.984Z" fill="url(#paint57_linear_616_4975)"/>
<path d="M123.726 217.93V214.962L69.0316 215.28V217.824C68.9254 218.354 69.1378 218.99 69.775 219.308L93.3519 232.878C95.2636 233.938 97.6 233.938 99.5117 232.878L123.089 219.308C123.62 219.096 123.832 218.46 123.726 217.93Z" fill="url(#paint58_linear_616_4975)"/>
<path d="M99.4053 230.016L122.982 216.446C124.044 215.81 124.044 214.432 122.982 213.796L98.1308 199.484C97.0688 198.848 95.6882 198.848 94.6262 199.484L69.7748 213.796C68.7128 214.432 68.7128 215.81 69.7748 216.446L93.3517 230.016C95.2634 231.182 97.5998 231.182 99.4053 230.016Z" fill="url(#paint59_linear_616_4975)"/>
<path d="M98.6619 225.988L115.867 216.022C116.61 215.598 116.61 214.538 115.867 214.114L97.7061 203.619C96.8565 203.195 95.9006 203.195 95.1572 203.619L76.8904 214.114C76.147 214.538 76.147 215.598 76.8904 216.022L94.0952 225.988C95.582 226.73 97.2813 226.73 98.6619 225.988Z" fill="url(#paint60_linear_616_4975)"/>
<path d="M113.53 215.28V213.478L79.227 213.69V215.28C79.227 215.598 79.3332 216.022 79.6518 216.234L94.4139 224.715C95.5821 225.351 97.069 225.351 98.2372 224.715L112.999 216.234C113.424 216.022 113.637 215.598 113.53 215.28Z" fill="url(#paint61_linear_616_4975)"/>
<path d="M98.3432 222.913L113.105 214.432C113.743 214.114 113.743 213.16 113.105 212.736L97.4936 203.725C96.8564 203.301 96.0068 203.301 95.2633 203.725L79.6516 212.736C79.0144 213.054 79.0144 214.008 79.6516 214.432L94.4137 222.913C95.6882 223.549 97.0688 223.549 98.3432 222.913Z" fill="url(#paint62_linear_616_4975)"/>
<path d="M97.8123 220.263L108.645 214.008C109.07 213.69 109.07 213.054 108.645 212.842L97.2813 206.269C96.7502 205.951 96.113 205.951 95.6882 206.269L84.3246 212.842C83.8998 213.16 83.8998 213.796 84.3246 214.008L95.1572 220.263C95.9006 220.793 96.9626 220.793 97.8123 220.263Z" fill="url(#paint63_linear_616_4975)"/>
<path d="M106.946 158.033L85.7052 157.609V210.085C85.7052 213.796 90.4843 216.976 96.3254 217.082C102.167 217.188 106.839 214.114 106.946 210.403V158.033Z" fill="url(#paint64_linear_616_4975)"/>
<path d="M97.8124 210.721V207.435L96.4318 208.283V211.57L97.8124 210.721Z" fill="white"/>
<path d="M94.4139 201.498V198.212L93.0333 198.954V202.24L94.4139 201.498Z" fill="white"/>
<path d="M100.361 203.195V200.014L98.9804 200.756V204.043L100.361 203.195Z" fill="white"/>
<path d="M100.892 192.699V189.519L99.4053 190.261V193.548L100.892 192.699Z" fill="white"/>
<path d="M92.396 196.834V193.547L90.9092 194.395V197.682L92.396 196.834Z" fill="white"/>
<path d="M97.8123 197.47V194.183L99.1929 195.031V198.212L97.8123 197.47Z" fill="white"/>
<path d="M90.9092 207.859V204.573L92.396 205.421V208.707L90.9092 207.859Z" fill="white"/>
<path d="M99.4053 209.661V206.375L100.892 207.223V210.509L99.4053 209.661Z" fill="white"/>
<path d="M97.8123 206.057V204.785L98.3439 205.103V206.376L97.8123 206.057Z" fill="white"/>
<path d="M91.7588 203.407V202.029L92.3967 202.453V203.725L91.7588 203.407Z" fill="white"/>
<path d="M96.2192 198.742V197.364L96.7509 197.788V199.06L96.2192 198.742Z" fill="white"/>
<path d="M93.8829 195.88V194.501L94.4145 194.82V196.198L93.8829 195.88Z" fill="white"/>
<path d="M97.9185 190.474V189.095L98.5565 189.519V190.792L97.9185 190.474Z" fill="white"/>
<path d="M100.149 198.424V197.046L100.68 197.47V198.743L100.149 198.424Z" fill="white"/>
<path d="M92.7146 189.943V188.671L93.3526 188.989V190.262L92.7146 189.943Z" fill="white"/>
<path d="M95.4758 206.375V203.089L94.0952 203.937V207.223L95.4758 206.375Z" fill="white"/>
<path d="M96.8565 192.699V189.519L95.4759 190.261V193.548L96.8565 192.699Z" fill="white"/>
<path d="M97.0689 186.763V183.582L95.6882 184.324V187.611L97.0689 186.763Z" fill="white"/>
<path d="M97.8124 203.512V200.226L96.4318 201.074V204.361L97.8124 203.512Z" fill="white"/>
<path d="M94.2014 212.63V209.343L92.7146 210.191V213.478L94.2014 212.63Z" fill="white"/>
<path d="M252.868 304.013L224.724 287.793C223.556 287.051 223.556 285.354 224.724 284.612L254.461 267.544C255.735 266.802 257.434 266.802 258.709 267.544L288.445 284.612C289.613 285.354 289.613 287.051 288.445 287.793L260.195 304.013C257.965 305.285 255.098 305.285 252.868 304.013Z" stroke="white" stroke-width="0.3459" stroke-miterlimit="10"/>
<path d="M229.184 285.354V251.748L283.985 252.172V285.354C284.091 285.884 283.879 286.52 283.241 286.838L259.664 300.408C257.753 301.468 255.416 301.468 253.505 300.408L229.928 286.838C229.291 286.52 229.078 285.884 229.184 285.354Z" fill="url(#paint65_linear_616_4975)"/>
<path d="M253.505 266.908L229.928 253.338C228.866 252.702 228.866 251.324 229.928 250.688L254.779 236.376C255.841 235.74 257.222 235.74 258.284 236.376L283.135 250.688C284.197 251.324 284.197 252.702 283.135 253.338L259.558 266.908C257.647 267.968 255.416 267.968 253.505 266.908Z" fill="url(#paint66_linear_616_4975)"/>
<path d="M229.184 251.748V248.78L283.985 249.204V251.748C284.091 252.278 283.879 252.915 283.241 253.233L259.664 266.802C257.753 267.862 255.416 267.862 253.505 266.802L229.928 253.233C229.291 252.915 229.078 252.278 229.184 251.748Z" fill="url(#paint67_linear_616_4975)"/>
<path d="M253.505 263.94L229.928 250.37C228.866 249.734 228.866 248.356 229.928 247.72L254.779 233.408C255.841 232.772 257.222 232.772 258.284 233.408L283.135 247.72C284.197 248.356 284.197 249.734 283.135 250.37L259.558 263.94C257.647 265 255.416 265 253.505 263.94Z" fill="url(#paint68_linear_616_4975)"/>
<path d="M254.248 259.805L237.043 249.84C236.3 249.416 236.3 248.356 237.043 247.932L255.204 237.437C256.054 237.013 257.009 237.013 257.753 237.437L275.913 247.932C276.657 248.356 276.657 249.416 275.913 249.84L258.709 259.805C257.434 260.653 255.735 260.653 254.248 259.805Z" fill="url(#paint69_linear_616_4975)"/>
<path d="M239.38 249.098V247.296L273.683 247.508V249.098C273.683 249.416 273.577 249.84 273.258 250.052L258.496 258.533C257.328 259.169 255.841 259.169 254.673 258.533L239.911 250.052C239.486 249.84 239.38 249.416 239.38 249.098Z" fill="url(#paint70_linear_616_4975)"/>
<path d="M254.567 256.731L239.805 248.25C239.167 247.932 239.167 246.978 239.805 246.554L255.416 237.543C256.054 237.119 256.903 237.119 257.647 237.543L273.258 246.554C273.896 246.872 273.896 247.826 273.258 248.25L258.496 256.731C257.222 257.367 255.841 257.367 254.567 256.731Z" fill="url(#paint71_linear_616_4975)"/>
<path d="M255.098 254.187L244.265 247.932C243.84 247.614 243.84 246.978 244.265 246.766L255.629 240.193C256.16 239.875 256.797 239.875 257.222 240.193L268.585 246.766C269.01 247.084 269.01 247.72 268.585 247.932L257.753 254.187C257.116 254.717 255.947 254.717 255.098 254.187Z" fill="url(#paint72_linear_616_4975)"/>
<path d="M245.964 191.957L267.205 191.533V244.01C267.205 247.72 262.426 250.9 256.585 251.006C250.744 251.112 246.071 248.038 245.964 244.328V191.957Z" fill="url(#paint73_linear_616_4975)"/>
<path d="M255.098 244.646V241.359L256.478 242.207V245.388L255.098 244.646Z" fill="white"/>
<path d="M258.496 235.316V232.03L259.877 232.878V236.165L258.496 235.316Z" fill="white"/>
<path d="M252.549 237.119V233.833L253.93 234.681V237.967L252.549 237.119Z" fill="white"/>
<path d="M252.018 226.624V223.337L253.505 224.185V227.472L252.018 226.624Z" fill="white"/>
<path d="M260.514 230.652V227.472L262.001 228.214V231.5L260.514 230.652Z" fill="white"/>
<path d="M255.098 231.288V228.002L253.717 228.85V232.136L255.098 231.288Z" fill="white"/>
<path d="M262.001 241.783V238.497L260.514 239.239V242.525L262.001 241.783Z" fill="white"/>
<path d="M253.505 243.586V240.299L252.018 241.147V244.328L253.505 243.586Z" fill="white"/>
<path d="M255.098 239.982V238.603L254.567 238.921V240.3L255.098 239.982Z" fill="white"/>
<path d="M261.152 237.331V235.953L260.514 236.271V237.649L261.152 237.331Z" fill="white"/>
<path d="M256.692 232.667V231.288L256.16 231.606V232.985L256.692 232.667Z" fill="white"/>
<path d="M259.028 229.698V228.426L258.496 228.744V230.123L259.028 229.698Z" fill="white"/>
<path d="M254.992 224.398V223.019L254.354 223.337V224.716L254.992 224.398Z" fill="white"/>
<path d="M252.762 232.349V230.97L252.231 231.288V232.667L252.762 232.349Z" fill="white"/>
<path d="M260.196 223.868V222.489L259.558 222.807V224.186L260.196 223.868Z" fill="white"/>
<path d="M257.434 240.193V237.013L258.815 237.755V241.041L257.434 240.193Z" fill="white"/>
<path d="M256.054 226.624V223.337L257.434 224.185V227.472L256.054 226.624Z" fill="white"/>
<path d="M255.841 220.687V217.4L257.222 218.248V221.535L255.841 220.687Z" fill="white"/>
<path d="M255.098 237.331V234.15L256.478 234.892V238.179L255.098 237.331Z" fill="white"/>
<path d="M258.815 246.554V243.268L260.196 244.116V247.296L258.815 246.554Z" fill="white"/>
<path d="M416.631 237.225L429.694 229.698C431.924 228.426 431.924 225.139 429.694 223.867L374.894 192.275C372.451 190.897 369.477 190.897 367.035 192.275L312.234 223.867C310.004 225.139 310.004 228.426 312.234 229.698L364.167 259.593C368.309 262.032 373.513 262.032 377.655 259.593L389.762 252.597H389.868L420.348 270.195C422.154 271.255 424.278 271.255 426.083 270.195L445.731 258.851C447.536 257.791 447.536 255.141 445.731 254.081L416.631 237.225Z" stroke="white" stroke-width="0.3459" stroke-miterlimit="10"/>
<path d="M322.111 226.093V166.196L419.924 166.938V226.093C420.03 227.153 419.711 228.213 418.649 228.85L376.593 253.126C373.195 255.035 369.053 255.035 365.654 253.126L323.598 228.85C322.324 228.107 322.005 227.047 322.111 226.093Z" fill="url(#paint74_linear_616_4975)"/>
<path d="M365.442 193.123L323.386 168.847C321.58 167.786 321.58 165.136 323.386 164.182L367.778 138.633C369.69 137.467 372.133 137.467 374.15 138.633L418.543 164.182C420.348 165.242 420.348 167.892 418.543 168.847L376.487 193.123C372.982 195.032 368.84 195.032 365.442 193.123Z" fill="url(#paint75_linear_616_4975)"/>
<path d="M322.111 166.196V160.896L419.924 161.638V166.196C420.03 167.257 419.711 168.317 418.649 168.953L376.593 193.23C373.195 195.138 369.053 195.138 365.654 193.23L323.598 168.953C322.324 168.317 322.005 167.151 322.111 166.196Z" fill="url(#paint76_linear_616_4975)"/>
<path d="M365.442 187.929L323.386 163.652C321.58 162.592 321.58 159.941 323.386 158.987L367.778 133.438C369.69 132.272 372.133 132.272 374.15 133.438L418.543 158.987C420.348 160.048 420.348 162.698 418.543 163.652L376.487 187.929C372.982 189.837 368.84 189.837 365.442 187.929Z" fill="url(#paint77_linear_616_4975)"/>
<path d="M366.929 180.614L336.236 162.91C334.962 162.168 334.962 160.26 336.236 159.517L368.628 140.859C370.009 140.011 371.814 140.011 373.301 140.859L405.693 159.517C406.967 160.26 406.967 162.168 405.693 162.91L374.894 180.614C372.451 181.992 369.478 181.992 366.929 180.614Z" fill="url(#paint78_linear_616_4975)"/>
<path d="M340.378 161.426V158.139L401.657 158.563V161.426C401.763 162.062 401.551 162.698 400.913 163.122L374.575 178.282C372.451 179.554 369.902 179.554 367.778 178.282L341.44 163.122C340.484 162.804 340.272 162.062 340.378 161.426Z" fill="url(#paint79_linear_616_4975)"/>
<path d="M367.566 175.101L341.228 159.942C340.059 159.305 340.059 157.609 341.228 156.973L369.053 140.965C370.327 140.223 371.814 140.223 372.982 140.965L400.807 156.973C401.975 157.609 401.975 159.305 400.807 159.942L374.469 175.101C372.239 176.267 369.69 176.267 367.566 175.101Z" fill="url(#paint80_linear_616_4975)"/>
<path d="M368.416 170.543L349.193 159.411C348.343 158.881 348.343 157.715 349.193 157.291L369.478 145.63C370.327 145.1 371.495 145.1 372.345 145.63L392.63 157.291C393.479 157.821 393.479 158.987 392.63 159.411L373.407 170.543C371.92 171.391 370.009 171.391 368.416 170.543Z" fill="url(#paint81_linear_616_4975)"/>
<path d="M352.06 59.4415L389.975 58.8054V152.415C390.081 159.093 381.478 164.818 370.964 164.924C360.45 165.03 352.167 159.729 352.06 153.051V59.4415Z" fill="url(#paint82_linear_616_4975)"/>
<path d="M364.381 139.375C364.381 140.012 363.849 140.542 363.212 140.542C362.575 140.542 362.043 140.012 362.043 139.375C362.043 138.739 362.575 138.209 363.212 138.209C363.849 138.315 364.381 138.739 364.381 139.375Z" fill="white"/>
<path d="M376.275 146.266C376.275 146.902 375.744 147.433 375.107 147.433C374.469 147.433 373.938 146.902 373.938 146.266C373.938 145.63 374.469 145.1 375.107 145.1C375.744 145.1 376.275 145.63 376.275 146.266Z" fill="white"/>
<path d="M381.585 151.885C381.585 152.521 381.054 153.051 380.417 153.051C379.779 153.051 379.248 152.521 379.248 151.885C379.248 151.248 379.779 150.718 380.417 150.718C381.054 150.718 381.585 151.248 381.585 151.885Z" fill="white"/>
<path d="M371.496 143.934C371.496 144.57 370.965 145.1 370.328 145.1C369.69 145.1 369.159 144.57 369.159 143.934C369.159 143.298 369.69 142.767 370.328 142.767C370.965 142.873 371.496 143.298 371.496 143.934Z" fill="white"/>
<path d="M365.549 147.432C365.549 148.068 365.018 148.599 364.38 148.599C363.743 148.599 363.212 148.068 363.212 147.432C363.212 146.796 363.743 146.266 364.38 146.266C365.018 146.266 365.549 146.796 365.549 147.432Z" fill="white"/>
<path d="M375.107 151.885C375.107 152.521 374.576 153.051 373.938 153.051C373.301 153.051 372.77 152.521 372.77 151.885C372.77 151.248 373.301 150.718 373.938 150.718C374.682 150.718 375.107 151.248 375.107 151.885Z" fill="white"/>
<path d="M369.797 151.885C369.797 152.521 369.266 153.051 368.628 153.051C367.991 153.051 367.46 152.521 367.46 151.885C367.46 151.248 367.991 150.718 368.628 150.718C369.266 150.718 369.797 151.248 369.797 151.885Z" fill="white"/>
<path d="M363.212 152.097C363.212 152.733 362.681 153.263 362.044 153.263C361.406 153.263 360.875 152.733 360.875 152.097C360.875 151.461 361.406 150.93 362.044 150.93C362.681 150.93 363.212 151.461 363.212 152.097Z" fill="white"/>
<path d="M377.443 138.315C377.443 138.951 376.912 139.482 376.275 139.482C375.637 139.482 375.106 138.951 375.106 138.315C375.106 137.679 375.637 137.149 376.275 137.149C376.912 137.149 377.443 137.679 377.443 138.315Z" fill="white"/>
<path d="M376.275 130.152C376.275 130.789 375.744 131.319 375.107 131.319C374.469 131.319 373.938 130.789 373.938 130.152C373.938 129.516 374.469 128.986 375.107 128.986C375.744 129.092 376.275 129.516 376.275 130.152Z" fill="white"/>
<path d="M363.212 129.092C363.212 129.728 362.681 130.259 362.044 130.259C361.406 130.259 360.875 129.728 360.875 129.092C360.875 128.456 361.406 127.926 362.044 127.926C362.681 127.926 363.212 128.456 363.212 129.092Z" fill="white"/>
<path d="M380.417 133.756C380.417 134.393 379.886 134.923 379.248 134.923C378.611 134.923 378.08 134.393 378.08 133.756C378.08 133.12 378.611 132.59 379.248 132.59C379.886 132.696 380.417 133.12 380.417 133.756Z" fill="white"/>
<path d="M365.973 115.522C365.973 116.159 365.442 116.689 364.805 116.689C364.168 116.689 363.636 116.159 363.636 115.522C363.636 114.886 364.168 114.356 364.805 114.356C365.442 114.356 365.973 114.886 365.973 115.522Z" fill="white"/>
<path d="M382.753 145.1C382.753 145.736 382.222 146.266 381.585 146.266C380.947 146.266 380.416 145.736 380.416 145.1C380.416 144.464 380.947 143.933 381.585 143.933C382.329 143.933 382.753 144.464 382.753 145.1Z" fill="white"/>
<path d="M371.496 138.315C371.496 138.951 370.965 139.482 370.328 139.482C369.69 139.482 369.159 138.951 369.159 138.315C369.159 137.679 369.69 137.149 370.328 137.149C370.965 137.149 371.496 137.679 371.496 138.315Z" fill="white"/>
<path d="M370.965 124.958C370.965 125.594 370.434 126.124 369.796 126.124C369.159 126.124 368.628 125.594 368.628 124.958C368.628 124.321 369.159 123.791 369.796 123.791C370.434 123.897 370.965 124.321 370.965 124.958Z" fill="white"/>
<path d="M379.249 105.451C379.249 106.087 378.718 106.618 378.08 106.618C377.443 106.618 376.912 106.087 376.912 105.451C376.912 104.815 377.443 104.285 378.08 104.285C378.718 104.391 379.249 104.815 379.249 105.451Z" fill="white"/>
<path d="M376.275 119.763C376.275 120.399 375.744 120.929 375.107 120.929C374.469 120.929 373.938 120.399 373.938 119.763C373.938 119.127 374.469 118.596 375.107 118.596C375.744 118.596 376.275 119.127 376.275 119.763Z" fill="white"/>
<path d="M386.47 209.555L410.047 195.986L433.624 216.234L410.047 229.804L386.47 209.555Z" fill="url(#paint83_linear_616_4975)"/>
<path d="M391.037 210.191L410.047 199.272L428.951 215.598L410.047 226.517L391.037 210.191Z" fill="url(#paint84_linear_616_4975)"/>
<path d="M396.24 210.828L397.197 210.297L398.153 211.04L397.197 211.57L396.24 210.828Z" fill="white"/>
<path d="M398.152 212.418L399.002 211.888L399.958 212.63L399.002 213.16L398.152 212.418Z" fill="white"/>
<path d="M399.851 213.902L400.701 213.266L401.657 214.114L400.701 214.644L399.851 213.902Z" fill="white"/>
<path d="M401.657 215.386L402.613 214.856L403.463 215.704L402.613 216.235L401.657 215.386Z" fill="white"/>
<path d="M403.568 217.082L404.525 216.552L405.481 217.294L404.525 217.931L403.568 217.082Z" fill="white"/>
<path d="M405.374 218.673L406.33 218.142L407.286 218.885L406.33 219.415L405.374 218.673Z" fill="white"/>
<path d="M407.073 220.157L408.029 219.626L408.985 220.369L408.029 220.899L407.073 220.157Z" fill="white"/>
<path d="M408.985 221.747L409.835 221.217L410.791 221.959L409.835 222.489L408.985 221.747Z" fill="white"/>
<path d="M399.108 209.343L399.958 208.813L400.914 209.555L399.958 210.086L399.108 209.343Z" fill="white"/>
<path d="M400.913 210.934L401.869 210.403L402.719 211.146L401.869 211.676L400.913 210.934Z" fill="white"/>
<path d="M402.613 212.311L403.569 211.781L404.525 212.63L403.569 213.16L402.613 212.311Z" fill="white"/>
<path d="M404.418 213.902L405.374 213.372L406.33 214.22L405.374 214.75L404.418 213.902Z" fill="white"/>
<path d="M406.33 215.598L407.286 215.068L408.242 215.81L407.286 216.34L406.33 215.598Z" fill="white"/>
<path d="M408.241 217.188L409.091 216.658L410.047 217.4L409.091 217.931L408.241 217.188Z" fill="white"/>
<path d="M409.941 218.672L410.79 218.142L411.747 218.884L410.79 219.415L409.941 218.672Z" fill="white"/>
<path d="M411.746 220.262L412.702 219.732L413.552 220.475L412.702 221.005L411.746 220.262Z" fill="white"/>
<path d="M401.763 207.647L402.613 207.117L403.569 207.965L402.613 208.496L401.763 207.647Z" fill="white"/>
<path d="M403.568 209.237L404.525 208.707L405.374 209.555L404.525 210.086L403.568 209.237Z" fill="white"/>
<path d="M405.268 210.722L406.224 210.191L407.074 210.934L406.224 211.464L405.268 210.722Z" fill="white"/>
<path d="M407.073 212.312L408.029 211.781L408.985 212.524L408.029 213.054L407.073 212.312Z" fill="white"/>
<path d="M408.985 213.902L409.941 213.372L410.897 214.22L409.941 214.75L408.985 213.902Z" fill="white"/>
<path d="M410.79 215.492L411.746 214.962L412.702 215.81L411.746 216.341L410.79 215.492Z" fill="white"/>
<path d="M412.489 216.977L413.445 216.446L414.402 217.295L413.445 217.825L412.489 216.977Z" fill="white"/>
<path d="M414.401 218.567L415.251 218.036L416.207 218.885L415.251 219.415L414.401 218.567Z" fill="white"/>
<path d="M404.631 206.057L405.587 205.527L406.543 206.375L405.587 206.905L404.631 206.057Z" fill="white"/>
<path d="M406.542 207.647L407.392 207.117L408.348 207.965L407.392 208.496L406.542 207.647Z" fill="white"/>
<path d="M408.241 209.131L409.091 208.601L410.047 209.343L409.091 209.98L408.241 209.131Z" fill="white"/>
<path d="M410.047 210.722L411.003 210.191L411.853 210.934L411.003 211.464L410.047 210.722Z" fill="white"/>
<path d="M411.958 212.312L412.915 211.781L413.764 212.63L412.915 213.16L411.958 212.312Z" fill="white"/>
<path d="M413.764 213.902L414.72 213.372L415.676 214.22L414.72 214.75L413.764 213.902Z" fill="white"/>
<path d="M415.463 215.386L416.419 214.856L417.375 215.704L416.419 216.235L415.463 215.386Z" fill="white"/>
<path d="M417.269 216.976L418.225 216.446L419.181 217.294L418.225 217.825L417.269 216.976Z" fill="white"/>
<path d="M406.755 204.467L407.711 203.937L408.561 204.679L407.711 205.315L406.755 204.467Z" fill="white"/>
<path d="M408.56 206.057L409.516 205.527L410.472 206.269L409.516 206.799L408.56 206.057Z" fill="white"/>
<path d="M410.259 207.541L411.215 207.011L412.171 207.753L411.215 208.284L410.259 207.541Z" fill="white"/>
<path d="M412.065 209.131L413.021 208.601L413.977 209.343L413.021 209.874L412.065 209.131Z" fill="white"/>
<path d="M414.083 210.722L414.932 210.191L415.889 211.04L414.932 211.57L414.083 210.722Z" fill="white"/>
<path d="M415.888 212.312L416.844 211.781L417.694 212.63L416.844 213.16L415.888 212.312Z" fill="white"/>
<path d="M417.587 213.796L418.543 213.266L419.393 214.008L418.543 214.538L417.587 213.796Z" fill="white"/>
<path d="M419.393 215.386L420.349 214.856L421.305 215.598L420.349 216.128L419.393 215.386Z" fill="white"/>
<path d="M409.728 202.877L410.578 202.346L411.534 203.195L410.578 203.725L409.728 202.877Z" fill="white"/>
<path d="M411.534 204.467L412.49 203.937L413.34 204.679L412.49 205.315L411.534 204.467Z" fill="white"/>
<path d="M413.233 205.951L414.189 205.421L415.145 206.163L414.189 206.693L413.233 205.951Z" fill="white"/>
<path d="M415.038 207.541L415.994 207.011L416.951 207.753L415.994 208.284L415.038 207.541Z" fill="white"/>
<path d="M416.95 209.132L417.906 208.601L418.862 209.45L417.906 209.98L416.95 209.132Z" fill="white"/>
<path d="M418.862 210.722L419.711 210.192L420.668 211.04L419.711 211.57L418.862 210.722Z" fill="white"/>
<path d="M420.561 212.206L421.411 211.676L422.367 212.418L421.411 213.054L420.561 212.206Z" fill="white"/>
<path d="M422.366 213.796L423.322 213.266L424.172 214.008L423.322 214.538L422.366 213.796Z" fill="white"/>
<path d="M410.047 229.804V261.396L433.624 247.826V216.234L410.047 229.804Z" fill="url(#paint85_linear_616_4975)"/>
<path d="M410.047 229.804L386.47 209.555V247.72L410.047 261.396V229.804Z" fill="url(#paint86_linear_616_4975)"/>
<path d="M229.822 260.229L203.165 275.601L123.088 229.486L96.4317 244.857L203.165 306.345L256.585 275.601L229.822 260.229Z" fill="url(#paint87_linear_616_4975)"/>
<path d="M96.4318 244.857V248.25L203.165 309.737V306.345L96.4318 244.857Z" fill="url(#paint88_linear_616_4975)"/>
<path d="M203.165 306.345L256.585 275.601V278.993L203.165 309.737V306.345Z" fill="url(#paint89_linear_616_4975)"/>
<path d="M121.389 239.663L158.348 261.077V203.831L121.389 182.416V239.663Z" fill="url(#paint90_linear_616_4975)" stroke="white" stroke-width="0.2251" stroke-miterlimit="10"/>
<path d="M155.055 220.156L151.02 206.587L146.984 214.962L145.391 210.509L143.373 211.463L135.833 195.667L132.753 206.481L129.885 196.516L126.168 203.406" stroke="white" stroke-width="0.2251" stroke-miterlimit="10"/>
<path d="M152.613 225.775L155.055 227.259V224.503L152.613 223.125V225.775Z" fill="white"/>
<path d="M147.834 223.019L150.276 224.503V221.747L147.834 220.368V223.019Z" fill="white"/>
<path d="M143.054 220.262L145.497 221.747V218.99L143.054 217.506V220.262Z" fill="white"/>
<path d="M138.275 217.506L140.718 218.884V216.234L138.275 214.75V217.506Z" fill="white"/>
<path d="M133.496 214.75L135.939 216.128V213.478L133.496 211.993V214.75Z" fill="white"/>
<path d="M133.496 219.944L154.524 232.136V231.394L133.496 219.202V219.944Z" fill="white"/>
<path d="M124.681 214.75L130.416 218.142V210.297L124.681 206.905V214.75Z" fill="white"/>
<path d="M124.681 236.8L125.638 237.33V221.429L124.681 220.792V236.8Z" fill="white"/>
<path d="M127.549 238.497L128.611 239.027V223.125L127.549 222.489V238.497Z" fill="white"/>
<path d="M148.683 238.073C148.683 239.875 149.957 242.101 151.551 243.055C153.144 244.009 154.418 243.267 154.418 241.465C154.418 239.663 153.144 237.436 151.551 236.482C149.957 235.528 148.683 236.27 148.683 238.073Z" stroke="white" stroke-width="0.3821" stroke-miterlimit="10"/>
<path d="M148.683 247.508C148.683 249.31 149.957 251.536 151.551 252.49C153.144 253.444 154.418 252.702 154.418 250.9C154.418 249.098 153.144 246.872 151.551 245.917C149.957 244.963 148.683 245.705 148.683 247.508Z" stroke="white" stroke-width="0.3821" stroke-miterlimit="10"/>
<path d="M139.868 232.878C139.868 234.68 141.143 236.906 142.736 237.861C144.329 238.815 145.603 238.073 145.603 236.27C145.603 234.468 144.329 232.242 142.736 231.288C141.143 230.44 139.868 231.076 139.868 232.878Z" stroke="white" stroke-width="0.3821" stroke-miterlimit="10"/>
<path d="M139.868 242.313C139.868 244.115 141.143 246.342 142.736 247.296C144.329 248.25 145.603 247.508 145.603 245.705C145.603 243.903 144.329 241.677 142.736 240.723C141.143 239.769 139.868 240.511 139.868 242.313Z" stroke="white" stroke-width="0.3821" stroke-miterlimit="10"/>
<path d="M131.054 227.789C131.054 229.591 132.328 231.818 133.921 232.772C135.514 233.726 136.789 232.984 136.789 231.182C136.789 229.379 135.514 227.153 133.921 226.199C132.328 225.245 131.054 225.987 131.054 227.789Z" stroke="white" stroke-width="0.3821" stroke-miterlimit="10"/>
<path d="M131.054 237.224C131.054 239.027 132.328 241.253 133.921 242.207C135.514 243.161 136.789 242.419 136.789 240.617C136.789 238.815 135.514 236.588 133.921 235.634C132.328 234.68 131.054 235.422 131.054 237.224Z" stroke="white" stroke-width="0.3821" stroke-miterlimit="10"/>
<path d="M164.72 265.212L201.678 286.733V229.486L164.72 207.965V265.212Z" fill="url(#paint91_linear_616_4975)" stroke="white" stroke-width="0.2251" stroke-miterlimit="10"/>
<path d="M196.58 246.872L197.431 247.402V238.285L196.58 237.861V246.872Z" fill="white"/>
<path d="M192.12 244.327L192.97 244.752V232.984L192.12 232.56V244.327Z" fill="white"/>
<path d="M187.659 241.677L188.403 242.207V229.168L187.659 228.744V241.677Z" fill="white"/>
<path d="M183.199 239.133L183.943 239.557V232.56L183.199 232.136V239.133Z" fill="white"/>
<path d="M178.632 236.482L179.482 237.013V223.443L178.632 222.913V236.482Z" fill="white"/>
<path d="M174.172 233.938L175.022 234.362V221.959L174.172 221.429V233.938Z" fill="white"/>
<path d="M169.711 231.289L170.562 231.713V221.96L169.711 221.536V231.289Z" fill="white"/>
<path d="M196.58 279.206L197.431 279.63V270.619L196.58 270.195V279.206Z" fill="white"/>
<path d="M192.12 276.555L192.97 277.085V265.318L192.12 264.788V276.555Z" fill="white"/>
<path d="M187.659 274.011L188.403 274.435V261.501L187.659 260.971V274.011Z" fill="white"/>
<path d="M183.199 271.361L183.943 271.891V264.894L183.199 264.364V271.361Z" fill="white"/>
<path d="M178.632 268.816L179.482 269.24V255.671L178.632 255.247V268.816Z" fill="white"/>
<path d="M174.172 266.166L175.022 266.696V254.186L174.172 253.762V266.166Z" fill="white"/>
<path d="M169.711 263.622L170.562 264.046V254.293L169.711 253.762V263.622Z" fill="white"/>
<path d="M183.942 245.706L197.642 253.551V251.854L183.942 244.01V245.706Z" fill="white"/>
<path d="M186.279 250.264L197.642 256.837V255.247L186.279 248.568V250.264Z" fill="white"/>
<path d="M183.199 251.854L197.642 260.229V258.533L183.199 250.158V251.854Z" fill="white"/>
<path d="M184.792 256.095L197.642 263.516V261.82L184.792 254.399V256.095Z" fill="white"/>
<path d="M176.402 241.677C176.402 242.843 177.252 244.221 178.207 244.857C179.269 245.494 180.013 244.963 180.013 243.903C180.013 242.737 179.163 241.359 178.207 240.723C177.252 240.087 176.402 240.511 176.402 241.677Z" fill="white"/>
<path d="M168.862 237.225C168.862 238.391 169.711 239.769 170.667 240.405C171.729 241.041 172.473 240.511 172.473 239.451C172.473 238.285 171.623 236.906 170.667 236.27C169.605 235.634 168.862 236.164 168.862 237.225Z" fill="white"/>
<path d="M179.566 252.441C180.266 252.012 180.235 250.694 179.498 249.496C178.761 248.299 177.596 247.677 176.896 248.106C176.197 248.536 176.227 249.854 176.965 251.051C177.702 252.248 178.867 252.871 179.566 252.441Z" fill="white"/>
<path d="M168.862 244.751C168.862 245.918 169.711 247.296 170.667 247.932C171.729 248.568 172.472 248.038 172.472 246.978C172.472 245.812 171.623 244.433 170.667 243.797C169.605 243.161 168.862 243.691 168.862 244.751Z" fill="white"/>
<path d="M228.866 286.733C222.281 286.627 216.971 283.128 216.971 278.888V277.722L240.654 278.146V279.312C240.548 283.446 235.344 286.733 228.866 286.733Z" fill="url(#paint92_linear_616_4975)"/>
<path d="M228.866 270.407C235.45 270.513 240.654 273.905 240.654 278.146C240.654 282.28 235.238 285.673 228.76 285.567C222.175 285.461 216.971 282.068 216.971 277.828C216.971 273.693 222.281 270.407 228.866 270.407Z" fill="url(#paint93_linear_616_4975)"/>
<path d="M262.213 269.134C266.249 273.799 258.071 277.827 255.416 279.948C251.487 277.191 252.018 274.541 252.018 274.541C252.018 274.541 258.709 266.166 262.213 269.134Z" fill="url(#paint94_linear_616_4975)"/>
<path d="M232.795 267.756C233.114 267.12 234.388 267.226 235.663 267.968C236.512 268.392 237.043 269.028 237.256 269.664C239.38 271.466 247.026 279.735 247.026 279.735L253.186 274.329L255.31 278.781C255.31 278.781 248.407 284.824 245.964 282.916C243.84 281.22 237.362 273.057 235.557 270.83C235.344 271.042 235.026 271.042 234.601 270.936C234.07 270.83 233.645 270.512 233.751 270.194C233.751 270.088 233.964 269.982 234.176 269.876C233.008 269.24 232.477 268.286 232.795 267.756Z" fill="url(#paint95_linear_616_4975)"/>
<path d="M262.213 336.558C262.213 336.558 262.638 340.269 262.426 341.647C262.213 343.025 260.089 342.389 259.452 342.071C258.815 341.753 256.054 340.269 254.992 339.951C251.487 338.679 246.708 333.908 259.133 336.876C260.089 336.982 262.213 336.558 262.213 336.558Z" fill="url(#paint96_linear_616_4975)"/>
<path d="M251.699 341.329C251.699 341.329 252.124 345.039 251.912 346.417C251.699 347.796 249.575 347.16 248.938 346.842C248.301 346.524 245.539 345.039 244.477 344.721C240.973 343.449 236.194 338.679 248.619 341.647C249.575 341.753 251.699 341.329 251.699 341.329Z" fill="url(#paint97_linear_616_4975)"/>
<path d="M245.858 301.786C246.814 297.44 257.965 293.093 263.063 296.698C265.293 316.31 262.426 334.968 262.426 337.619C262.426 338.573 258.284 338.573 258.284 336.558C258.284 334.544 256.266 322.459 256.16 310.691C255.841 310.161 254.46 311.327 254.248 313.024C255.098 323.837 251.912 341.647 251.912 342.919C251.912 344.085 247.982 344.403 247.876 342.813C247.982 341.223 243.097 314.72 245.858 301.786Z" fill="url(#paint98_linear_616_4975)"/>
<path d="M251.381 271.785C247.77 274.223 245.646 276.767 245.752 281.22C245.858 285.778 245.327 292.457 244.796 295.319C244.159 298.712 245.327 301.68 245.327 301.68C248.407 307.723 263.275 300.62 264.337 298.182C266.143 294.047 263.806 286.308 263.912 283.446C264.019 280.478 264.55 267.014 258.496 268.816C252.443 270.618 251.381 271.785 251.381 271.785Z" fill="url(#paint99_linear_616_4975)"/>
<path d="M251.487 266.59C251.487 266.59 251.487 271.573 251.487 272.421C251.487 273.269 256.266 272.633 256.266 269.452C256.266 266.378 256.266 260.971 256.266 260.971H251.487V266.59Z" fill="url(#paint100_linear_616_4975)"/>
<path d="M249.15 257.897C248.195 258.321 248.301 267.12 249.15 267.332C250 267.544 253.399 266.696 254.885 266.272C256.372 265.742 257.859 263.622 257.859 261.077C257.859 258.533 252.443 256.307 249.15 257.897Z" fill="url(#paint101_linear_616_4975)"/>
<path d="M246.708 258.427C246.495 259.805 248.088 260.759 249.788 261.501C251.487 262.244 252.549 263.092 252.018 264.152C251.487 265.212 252.974 268.286 254.567 268.816C256.266 269.346 256.054 267.968 256.903 266.908C257.859 265.848 260.089 263.834 259.346 259.911C258.709 255.989 252.974 257.261 252.761 255.353C252.867 255.353 246.708 254.505 246.708 258.427Z" fill="url(#paint102_linear_616_4975)"/>
<path d="M229.715 283.552C224.193 283.446 219.626 280.796 218.777 277.403C218.67 276.767 218.777 276.131 219.095 275.495L224.299 267.65L234.919 267.544L240.229 275.813C240.548 276.343 240.76 277.085 240.548 277.721C239.698 281.114 235.238 283.552 229.715 283.552Z" fill="url(#paint103_linear_616_4975)"/>
<path d="M229.715 265.424C232.901 265.424 235.45 267.12 235.344 269.134C235.238 271.149 232.795 272.739 229.609 272.739C226.423 272.739 223.874 271.043 223.98 269.028C223.98 266.908 226.529 265.318 229.715 265.424Z" fill="url(#paint104_linear_616_4975)"/>
<path d="M229.715 265.636C232.583 265.636 234.919 267.226 234.919 269.028C234.919 270.831 232.477 272.315 229.609 272.315C226.742 272.315 224.405 270.725 224.405 268.922C224.405 267.12 226.742 265.636 229.715 265.636Z" fill="url(#paint105_linear_616_4975)"/>
<path d="M229.715 265.848C232.477 265.848 234.601 267.332 234.601 269.028C234.601 270.724 232.371 272.103 229.609 272.103C226.848 272.103 224.724 270.618 224.724 268.922C224.724 267.226 226.954 265.848 229.715 265.848Z" fill="url(#paint106_linear_616_4975)"/>
<path d="M229.715 266.272C232.052 266.272 233.963 267.544 233.963 269.028C233.963 270.512 232.052 271.785 229.609 271.679C227.273 271.679 225.361 270.406 225.361 268.922C225.361 267.438 227.273 266.272 229.715 266.272Z" fill="url(#paint107_linear_616_4975)"/>
<path d="M225.042 281.22C225.255 281.22 225.467 281.326 225.68 281.432C225.467 281.114 225.467 280.69 225.573 280.584C225.786 280.372 226.211 280.584 226.635 281.114C226.954 281.538 227.06 281.856 226.954 282.068C228.335 282.386 240.123 288.535 240.123 288.535L244.159 281.432L247.664 284.93C247.664 284.93 243.203 292.987 240.229 291.927C237.574 290.973 228.122 285.036 226.211 283.764C225.786 283.87 225.255 283.87 224.724 283.764C223.343 283.552 222.281 282.704 222.387 282.068C222.494 281.326 223.662 281.008 225.042 281.22Z" fill="url(#paint108_linear_616_4975)"/>
<path d="M250.85 273.481C256.16 276.555 249.894 283.128 247.982 285.884C243.309 284.612 242.991 281.856 242.991 281.856C242.991 281.856 246.495 271.785 250.85 273.481Z" fill="url(#paint109_linear_616_4975)"/>
<path d="M260.408 277.827C260.408 279.63 259.24 281.114 257.753 281.114C256.266 281.114 255.098 279.63 255.098 277.827C255.098 276.025 256.266 274.541 257.753 274.541C259.24 274.435 260.408 275.919 260.408 277.827Z" fill="url(#paint110_linear_616_4975)"/>
<path d="M107.477 236.271C103.441 240.935 111.619 244.964 114.274 247.084C118.203 244.328 117.672 241.677 117.672 241.677C117.672 241.677 110.981 233.196 107.477 236.271Z" fill="url(#paint111_linear_616_4975)"/>
<path d="M107.477 303.589C107.477 303.589 107.052 307.299 107.264 308.677C107.477 310.055 109.601 309.419 110.238 309.101C110.875 308.783 113.637 307.299 114.699 306.981C118.203 305.709 122.982 300.938 110.557 303.907C109.601 304.119 107.477 303.589 107.477 303.589Z" fill="url(#paint112_linear_616_4975)"/>
<path d="M117.991 308.359C117.991 308.359 117.566 312.07 117.778 313.448C117.991 314.826 120.115 314.19 120.752 313.872C121.389 313.554 124.15 312.07 125.212 311.752C128.717 310.479 133.496 305.709 121.071 308.677C120.115 308.889 117.991 308.359 117.991 308.359Z" fill="url(#paint113_linear_616_4975)"/>
<path d="M123.832 268.922C122.876 264.576 111.725 260.229 106.627 263.834C104.928 286.309 107.264 302.104 107.264 304.755C107.264 305.709 111.406 305.709 111.406 303.695C111.406 301.68 113.424 289.595 113.53 277.828C113.849 277.297 115.23 278.464 115.442 280.16C114.592 290.973 117.778 308.783 117.778 310.055C117.778 311.222 121.708 311.54 121.814 309.949C121.708 308.253 126.699 281.856 123.832 268.922Z" fill="url(#paint114_linear_616_4975)"/>
<path d="M118.415 238.921C122.026 241.359 124.894 244.646 124.788 249.204C124.681 253.763 124.469 259.699 125.106 262.562C125.743 265.954 124.575 268.923 124.575 268.923C121.495 274.965 107.158 268.604 106.096 266.166C104.291 262.032 105.353 254.505 105.246 251.642C105.14 248.674 105.246 234.15 111.3 236.059C117.247 237.755 118.415 238.921 118.415 238.921Z" fill="url(#paint115_linear_616_4975)"/>
<path d="M118.203 233.726C118.203 233.726 118.203 238.391 118.203 239.239C118.203 240.087 113.424 240.087 113.424 236.907C113.424 233.832 113.424 228.001 113.424 228.001H118.203V233.726Z" fill="url(#paint116_linear_616_4975)"/>
<path d="M120.221 224.821C121.708 226.093 121.389 234.256 120.539 234.468C119.69 234.68 116.291 233.832 114.805 233.408C113.318 232.878 111.831 230.758 111.831 228.214C111.937 225.563 115.442 220.793 120.221 224.821Z" fill="url(#paint117_linear_616_4975)"/>
<path d="M119.053 226.305C119.265 227.684 121.601 227.896 119.902 228.638C118.203 229.38 117.141 230.228 117.672 231.288C118.203 232.348 116.716 235.422 115.123 235.952C113.424 236.483 113.636 235.104 112.787 234.044C111.831 232.984 109.601 230.97 110.344 227.047C110.981 223.125 115.867 222.489 117.991 222.807C117.884 222.701 124.257 223.231 119.053 226.305Z" fill="url(#paint118_linear_616_4975)"/>
<path d="M142.417 232.56C142.205 232.772 142.099 232.984 141.886 233.196C141.78 232.666 141.568 232.242 141.249 232.348C140.93 232.348 140.612 232.984 140.612 233.62C140.612 234.256 141.249 234.998 141.568 235.21C140.506 236.589 135.514 247.826 135.514 247.826L127.868 244.858L127.443 249.84C127.443 249.84 136.045 253.127 137.638 250.476C139.125 248.144 142.311 238.815 143.267 236.059C143.798 235.741 144.329 235.104 144.754 234.574C145.922 233.196 146.028 231.5 145.391 230.864C144.754 230.44 143.585 231.182 142.417 232.56Z" fill="url(#paint119_linear_616_4975)"/>
<path d="M117.672 243.161C115.548 248.886 124.575 249.946 127.761 251.006C130.523 247.084 129.036 244.752 129.036 244.752C129.036 244.752 120.009 239.133 117.672 243.161Z" fill="url(#paint120_linear_616_4975)"/>
<path d="M109.282 244.857C109.282 246.66 110.45 248.144 111.937 248.144C113.424 248.144 114.592 246.66 114.592 244.857C114.592 243.055 113.424 241.571 111.937 241.571C110.45 241.571 109.282 243.055 109.282 244.857Z" fill="url(#paint121_linear_616_4975)"/>
<path d="M434.261 211.782L427.464 215.174L417.587 210.404C417.375 209.874 416.738 209.343 415.994 209.025C414.72 208.495 413.551 208.813 413.233 209.555C412.914 210.298 413.658 211.358 414.932 211.782C415.038 211.888 415.251 211.888 415.357 211.888C415.145 211.994 415.038 212.206 415.145 212.418C415.251 212.736 415.676 212.842 416.207 212.736C416.738 212.63 417.056 212.206 416.95 211.994C416.95 211.994 416.95 211.994 417.056 211.994L428.314 218.249C428.314 218.249 433.942 216.34 434.473 215.174C434.792 214.008 434.261 211.782 434.261 211.782Z" fill="url(#paint122_linear_616_4975)"/>
<path d="M440.421 208.071C443.713 211.888 437.022 215.28 434.792 216.977C431.5 214.75 432.031 212.524 432.031 212.524C432.031 212.524 437.447 205.527 440.421 208.071Z" fill="url(#paint123_linear_616_4975)"/>
<path d="M439.996 263.41C439.996 263.41 440.314 266.484 440.208 267.651C440.102 268.817 438.297 268.181 437.766 267.969C437.235 267.757 435.004 266.484 434.155 266.166C431.287 265.106 427.358 261.184 437.659 263.622C438.19 263.834 439.996 263.41 439.996 263.41Z" fill="url(#paint124_linear_616_4975)"/>
<path d="M431.712 267.65C431.712 267.65 432.031 270.725 431.924 271.891C431.818 273.057 430.013 272.421 429.482 272.209C428.951 271.997 426.721 270.725 425.871 270.407C423.003 269.347 419.074 265.424 429.376 267.862C429.907 267.968 431.712 267.65 431.712 267.65Z" fill="url(#paint125_linear_616_4975)"/>
<path d="M426.827 234.999C427.57 231.394 435.642 228.214 439.89 231.182C444.244 237.225 440.208 262.244 440.208 264.364C440.208 265.106 436.385 265.106 436.385 263.41C436.385 261.714 435.535 249.946 435.429 240.299C435.111 239.875 434.048 240.829 433.836 242.207C434.473 251.112 431.924 268.074 431.924 269.029C431.924 269.983 428.632 270.301 428.632 268.923C428.632 267.544 424.596 245.706 426.827 234.999Z" fill="url(#paint126_linear_616_4975)"/>
<path d="M431.393 210.191C428.42 212.206 426.083 214.856 426.19 218.672C426.296 222.383 428.207 225.457 427.783 227.789C427.252 230.546 425.871 232.878 426.19 234.256C427.252 239.769 440.421 235.104 441.27 233.09C442.757 229.698 439.571 224.927 440.314 222.595C442.12 216.658 442.332 206.163 437.341 207.647C432.349 209.237 431.393 210.191 431.393 210.191Z" fill="url(#paint127_linear_616_4975)"/>
<path d="M431.5 205.951C431.5 205.951 431.5 209.873 431.5 210.509C431.5 211.252 435.429 211.146 435.429 208.601C435.429 206.057 435.429 201.286 435.429 201.286H431.5V205.951Z" fill="url(#paint128_linear_616_4975)"/>
<path d="M429.8 198.53C428.526 199.59 429.163 206.693 429.8 206.905C430.544 207.011 432.986 205.315 434.261 204.891C435.429 204.467 436.704 203.407 436.704 201.286C436.704 199.166 433.836 195.244 429.8 198.53Z" fill="url(#paint129_linear_616_4975)"/>
<path d="M429.376 200.65C429.163 201.71 429.907 201.71 431.287 202.346C432.668 202.983 432.349 202.983 431.924 203.937C431.5 204.785 432.668 207.435 434.048 207.859C435.429 208.283 435.217 207.117 435.96 206.269C436.704 205.315 438.509 203.725 437.978 200.544C437.447 197.258 433.411 196.834 431.712 197.046C431.818 196.834 428.207 197.576 429.376 200.65Z" fill="url(#paint130_linear_616_4975)"/>
<path d="M411.215 220.581C411.427 220.581 411.64 220.687 411.852 220.687C411.64 220.369 411.534 219.945 411.746 219.839C411.958 219.627 412.489 219.839 412.808 220.263C413.127 220.687 413.233 221.535 413.127 221.747C414.613 221.959 425.127 225.563 425.127 225.563L427.783 218.885L431.181 220.581C431.181 220.581 427.889 229.062 425.446 228.426C423.216 227.79 414.826 224.503 412.702 223.337C412.277 223.443 411.534 223.337 410.896 223.337C409.41 223.125 408.348 222.171 408.454 221.429C408.56 220.581 409.728 220.369 411.215 220.581Z" fill="url(#paint131_linear_616_4975)"/>
<path d="M431.393 212.63C435.111 213.902 432.455 219.202 431.606 221.217C428.526 221.005 427.464 218.99 427.464 218.99C427.464 218.99 428.42 212.1 431.393 212.63Z" fill="url(#paint132_linear_616_4975)"/>
<path d="M438.934 215.174C438.934 216.658 437.978 217.93 436.81 217.93C435.642 217.93 434.686 216.658 434.686 215.174C434.686 213.69 435.642 212.418 436.81 212.418C437.872 212.418 438.934 213.584 438.934 215.174Z" fill="url(#paint133_linear_616_4975)"/>
<path d="M441.27 200.333C441.27 202.135 439.783 203.513 438.084 203.513C436.279 203.513 434.898 202.029 434.898 200.333C434.898 198.531 436.385 197.152 438.084 197.152C439.89 197.152 441.27 198.531 441.27 200.333Z" fill="url(#paint134_linear_616_4975)"/>
<path d="M290.994 124.321L301.296 118.278" stroke="white" stroke-width="0.3459" stroke-miterlimit="10"/>
<path d="M314.252 266.908L345.794 248.992" stroke="white" stroke-width="0.3459" stroke-miterlimit="10"/>
<defs>
<linearGradient id="paint0_linear_616_4975" x1="0" y1="318.856" x2="220.357" y2="318.856" gradientUnits="userSpaceOnUse">
<stop stop-color="#3F1BA9"/>
<stop offset="1" stop-color="#F72C9A"/>
</linearGradient>
<linearGradient id="paint1_linear_616_4975" x1="220.357" y1="353.047" x2="322.06" y2="353.047" gradientUnits="userSpaceOnUse">
<stop stop-color="#3F1BA9"/>
<stop offset="1" stop-color="#F72C9A"/>
</linearGradient>
<linearGradient id="paint2_linear_616_4975" x1="296.634" y1="302.947" x2="313.584" y2="302.947" gradientUnits="userSpaceOnUse">
<stop stop-color="#3F1BA9"/>
<stop offset="1" stop-color="#F72C9A"/>
</linearGradient>
<linearGradient id="paint3_linear_616_4975" x1="313.584" y1="309.087" x2="347.485" y2="309.087" gradientUnits="userSpaceOnUse">
<stop stop-color="#3F1BA9"/>
<stop offset="1" stop-color="#F72C9A"/>
</linearGradient>
<linearGradient id="paint4_linear_616_4975" x1="347.485" y1="299.325" x2="415.287" y2="299.325" gradientUnits="userSpaceOnUse">
<stop stop-color="#3F1BA9"/>
<stop offset="1" stop-color="#F72C9A"/>
</linearGradient>
<linearGradient id="paint5_linear_616_4975" x1="415.287" y1="284.665" x2="432.238" y2="284.665" gradientUnits="userSpaceOnUse">
<stop stop-color="#3F1BA9"/>
<stop offset="1" stop-color="#F72C9A"/>
</linearGradient>
<linearGradient id="paint6_linear_616_4975" x1="432.238" y1="270.011" x2="500.04" y2="270.011" gradientUnits="userSpaceOnUse">
<stop stop-color="#3F1BA9"/>
<stop offset="1" stop-color="#F72C9A"/>
</linearGradient>
<linearGradient id="paint7_linear_616_4975" x1="42.3761" y1="185.74" x2="93.2278" y2="185.74" gradientUnits="userSpaceOnUse">
<stop stop-color="#3F1BA9"/>
<stop offset="1" stop-color="#F72C9A"/>
</linearGradient>
<linearGradient id="paint8_linear_616_4975" x1="59.3269" y1="139.318" x2="84.7526" y2="139.318" gradientUnits="userSpaceOnUse">
<stop stop-color="#3F1BA9"/>
<stop offset="1" stop-color="#F72C9A"/>
</linearGradient>
<linearGradient id="paint9_linear_616_4975" x1="398.403" y1="167.571" x2="483.104" y2="167.571" gradientUnits="userSpaceOnUse">
<stop stop-color="#3F1BA9"/>
<stop offset="1" stop-color="#F72C9A"/>
</linearGradient>
<linearGradient id="paint10_linear_616_4975" x1="423.778" y1="100.314" x2="449.188" y2="100.314" gradientUnits="userSpaceOnUse">
<stop stop-color="#3F1BA9"/>
<stop offset="1" stop-color="#F72C9A"/>
</linearGradient>
<linearGradient id="paint11_linear_616_4975" x1="278.354" y1="212.06" x2="314.286" y2="212.06" gradientUnits="userSpaceOnUse">
<stop stop-color="#3F1BA9"/>
<stop offset="1" stop-color="#F72C9A"/>
</linearGradient>
<linearGradient id="paint12_linear_616_4975" x1="278.338" y1="204.768" x2="314.3" y2="204.768" gradientUnits="userSpaceOnUse">
<stop stop-color="#8855F2"/>
<stop offset="1" stop-color="#FF5FBE"/>
</linearGradient>
<linearGradient id="paint13_linear_616_4975" x1="278.354" y1="209.029" x2="314.286" y2="209.029" gradientUnits="userSpaceOnUse">
<stop stop-color="#8855F2"/>
<stop offset="1" stop-color="#FF5FBE"/>
</linearGradient>
<linearGradient id="paint14_linear_616_4975" x1="278.338" y1="202.838" x2="314.3" y2="202.838" gradientUnits="userSpaceOnUse">
<stop stop-color="#3F1BA9"/>
<stop offset="1" stop-color="#F72C9A"/>
</linearGradient>
<linearGradient id="paint15_linear_616_4975" x1="283.194" y1="202.838" x2="309.443" y2="202.838" gradientUnits="userSpaceOnUse">
<stop stop-color="#8855F2"/>
<stop offset="1" stop-color="#FF5FBE"/>
</linearGradient>
<linearGradient id="paint16_linear_616_4975" x1="285.06" y1="205.703" x2="307.579" y2="205.703" gradientUnits="userSpaceOnUse">
<stop stop-color="#250B8C"/>
<stop offset="1" stop-color="#CF1983"/>
</linearGradient>
<linearGradient id="paint17_linear_616_4975" x1="285.05" y1="201.823" x2="307.588" y2="201.823" gradientUnits="userSpaceOnUse">
<stop stop-color="#3F1BA9"/>
<stop offset="1" stop-color="#F72C9A"/>
</linearGradient>
<linearGradient id="paint18_linear_616_4975" x1="288.094" y1="201.823" x2="304.544" y2="201.823" gradientUnits="userSpaceOnUse">
<stop stop-color="#8855F2"/>
<stop offset="1" stop-color="#FF5FBE"/>
</linearGradient>
<linearGradient id="paint19_linear_616_4975" x1="100.026" y1="174.595" x2="292.773" y2="174.595" gradientUnits="userSpaceOnUse">
<stop stop-color="#3F1BA9"/>
<stop offset="1" stop-color="#F72C9A"/>
</linearGradient>
<linearGradient id="paint20_linear_616_4975" x1="99.9936" y1="140.412" x2="292.646" y2="140.412" gradientUnits="userSpaceOnUse">
<stop stop-color="#8855F2"/>
<stop offset="1" stop-color="#FF5FBE"/>
</linearGradient>
<linearGradient id="paint21_linear_616_4975" x1="107.35" y1="125.279" x2="285.618" y2="125.279" gradientUnits="userSpaceOnUse">
<stop stop-color="#3F1BA9"/>
<stop offset="1" stop-color="#F72C9A"/>
</linearGradient>
<linearGradient id="paint22_linear_616_4975" x1="149.92" y1="72.0115" x2="242.847" y2="72.0115" gradientUnits="userSpaceOnUse">
<stop stop-color="#8855F2"/>
<stop offset="1" stop-color="#FF5FBE"/>
</linearGradient>
<linearGradient id="paint23_linear_616_4975" x1="153.572" y1="72.0115" x2="239.194" y2="72.0115" gradientUnits="userSpaceOnUse">
<stop stop-color="#2A1668"/>
<stop offset="1" stop-color="#940A57"/>
</linearGradient>
<linearGradient id="paint24_linear_616_4975" x1="156.377" y1="72.0115" x2="236.39" y2="72.0115" gradientUnits="userSpaceOnUse">
<stop stop-color="#8855F2"/>
<stop offset="1" stop-color="#FF5FBE"/>
</linearGradient>
<linearGradient id="paint25_linear_616_4975" x1="156.377" y1="72.0115" x2="236.39" y2="72.0115" gradientUnits="userSpaceOnUse">
<stop stop-color="#8855F2"/>
<stop offset="1" stop-color="#FF5FBE"/>
</linearGradient>
<linearGradient id="paint26_linear_616_4975" x1="161.586" y1="72.0115" x2="231.18" y2="72.0115" gradientUnits="userSpaceOnUse">
<stop stop-color="#A088FF"/>
<stop offset="1" stop-color="#FFE9F8"/>
</linearGradient>
<radialGradient id="paint27_radial_616_4975" cx="0" cy="0" r="1" gradientUnits="userSpaceOnUse" gradientTransform="translate(196.477 49.8134) scale(27.0113 26.9631)">
<stop stop-color="white" stop-opacity="0.3"/>
<stop offset="1" stop-color="white"/>
</radialGradient>
<linearGradient id="paint28_linear_616_4975" x1="292.238" y1="106.511" x2="398.986" y2="106.511" gradientUnits="userSpaceOnUse">
<stop stop-color="#3F1BA9"/>
<stop offset="1" stop-color="#F72C9A"/>
</linearGradient>
<linearGradient id="paint29_linear_616_4975" x1="292.219" y1="87.5794" x2="398.916" y2="87.5794" gradientUnits="userSpaceOnUse">
<stop stop-color="#8855F2"/>
<stop offset="1" stop-color="#FF5FBE"/>
</linearGradient>
<linearGradient id="paint30_linear_616_4975" x1="296.294" y1="79.1984" x2="395.024" y2="79.1984" gradientUnits="userSpaceOnUse">
<stop stop-color="#3F1BA9"/>
<stop offset="1" stop-color="#F72C9A"/>
</linearGradient>
<linearGradient id="paint31_linear_616_4975" x1="319.87" y1="49.6973" x2="371.336" y2="49.6973" gradientUnits="userSpaceOnUse">
<stop stop-color="#8855F2"/>
<stop offset="1" stop-color="#FF5FBE"/>
</linearGradient>
<linearGradient id="paint32_linear_616_4975" x1="321.893" y1="49.6974" x2="369.313" y2="49.6974" gradientUnits="userSpaceOnUse">
<stop stop-color="#2A1668"/>
<stop offset="1" stop-color="#940A57"/>
</linearGradient>
<linearGradient id="paint33_linear_616_4975" x1="323.446" y1="49.6972" x2="367.759" y2="49.6972" gradientUnits="userSpaceOnUse">
<stop stop-color="#8855F2"/>
<stop offset="1" stop-color="#FF5FBE"/>
</linearGradient>
<linearGradient id="paint34_linear_616_4975" x1="323.446" y1="49.6972" x2="367.759" y2="49.6972" gradientUnits="userSpaceOnUse">
<stop stop-color="#8855F2"/>
<stop offset="1" stop-color="#FF5FBE"/>
</linearGradient>
<linearGradient id="paint35_linear_616_4975" x1="326.331" y1="49.6972" x2="364.874" y2="49.6972" gradientUnits="userSpaceOnUse">
<stop stop-color="#A088FF"/>
<stop offset="1" stop-color="#FFE9F8"/>
</linearGradient>
<linearGradient id="paint36_linear_616_4975" x1="350.148" y1="42.0594" x2="350.148" y2="18.3691" gradientUnits="userSpaceOnUse">
<stop stop-color="white"/>
<stop offset="1" stop-color="white" stop-opacity="0"/>
</linearGradient>
<linearGradient id="paint37_linear_616_4975" x1="339.874" y1="10.9429" x2="349.592" y2="32.5562" gradientUnits="userSpaceOnUse">
<stop stop-color="white" stop-opacity="0.4"/>
<stop offset="1" stop-color="white" stop-opacity="0"/>
</linearGradient>
<linearGradient id="paint38_linear_616_4975" x1="350.569" y1="-0.0756022" x2="345.995" y2="32.1644" gradientUnits="userSpaceOnUse">
<stop stop-color="white" stop-opacity="0.1"/>
<stop offset="1" stop-color="white" stop-opacity="0"/>
</linearGradient>
<linearGradient id="paint39_linear_616_4975" x1="350.081" y1="30.1427" x2="336.66" y2="49.6812" gradientUnits="userSpaceOnUse">
<stop stop-color="white"/>
<stop offset="1" stop-color="white" stop-opacity="0"/>
</linearGradient>
<linearGradient id="paint40_linear_616_4975" x1="415.787" y1="142.94" x2="451.387" y2="142.94" gradientUnits="userSpaceOnUse">
<stop stop-color="#3F1BA9"/>
<stop offset="1" stop-color="#F72C9A"/>
</linearGradient>
<linearGradient id="paint41_linear_616_4975" x1="415.781" y1="136.627" x2="451.363" y2="136.627" gradientUnits="userSpaceOnUse">
<stop stop-color="#8855F2"/>
<stop offset="1" stop-color="#FF5FBE"/>
</linearGradient>
<linearGradient id="paint42_linear_616_4975" x1="417.14" y1="133.832" x2="450.065" y2="133.832" gradientUnits="userSpaceOnUse">
<stop stop-color="#3F1BA9"/>
<stop offset="1" stop-color="#F72C9A"/>
</linearGradient>
<linearGradient id="paint43_linear_616_4975" x1="425.002" y1="123.993" x2="442.165" y2="123.993" gradientUnits="userSpaceOnUse">
<stop stop-color="#8855F2"/>
<stop offset="1" stop-color="#FF5FBE"/>
</linearGradient>
<linearGradient id="paint44_linear_616_4975" x1="425.677" y1="123.994" x2="441.491" y2="123.994" gradientUnits="userSpaceOnUse">
<stop stop-color="#2A1668"/>
<stop offset="1" stop-color="#940A57"/>
</linearGradient>
<linearGradient id="paint45_linear_616_4975" x1="426.195" y1="123.993" x2="440.973" y2="123.993" gradientUnits="userSpaceOnUse">
<stop stop-color="#8855F2"/>
<stop offset="1" stop-color="#FF5FBE"/>
</linearGradient>
<linearGradient id="paint46_linear_616_4975" x1="426.195" y1="123.993" x2="440.973" y2="123.993" gradientUnits="userSpaceOnUse">
<stop stop-color="#8855F2"/>
<stop offset="1" stop-color="#FF5FBE"/>
</linearGradient>
<linearGradient id="paint47_linear_616_4975" x1="427.157" y1="123.994" x2="440.011" y2="123.994" gradientUnits="userSpaceOnUse">
<stop stop-color="#A088FF"/>
<stop offset="1" stop-color="#FFE9F8"/>
</linearGradient>
<linearGradient id="paint48_linear_616_4975" x1="321.82" y1="290.339" x2="357.42" y2="290.339" gradientUnits="userSpaceOnUse">
<stop stop-color="#3F1BA9"/>
<stop offset="1" stop-color="#F72C9A"/>
</linearGradient>
<linearGradient id="paint49_linear_616_4975" x1="321.814" y1="284.026" x2="357.396" y2="284.026" gradientUnits="userSpaceOnUse">
<stop stop-color="#8855F2"/>
<stop offset="1" stop-color="#FF5FBE"/>
</linearGradient>
<linearGradient id="paint50_linear_616_4975" x1="323.172" y1="281.23" x2="356.098" y2="281.23" gradientUnits="userSpaceOnUse">
<stop stop-color="#3F1BA9"/>
<stop offset="1" stop-color="#F72C9A"/>
</linearGradient>
<linearGradient id="paint51_linear_616_4975" x1="331.035" y1="271.392" x2="348.198" y2="271.392" gradientUnits="userSpaceOnUse">
<stop stop-color="#8855F2"/>
<stop offset="1" stop-color="#FF5FBE"/>
</linearGradient>
<linearGradient id="paint52_linear_616_4975" x1="331.71" y1="271.392" x2="347.524" y2="271.392" gradientUnits="userSpaceOnUse">
<stop stop-color="#2A1668"/>
<stop offset="1" stop-color="#940A57"/>
</linearGradient>
<linearGradient id="paint53_linear_616_4975" x1="332.228" y1="271.392" x2="347.006" y2="271.392" gradientUnits="userSpaceOnUse">
<stop stop-color="#8855F2"/>
<stop offset="1" stop-color="#FF5FBE"/>
</linearGradient>
<linearGradient id="paint54_linear_616_4975" x1="332.228" y1="271.392" x2="347.006" y2="271.392" gradientUnits="userSpaceOnUse">
<stop stop-color="#8855F2"/>
<stop offset="1" stop-color="#FF5FBE"/>
</linearGradient>
<linearGradient id="paint55_linear_616_4975" x1="333.19" y1="271.392" x2="346.044" y2="271.392" gradientUnits="userSpaceOnUse">
<stop stop-color="#A088FF"/>
<stop offset="1" stop-color="#FFE9F8"/>
</linearGradient>
<linearGradient id="paint56_linear_616_4975" x1="68.9813" y1="242.634" x2="123.788" y2="242.634" gradientUnits="userSpaceOnUse">
<stop stop-color="#3F1BA9"/>
<stop offset="1" stop-color="#F72C9A"/>
</linearGradient>
<linearGradient id="paint57_linear_616_4975" x1="68.9565" y1="217.879" x2="123.809" y2="217.879" gradientUnits="userSpaceOnUse">
<stop stop-color="#8855F2"/>
<stop offset="1" stop-color="#FF5FBE"/>
</linearGradient>
<linearGradient id="paint58_linear_616_4975" x1="68.9813" y1="224.377" x2="123.788" y2="224.377" gradientUnits="userSpaceOnUse">
<stop stop-color="#8855F2"/>
<stop offset="1" stop-color="#FF5FBE"/>
</linearGradient>
<linearGradient id="paint59_linear_616_4975" x1="68.9565" y1="214.936" x2="123.809" y2="214.936" gradientUnits="userSpaceOnUse">
<stop stop-color="#3F1BA9"/>
<stop offset="1" stop-color="#F72C9A"/>
</linearGradient>
<linearGradient id="paint60_linear_616_4975" x1="76.3641" y1="214.936" x2="116.402" y2="214.936" gradientUnits="userSpaceOnUse">
<stop stop-color="#8855F2"/>
<stop offset="1" stop-color="#FF5FBE"/>
</linearGradient>
<linearGradient id="paint61_linear_616_4975" x1="79.2104" y1="219.304" x2="113.557" y2="219.304" gradientUnits="userSpaceOnUse">
<stop stop-color="#250B8C"/>
<stop offset="1" stop-color="#CF1983"/>
</linearGradient>
<linearGradient id="paint62_linear_616_4975" x1="79.1948" y1="213.388" x2="113.57" y2="213.388" gradientUnits="userSpaceOnUse">
<stop stop-color="#3F1BA9"/>
<stop offset="1" stop-color="#F72C9A"/>
</linearGradient>
<linearGradient id="paint63_linear_616_4975" x1="83.8372" y1="213.388" x2="108.928" y2="213.388" gradientUnits="userSpaceOnUse">
<stop stop-color="#8855F2"/>
<stop offset="1" stop-color="#FF5FBE"/>
</linearGradient>
<linearGradient id="paint64_linear_616_4975" x1="96.3333" y1="217.182" x2="96.3333" y2="157.695" gradientUnits="userSpaceOnUse">
<stop stop-color="white"/>
<stop offset="0.1458" stop-color="white" stop-opacity="0.8542"/>
<stop offset="1" stop-color="white" stop-opacity="0"/>
</linearGradient>
<linearGradient id="paint65_linear_616_4975" x1="283.935" y1="276.505" x2="229.128" y2="276.505" gradientUnits="userSpaceOnUse">
<stop stop-color="#3F1BA9"/>
<stop offset="1" stop-color="#F72C9A"/>
</linearGradient>
<linearGradient id="paint66_linear_616_4975" x1="283.959" y1="251.75" x2="229.107" y2="251.75" gradientUnits="userSpaceOnUse">
<stop stop-color="#8855F2"/>
<stop offset="1" stop-color="#FF5FBE"/>
</linearGradient>
<linearGradient id="paint67_linear_616_4975" x1="283.935" y1="258.249" x2="229.128" y2="258.249" gradientUnits="userSpaceOnUse">
<stop stop-color="#8855F2"/>
<stop offset="1" stop-color="#FF5FBE"/>
</linearGradient>
<linearGradient id="paint68_linear_616_4975" x1="283.959" y1="248.807" x2="229.107" y2="248.807" gradientUnits="userSpaceOnUse">
<stop stop-color="#3F1BA9"/>
<stop offset="1" stop-color="#F72C9A"/>
</linearGradient>
<linearGradient id="paint69_linear_616_4975" x1="276.551" y1="248.808" x2="236.514" y2="248.808" gradientUnits="userSpaceOnUse">
<stop stop-color="#8855F2"/>
<stop offset="1" stop-color="#FF5FBE"/>
</linearGradient>
<linearGradient id="paint70_linear_616_4975" x1="273.706" y1="253.176" x2="239.359" y2="253.176" gradientUnits="userSpaceOnUse">
<stop stop-color="#250B8C"/>
<stop offset="1" stop-color="#CF1983"/>
</linearGradient>
<linearGradient id="paint71_linear_616_4975" x1="273.721" y1="247.259" x2="239.346" y2="247.259" gradientUnits="userSpaceOnUse">
<stop stop-color="#3F1BA9"/>
<stop offset="1" stop-color="#F72C9A"/>
</linearGradient>
<linearGradient id="paint72_linear_616_4975" x1="269.078" y1="247.259" x2="243.988" y2="247.259" gradientUnits="userSpaceOnUse">
<stop stop-color="#8855F2"/>
<stop offset="1" stop-color="#FF5FBE"/>
</linearGradient>
<linearGradient id="paint73_linear_616_4975" x1="256.583" y1="251.054" x2="256.583" y2="191.567" gradientUnits="userSpaceOnUse">
<stop stop-color="white"/>
<stop offset="0.1458" stop-color="white" stop-opacity="0.8542"/>
<stop offset="1" stop-color="white" stop-opacity="0"/>
</linearGradient>
<linearGradient id="paint74_linear_616_4975" x1="419.827" y1="210.319" x2="322.067" y2="210.319" gradientUnits="userSpaceOnUse">
<stop stop-color="#3F1BA9"/>
<stop offset="1" stop-color="#F72C9A"/>
</linearGradient>
<linearGradient id="paint75_linear_616_4975" x1="419.871" y1="166.163" x2="322.028" y2="166.163" gradientUnits="userSpaceOnUse">
<stop stop-color="#8855F2"/>
<stop offset="1" stop-color="#FF5FBE"/>
</linearGradient>
<linearGradient id="paint76_linear_616_4975" x1="419.827" y1="177.754" x2="322.067" y2="177.754" gradientUnits="userSpaceOnUse">
<stop stop-color="#8855F2"/>
<stop offset="1" stop-color="#FF5FBE"/>
</linearGradient>
<linearGradient id="paint77_linear_616_4975" x1="419.871" y1="160.913" x2="322.028" y2="160.913" gradientUnits="userSpaceOnUse">
<stop stop-color="#3F1BA9"/>
<stop offset="1" stop-color="#F72C9A"/>
</linearGradient>
<linearGradient id="paint78_linear_616_4975" x1="406.658" y1="160.914" x2="335.241" y2="160.914" gradientUnits="userSpaceOnUse">
<stop stop-color="#8855F2"/>
<stop offset="1" stop-color="#FF5FBE"/>
</linearGradient>
<linearGradient id="paint79_linear_616_4975" x1="401.58" y1="168.706" x2="340.315" y2="168.706" gradientUnits="userSpaceOnUse">
<stop stop-color="#250B8C"/>
<stop offset="1" stop-color="#CF1983"/>
</linearGradient>
<linearGradient id="paint80_linear_616_4975" x1="401.608" y1="158.152" x2="340.29" y2="158.152" gradientUnits="userSpaceOnUse">
<stop stop-color="#3F1BA9"/>
<stop offset="1" stop-color="#F72C9A"/>
</linearGradient>
<linearGradient id="paint81_linear_616_4975" x1="393.327" y1="158.152" x2="348.571" y2="158.152" gradientUnits="userSpaceOnUse">
<stop stop-color="#8855F2"/>
<stop offset="1" stop-color="#FF5FBE"/>
</linearGradient>
<linearGradient id="paint82_linear_616_4975" x1="371.037" y1="164.92" x2="371.037" y2="58.811" gradientUnits="userSpaceOnUse">
<stop stop-color="white"/>
<stop offset="0.1458" stop-color="white" stop-opacity="0.8542"/>
<stop offset="1" stop-color="white" stop-opacity="0"/>
</linearGradient>
<linearGradient id="paint83_linear_616_4975" x1="386.449" y1="212.896" x2="433.572" y2="212.896" gradientUnits="userSpaceOnUse">
<stop stop-color="#4A0D8A"/>
<stop offset="1" stop-color="#DD77FF"/>
</linearGradient>
<linearGradient id="paint84_linear_616_4975" x1="391.022" y1="212.895" x2="428.998" y2="212.895" gradientUnits="userSpaceOnUse">
<stop stop-color="#9D4FFF"/>
<stop offset="1" stop-color="#F6E1FF"/>
</linearGradient>
<linearGradient id="paint85_linear_616_4975" x1="421.795" y1="261.357" x2="421.795" y2="216.226" gradientUnits="userSpaceOnUse">
<stop stop-color="#4A0D8A"/>
<stop offset="1" stop-color="#DD77FF"/>
</linearGradient>
<linearGradient id="paint86_linear_616_4975" x1="386.449" y1="235.466" x2="410.019" y2="235.466" gradientUnits="userSpaceOnUse">
<stop stop-color="#4A0D8A"/>
<stop offset="1" stop-color="#DD77FF"/>
</linearGradient>
<linearGradient id="paint87_linear_616_4975" x1="176.458" y1="306.386" x2="176.458" y2="229.464" gradientUnits="userSpaceOnUse">
<stop stop-color="#4A0D8A"/>
<stop offset="1" stop-color="#DD77FF"/>
</linearGradient>
<linearGradient id="paint88_linear_616_4975" x1="149.767" y1="309.785" x2="149.767" y2="244.856" gradientUnits="userSpaceOnUse">
<stop stop-color="#4A0D8A"/>
<stop offset="1" stop-color="#DD77FF"/>
</linearGradient>
<linearGradient id="paint89_linear_616_4975" x1="229.841" y1="309.785" x2="229.841" y2="275.621" gradientUnits="userSpaceOnUse">
<stop stop-color="#4A0D8A"/>
<stop offset="1" stop-color="#DD77FF"/>
</linearGradient>
<linearGradient id="paint90_linear_616_4975" x1="121.34" y1="221.777" x2="158.304" y2="221.777" gradientUnits="userSpaceOnUse">
<stop stop-color="white" stop-opacity="0.7"/>
<stop offset="1" stop-color="white" stop-opacity="0.1"/>
</linearGradient>
<linearGradient id="paint91_linear_616_4975" x1="164.747" y1="247.345" x2="201.711" y2="247.345" gradientUnits="userSpaceOnUse">
<stop stop-color="white" stop-opacity="0.7"/>
<stop offset="1" stop-color="white" stop-opacity="0.1"/>
</linearGradient>
<linearGradient id="paint92_linear_616_4975" x1="216.934" y1="282.202" x2="240.629" y2="282.202" gradientUnits="userSpaceOnUse">
<stop stop-color="#3F1BA9"/>
<stop offset="1" stop-color="#F72C9A"/>
</linearGradient>
<linearGradient id="paint93_linear_616_4975" x1="216.93" y1="277.999" x2="240.613" y2="277.999" gradientUnits="userSpaceOnUse">
<stop stop-color="#8855F2"/>
<stop offset="1" stop-color="#FF5FBE"/>
</linearGradient>
<linearGradient id="paint94_linear_616_4975" x1="253.332" y1="271.826" x2="261.695" y2="275.909" gradientUnits="userSpaceOnUse">
<stop stop-color="#FF4FFF"/>
<stop offset="1" stop-color="#FFC908"/>
</linearGradient>
<linearGradient id="paint95_linear_616_4975" x1="254.793" y1="280.396" x2="231.24" y2="272.066" gradientUnits="userSpaceOnUse">
<stop stop-color="#FFD9E5"/>
<stop offset="1" stop-color="#FF97BF"/>
</linearGradient>
<linearGradient id="paint96_linear_616_4975" x1="251.168" y1="339.162" x2="262.464" y2="339.162" gradientUnits="userSpaceOnUse">
<stop stop-color="#A088FF"/>
<stop offset="1" stop-color="#FFE9F8"/>
</linearGradient>
<linearGradient id="paint97_linear_616_4975" x1="240.637" y1="343.925" x2="251.932" y2="343.925" gradientUnits="userSpaceOnUse">
<stop stop-color="#A088FF"/>
<stop offset="1" stop-color="#FFE9F8"/>
</linearGradient>
<linearGradient id="paint98_linear_616_4975" x1="244.971" y1="319.705" x2="263.903" y2="319.705" gradientUnits="userSpaceOnUse">
<stop stop-color="#9400B1"/>
<stop offset="1" stop-color="#FF8F25"/>
</linearGradient>
<linearGradient id="paint99_linear_616_4975" x1="244.484" y1="286.356" x2="264.995" y2="286.356" gradientUnits="userSpaceOnUse">
<stop stop-color="#FF4FFF"/>
<stop offset="1" stop-color="#FFC908"/>
</linearGradient>
<linearGradient id="paint100_linear_616_4975" x1="251.516" y1="266.903" x2="256.309" y2="266.903" gradientUnits="userSpaceOnUse">
<stop stop-color="#FFD9E5"/>
<stop offset="1" stop-color="#FF97BF"/>
</linearGradient>
<linearGradient id="paint101_linear_616_4975" x1="248.425" y1="262.332" x2="257.787" y2="262.332" gradientUnits="userSpaceOnUse">
<stop stop-color="#FFD9E5"/>
<stop offset="1" stop-color="#FF97BF"/>
</linearGradient>
<linearGradient id="paint102_linear_616_4975" x1="246.697" y1="262.134" x2="259.574" y2="262.134" gradientUnits="userSpaceOnUse">
<stop stop-color="#3F1BA9"/>
<stop offset="1" stop-color="#F72C9A"/>
</linearGradient>
<linearGradient id="paint103_linear_616_4975" x1="218.706" y1="275.569" x2="240.621" y2="275.569" gradientUnits="userSpaceOnUse">
<stop stop-color="#3F1BA9"/>
<stop offset="1" stop-color="#F72C9A"/>
</linearGradient>
<linearGradient id="paint104_linear_616_4975" x1="223.939" y1="269.021" x2="235.363" y2="269.021" gradientUnits="userSpaceOnUse">
<stop stop-color="#8855F2"/>
<stop offset="1" stop-color="#FF5FBE"/>
</linearGradient>
<linearGradient id="paint105_linear_616_4975" x1="224.388" y1="269.021" x2="234.914" y2="269.021" gradientUnits="userSpaceOnUse">
<stop stop-color="#2A1668"/>
<stop offset="1" stop-color="#940A57"/>
</linearGradient>
<linearGradient id="paint106_linear_616_4975" x1="224.733" y1="269.021" x2="234.569" y2="269.021" gradientUnits="userSpaceOnUse">
<stop stop-color="#8855F2"/>
<stop offset="1" stop-color="#FF5FBE"/>
</linearGradient>
<linearGradient id="paint107_linear_616_4975" x1="225.373" y1="269.021" x2="233.929" y2="269.021" gradientUnits="userSpaceOnUse">
<stop stop-color="#A088FF"/>
<stop offset="1" stop-color="#FFE9F8"/>
</linearGradient>
<linearGradient id="paint108_linear_616_4975" x1="247.624" y1="286.25" x2="222.333" y2="286.25" gradientUnits="userSpaceOnUse">
<stop stop-color="#FFD9E5"/>
<stop offset="1" stop-color="#FF97BF"/>
</linearGradient>
<linearGradient id="paint109_linear_616_4975" x1="243.387" y1="278.949" x2="252.636" y2="280.01" gradientUnits="userSpaceOnUse">
<stop stop-color="#9400B1"/>
<stop offset="1" stop-color="#FF8F25"/>
</linearGradient>
<linearGradient id="paint110_linear_616_4975" x1="255.182" y1="277.484" x2="260.393" y2="278.082" gradientUnits="userSpaceOnUse">
<stop stop-color="#DAD4FF"/>
<stop offset="1" stop-color="#FFF4FB"/>
</linearGradient>
<linearGradient id="paint111_linear_616_4975" x1="116.368" y1="238.918" x2="108.005" y2="243.001" gradientUnits="userSpaceOnUse">
<stop stop-color="#FF8F25"/>
<stop offset="1" stop-color="#9400B1"/>
</linearGradient>
<linearGradient id="paint112_linear_616_4975" x1="118.531" y1="306.255" x2="107.236" y2="306.255" gradientUnits="userSpaceOnUse">
<stop stop-color="#A088FF"/>
<stop offset="1" stop-color="#FFE9F8"/>
</linearGradient>
<linearGradient id="paint113_linear_616_4975" x1="129.062" y1="311.017" x2="117.767" y2="311.017" gradientUnits="userSpaceOnUse">
<stop stop-color="#A088FF"/>
<stop offset="1" stop-color="#FFE9F8"/>
</linearGradient>
<linearGradient id="paint114_linear_616_4975" x1="124.729" y1="286.798" x2="106.026" y2="286.798" gradientUnits="userSpaceOnUse">
<stop stop-color="#FF4FFF"/>
<stop offset="1" stop-color="#FFC908"/>
</linearGradient>
<linearGradient id="paint115_linear_616_4975" x1="125.215" y1="253.535" x2="104.97" y2="253.535" gradientUnits="userSpaceOnUse">
<stop stop-color="#FF8F25"/>
<stop offset="1" stop-color="#9400B1"/>
</linearGradient>
<linearGradient id="paint116_linear_616_4975" x1="118.183" y1="233.928" x2="113.39" y2="233.928" gradientUnits="userSpaceOnUse">
<stop stop-color="#F5C1B3"/>
<stop offset="1" stop-color="#C07051"/>
</linearGradient>
<linearGradient id="paint117_linear_616_4975" x1="121.301" y1="228.835" x2="111.912" y2="228.835" gradientUnits="userSpaceOnUse">
<stop stop-color="#F5C1B3"/>
<stop offset="1" stop-color="#C07051"/>
</linearGradient>
<linearGradient id="paint118_linear_616_4975" x1="110.126" y1="229.375" x2="121.089" y2="229.375" gradientUnits="userSpaceOnUse">
<stop stop-color="#220D78"/>
<stop offset="1" stop-color="#FF5FBE"/>
</linearGradient>
<linearGradient id="paint119_linear_616_4975" x1="128.217" y1="250.756" x2="148.21" y2="234.297" gradientUnits="userSpaceOnUse">
<stop stop-color="#F5C1B3"/>
<stop offset="1" stop-color="#C07051"/>
</linearGradient>
<linearGradient id="paint120_linear_616_4975" x1="127.005" y1="242.622" x2="120.543" y2="249.313" gradientUnits="userSpaceOnUse">
<stop stop-color="#FF8F25"/>
<stop offset="1" stop-color="#9400B1"/>
</linearGradient>
<linearGradient id="paint121_linear_616_4975" x1="114.518" y1="244.576" x2="109.307" y2="245.174" gradientUnits="userSpaceOnUse">
<stop stop-color="#DAD4FF"/>
<stop offset="1" stop-color="#FFF4FB"/>
</linearGradient>
<linearGradient id="paint122_linear_616_4975" x1="413.09" y1="213.45" x2="434.466" y2="213.45" gradientUnits="userSpaceOnUse">
<stop stop-color="#F5C1B3"/>
<stop offset="1" stop-color="#C07051"/>
</linearGradient>
<linearGradient id="paint123_linear_616_4975" x1="433.045" y1="210.225" x2="439.952" y2="213.597" gradientUnits="userSpaceOnUse">
<stop stop-color="#FF8F25"/>
<stop offset="1" stop-color="#9400B1"/>
</linearGradient>
<linearGradient id="paint124_linear_616_4975" x1="430.885" y1="265.555" x2="440.214" y2="265.555" gradientUnits="userSpaceOnUse">
<stop stop-color="#A088FF"/>
<stop offset="1" stop-color="#FFE9F8"/>
</linearGradient>
<linearGradient id="paint125_linear_616_4975" x1="422.56" y1="269.775" x2="431.889" y2="269.775" gradientUnits="userSpaceOnUse">
<stop stop-color="#A088FF"/>
<stop offset="1" stop-color="#FFE9F8"/>
</linearGradient>
<linearGradient id="paint126_linear_616_4975" x1="426.139" y1="249.9" x2="441.915" y2="249.9" gradientUnits="userSpaceOnUse">
<stop stop-color="#FF4FFF"/>
<stop offset="1" stop-color="#FFC908"/>
</linearGradient>
<linearGradient id="paint127_linear_616_4975" x1="426.097" y1="222.234" x2="441.641" y2="222.234" gradientUnits="userSpaceOnUse">
<stop stop-color="#FF8F25"/>
<stop offset="1" stop-color="#9400B1"/>
</linearGradient>
<linearGradient id="paint128_linear_616_4975" x1="431.545" y1="206.103" x2="435.504" y2="206.103" gradientUnits="userSpaceOnUse">
<stop stop-color="#F5C1B3"/>
<stop offset="1" stop-color="#C07051"/>
</linearGradient>
<linearGradient id="paint129_linear_616_4975" x1="429.111" y1="202.098" x2="436.725" y2="202.098" gradientUnits="userSpaceOnUse">
<stop stop-color="#F5C1B3"/>
<stop offset="1" stop-color="#C07051"/>
</linearGradient>
<linearGradient id="paint130_linear_616_4975" x1="438.2" y1="202.342" x2="429.13" y2="202.342" gradientUnits="userSpaceOnUse">
<stop stop-color="#220D78"/>
<stop offset="1" stop-color="#FF5FBE"/>
</linearGradient>
<linearGradient id="paint131_linear_616_4975" x1="431.416" y1="223.185" x2="408.703" y2="224.763" gradientUnits="userSpaceOnUse">
<stop stop-color="#F5C1B3"/>
<stop offset="1" stop-color="#C07051"/>
</linearGradient>
<linearGradient id="paint132_linear_616_4975" x1="427.317" y1="217.222" x2="433.412" y2="216.709" gradientUnits="userSpaceOnUse">
<stop stop-color="#FF8F25"/>
<stop offset="1" stop-color="#9400B1"/>
</linearGradient>
<linearGradient id="paint133_linear_616_4975" x1="434.573" y1="214.898" x2="438.877" y2="215.391" gradientUnits="userSpaceOnUse">
<stop stop-color="#DAD4FF"/>
<stop offset="1" stop-color="#FFF4FB"/>
</linearGradient>
<linearGradient id="paint134_linear_616_4975" x1="434.868" y1="200.317" x2="441.298" y2="200.317" gradientUnits="userSpaceOnUse">
<stop stop-color="#220D78"/>
<stop offset="1" stop-color="#FF5FBE"/>
</linearGradient>
</defs>
</svg>
