<svg width="481" height="471" viewBox="0 0 481 471" fill="none" xmlns="http://www.w3.org/2000/svg">
<g clip-path="url(#clip0_616_5614)">
<g style="mix-blend-mode:multiply" opacity="0.36">
<path d="M246.775 471C375.583 471 480.002 464.052 480.002 455.482C480.002 446.912 375.583 439.965 246.775 439.965C117.968 439.965 13.5492 446.912 13.5492 455.482C13.5492 464.052 117.968 471 246.775 471Z" fill="#575757"/>
</g>
<path d="M175.342 305.65C175.342 305.65 174.686 292.227 155.658 285.075C155.658 285.075 158.601 303.211 175.342 305.65Z" fill="#48BE97"/>
<path d="M173.827 329.391C173.827 329.391 171.85 312.064 146.625 304.401C146.685 304.413 151.963 327.629 173.827 329.391Z" fill="#48BE97"/>
<path d="M180.134 363.745C180.134 363.745 177.274 343.646 147.677 335.554C147.677 335.554 154.635 362.4 180.134 363.745Z" fill="#48BE97"/>
<path d="M200.793 399.755C200.793 399.755 189.581 378.037 152.739 380.536C152.739 380.536 171.291 408.299 200.793 399.755Z" fill="#48BE97"/>
<path d="M175.284 305.912C175.284 305.912 177.894 292.715 197.756 288.407C197.78 288.407 192.227 305.924 175.284 305.912Z" fill="#48BE97"/>
<path d="M173.34 329.617C173.34 329.617 177.832 312.766 203.902 308.851C203.878 308.851 195.24 331.057 173.34 329.617Z" fill="#48BE97"/>
<path d="M179.658 363.591C179.658 363.591 177.132 343.444 203.559 327.891C203.559 327.867 203.881 355.594 179.658 363.591Z" fill="#48BE97"/>
<path d="M199.174 399.969C199.174 399.969 189.308 377.621 214.402 350.561C214.402 350.561 224.375 382.417 199.174 399.969Z" fill="#48BE97"/>
<path d="M175.615 305.245C175.615 305.245 157.004 382.655 242.197 437.977" stroke="#48BE97" stroke-width="2.01" stroke-miterlimit="10" stroke-linecap="round"/>
<path d="M315.987 330.497C315.987 330.497 318.489 317.288 338.316 312.838C338.316 312.838 332.894 330.378 315.987 330.497Z" fill="#48BE97"/>
<path d="M313.712 354.44C313.712 354.44 318.073 337.554 344.108 333.449C344.108 333.449 335.612 355.714 313.712 354.44Z" fill="#48BE97"/>
<path d="M303.408 386.796C303.408 386.796 313.881 369.398 344.289 373.456C344.289 373.456 327.417 395.471 303.408 386.796Z" fill="#48BE97"/>
<path d="M278.813 420.175C278.813 420.175 296.578 403.373 330.524 417.89C330.524 417.89 303.834 437.978 278.813 420.175Z" fill="#48BE97"/>
<path d="M315.975 330.747C315.975 330.747 315.224 317.324 296.148 310.315C296.148 310.315 299.199 328.426 315.975 330.747Z" fill="#48BE97"/>
<path d="M313.713 354.381C313.713 354.381 311.616 337.066 286.309 329.581C286.333 329.581 291.837 352.762 313.713 354.381Z" fill="#48BE97"/>
<path d="M303.68 387.272C303.68 387.272 308.97 367.673 284.961 348.597C284.961 348.597 280.779 376.003 303.68 387.272Z" fill="#48BE97"/>
<path d="M279.302 420.592C279.302 420.592 292.17 399.814 271.069 369.541C271.069 369.565 256.782 399.731 279.302 420.592Z" fill="#48BE97"/>
<path d="M315.761 330.045C315.761 330.045 318.49 395.091 267.493 429.362" stroke="#48BE97" stroke-width="2.01" stroke-miterlimit="10" stroke-linecap="round"/>
<path d="M71.8838 455.482C77.6388 443.023 87.8858 406.466 72.0983 398.827C62.2088 394.067 59.3015 402.242 59.3015 402.242C59.3015 402.242 66.4506 362.258 49.4954 362.175C39.6177 362.115 37.9496 373.456 37.9496 373.456C37.9496 373.456 32.5759 360.949 26.0345 357.32C11.7364 349.418 -5.26646 357.581 7.91164 379.93C10.2564 383.787 13.1322 387.296 16.4548 390.354C16.4548 390.354 1.54898 384.749 0.0953379 395.388C-1.3583 406.026 26.8447 422.972 26.8447 422.972C26.8447 422.972 18.3969 423.293 18.0633 433.039C17.6105 446.212 44.8485 455.53 44.8485 455.53L71.8838 455.482Z" fill="#36A871"/>
<path d="M18.0043 367.042C36.5323 394.174 51.7478 402.23 64.1276 452.721" stroke="white" stroke-width="0.79" stroke-miterlimit="10" stroke-linecap="round"/>
<path d="M84.454 455.483C83.8464 436.955 111.215 398.482 94.6414 389.153C84.2396 383.298 81.3084 393.913 81.3084 393.913C81.3084 393.913 104.722 354.274 82.3212 351.62C74.5049 350.692 69.9772 362.092 69.9772 362.092C69.9772 362.092 69.7865 341.684 63.543 334.044C53.3318 321.573 31.9799 328.534 37.02 355.464C39.7843 370.208 49.9241 376.039 49.9241 376.039C49.9241 376.039 39.6652 368.221 34.768 378.49C28.2147 392.247 50.2577 410.025 50.2577 410.025C50.2577 410.025 40.4158 402.742 33.9221 414.642C25.0811 430.66 58.5148 455.483 58.5148 455.483H84.454Z" fill="#48BE97"/>
<path d="M54.8196 348.811C67.3543 380.608 73.8837 415.451 76.6004 452.341" stroke="white" stroke-width="0.79" stroke-miterlimit="10" stroke-linecap="round"/>
<path d="M413.763 455.482C417.838 440.44 398.19 410.81 413.453 403.229C422.985 398.469 428.156 403.348 428.156 403.348C428.156 403.348 416.896 373.479 435.579 371.326C437.359 371.076 439.17 371.44 440.715 372.357C442.259 373.275 443.444 374.69 444.075 376.371C444.075 376.371 446.66 367.529 453.607 361.972C466.845 351.453 484.098 355.356 474.816 377.18C469.728 389.164 465.701 390.913 465.701 390.913C465.701 390.913 474.911 389.128 476.889 397.47C479.558 408.644 457.515 427.339 457.515 427.339C457.515 427.339 465.439 428.088 466.475 434.003C468.787 447.092 441.001 455.482 441.001 455.482H413.763Z" fill="#36A871"/>
<path d="M468.822 364.163C443.454 384.726 442.513 426.578 429.669 450.747" stroke="white" stroke-width="0.72" stroke-miterlimit="10" stroke-linecap="round"/>
<path d="M402.292 455.483C393.117 440.394 373.135 396.15 387.779 386.892C396.966 381.084 402.077 391.021 402.077 391.021C402.077 391.021 384.478 342.612 402.256 342.517C412.622 342.457 417.233 356.178 417.233 356.178C417.233 356.178 420.748 341.969 425.681 333.437C437.024 313.802 463.631 321.644 454.277 352.822C451.894 360.712 444.745 370.743 444.745 370.743C444.745 370.743 461.271 369.756 460.83 384.036C460.413 397.578 437.513 410.323 437.513 410.323C437.513 410.323 452.74 406.931 455.552 418.736C459.341 434.682 425.764 455.483 425.764 455.483H402.292Z" fill="#48BE97"/>
<path d="M441.587 341.267C428.802 384.571 410.06 391.021 409.786 452.174" stroke="white" stroke-width="0.72" stroke-miterlimit="10" stroke-linecap="round"/>
<path d="M246.905 343.087C246.905 343.087 247.942 333.913 261.287 329.843C261.287 329.843 258.475 342.147 246.905 343.087Z" fill="#36A871"/>
<path d="M246.905 359.426C246.905 359.426 249.014 347.633 266.637 343.492C266.637 343.492 261.966 359.176 246.905 359.426Z" fill="#36A871"/>
<path d="M241.076 382.678C241.076 382.678 243.924 369.041 264.549 364.828C264.549 364.792 258.603 382.88 241.076 382.678Z" fill="#36A871"/>
<path d="M225.326 406.455C225.326 406.455 233.965 392.068 259.106 395.388C259.118 395.388 245.189 413.595 225.326 406.455Z" fill="#36A871"/>
<path d="M246.916 343.242C246.916 343.242 245.724 334.091 232.284 330.271C232.284 330.295 235.323 342.54 246.916 343.242Z" fill="#36A871"/>
<path d="M247.227 359.593C247.227 359.593 244.844 347.848 227.197 344.028C227.197 344.028 232.154 359.629 247.227 359.593Z" fill="#36A871"/>
<path d="M241.413 382.596C241.413 382.596 244.023 368.911 226.603 357.082C226.603 357.082 225.149 376.063 241.413 382.596Z" fill="#36A871"/>
<path d="M226.446 406.669C226.446 406.669 234.178 391.794 218.176 372.159C218.176 372.147 209.943 393.543 226.446 406.669Z" fill="#36A871"/>
<path d="M246.772 342.79C246.772 342.79 256.125 396.649 195.334 430.85" stroke="#36A871" stroke-width="1.38" stroke-miterlimit="10" stroke-linecap="round"/>
<path d="M248.357 455.482H230.806C218.593 455.482 199.588 421.318 199.588 408.073C199.588 394.828 218.521 360.009 230.806 360.009H248.357C263.918 360.009 276.202 364.841 284.876 374.372C293.217 383.547 297.459 394.876 297.459 408.073C297.459 421.27 293.169 432.635 284.733 441.607C276.059 450.818 263.822 455.482 248.357 455.482ZM201.888 318.764L202.162 305.055C202.627 281.374 205.844 262.894 211.992 248.554C218.14 234.215 230.067 218.804 248.273 202.073L248.559 201.811L290.739 165.064C306.109 150.308 313.568 135.314 313.568 119.166C313.568 103.827 309.171 92.3436 300.128 84.0732C290.858 75.6123 276.56 71.3283 257.496 71.3283C238.431 71.3283 223.335 75.4219 212.373 83.5019C202.4 90.8561 197.765 100.055 197.765 112.443V125.89H110.654L110.856 112.252C111.345 78.3731 125.762 50.6819 153.691 29.9403C180.453 10.0436 215.364 0 257.496 0C301.284 0 336.231 10.3649 361.371 30.809C387.275 51.9314 400.477 81.0981 400.477 117.488C400.477 153.295 381.305 188.459 343.487 222.005L343.201 222.255L308.17 251.613C295.29 263.846 289.035 281.434 289.035 305.365V318.812L201.888 318.764Z" fill="#4D0D26"/>
<path d="M230.808 455.482C215.319 455.482 203.094 450.782 194.515 441.524C186.234 432.575 182.04 421.294 182.04 408.073C182.04 394.852 186.186 383.607 194.372 374.456C202.939 364.864 215.199 360.009 230.808 360.009C246.417 360.009 258.642 364.841 267.328 374.372C275.669 383.547 279.898 394.876 279.898 408.073C279.898 421.27 275.621 432.635 267.173 441.607C258.499 450.818 246.262 455.482 230.808 455.482ZM184.339 318.764L184.613 305.055C185.078 281.374 188.295 262.894 194.431 248.554C200.568 234.215 212.507 218.804 230.713 202.073L230.999 201.811L273.19 165.064C288.549 150.308 296.02 135.314 296.02 119.166C296.02 103.827 291.623 92.3436 282.579 84.0732C273.321 75.6123 258.94 71.3283 239.852 71.3283C220.764 71.3283 205.691 75.4219 194.741 83.5019C184.768 90.8561 180.121 100.055 180.121 112.443V125.89H93.0696L93.2602 112.252C93.7607 78.3731 108.166 50.6819 136.155 29.9403C162.904 10.0436 197.803 0 239.876 0C283.664 0 318.622 10.3649 343.763 30.809C369.726 51.9314 382.893 81.0981 382.893 117.488C382.893 153.295 363.709 188.459 325.903 222.005L325.605 222.255L290.61 251.613C277.754 263.798 271.474 281.362 271.474 305.317V318.764H184.339Z" fill="#E6387D"/>
<path d="M119.531 436.883C119.96 442.548 118.102 455.185 119.531 455.483H161.401C161.401 455.483 161.818 449.116 156.861 447.736C150.237 445.892 142.17 444.523 139.156 441.881C137.666 440.584 136.951 436.883 136.951 436.883H119.531Z" fill="#0A1930"/>
<path d="M149.965 445.962C149.965 445.962 144.639 445.486 142.745 448.509" stroke="#7DBBF1" stroke-width="0.85" stroke-linecap="round" stroke-linejoin="round"/>
<path d="M145.164 444.546C145.164 444.546 139.838 444.07 137.943 447.093" stroke="#7DBBF1" stroke-width="0.85" stroke-linecap="round" stroke-linejoin="round"/>
<path d="M95.1289 436.883C94.5927 445.011 96.0106 454.793 93.711 455.483H65.8892C65.8533 453.944 66.1281 452.413 66.6971 450.981C67.2662 449.55 68.118 448.248 69.2016 447.153C70.7268 445.606 74.3132 443.821 75.9456 442.191C77.5779 440.56 77.6613 436.895 77.6613 436.895L95.1289 436.883Z" fill="#0A1930"/>
<path d="M78.3758 446.986C78.3758 446.986 74.8013 442.797 70.3331 446.177" stroke="#7DBBF1" stroke-width="0.85" stroke-linecap="round" stroke-linejoin="round"/>
<path d="M82.7623 444.856C82.7623 444.856 77.4243 440.477 73.3494 443.904" stroke="#7DBBF1" stroke-width="0.85" stroke-linecap="round" stroke-linejoin="round"/>
<path d="M149.914 210.737C151.105 218.234 150.724 226.206 151.105 225.838C152.106 224.767 164.033 218.924 164.987 218.436C168.141 216.806 171.698 216.116 175.234 216.449C176.032 216.449 178.439 216.294 178.439 216.294C179.497 216.044 180.603 216.098 181.632 216.449C182.966 217.044 183.336 218.091 182.109 218.495C181.072 218.792 180.017 219.022 178.951 219.186C178.951 219.186 183.217 219.09 186.577 218.829C187.84 218.721 187.983 220.447 187.983 220.447L188.793 220.304C190.497 219.923 191.176 222.494 190.485 222.684C189.847 222.867 189.198 223.01 188.543 223.112C188.984 223.279 189.734 224.469 188.65 224.79C187.566 225.112 184.325 225.778 184.325 225.778C185.075 225.778 185.695 227.218 185.254 227.373C182.463 228.25 179.628 228.977 176.759 229.55C174.651 229.634 172.539 229.554 170.444 229.312C169.085 229.11 166.19 228.444 166.19 228.444C166.19 228.444 146.899 244.175 144.028 243.461C141.907 242.926 137.82 240.391 137.153 236.607C136.486 232.823 131.898 210.261 131.898 210.261C133.686 198.896 148.079 199.384 149.914 210.737Z" fill="#F4A484"/>
<path d="M164.762 222.731C164.762 222.731 164.666 226.408 165.87 228.086" stroke="#E08D68" stroke-width="0.57" stroke-linecap="round" stroke-linejoin="round"/>
<path d="M176.069 219.578C176.069 219.578 174.174 222.744 168.241 222.327C172.745 223.148 175.58 227.718 175.58 227.718" stroke="#E08D68" stroke-width="0.57" stroke-linecap="round" stroke-linejoin="round"/>
<path d="M183.911 225.766L177.453 226.694" stroke="#E08D68" stroke-width="0.57" stroke-linecap="round" stroke-linejoin="round"/>
<path d="M187.567 223.017L177.844 224.148" stroke="#E08D68" stroke-width="0.57" stroke-linecap="round" stroke-linejoin="round"/>
<path d="M187.174 220.447L178.345 221.28" stroke="#E08D68" stroke-width="0.57" stroke-linecap="round" stroke-linejoin="round"/>
<path d="M131.985 130.673C133.314 132.384 134.088 134.46 134.201 136.623C134.642 140.764 131.413 146.25 131.413 146.25L131.985 130.673Z" fill="#24292D"/>
<path d="M144.102 266.511C145.461 279.327 138.145 438.596 138.145 438.596H119.486C119.486 438.596 113.636 325.297 114.422 308.768C115.208 292.238 111.634 276.554 112.682 266.511C113.731 256.467 141.827 244.877 144.102 266.511Z" fill="#FE5456"/>
<path d="M119.15 266.976C119.15 324.56 95.7842 438.597 95.7842 438.597H76.5532C76.5532 438.597 86.2402 308.887 86.5977 292.228C86.8598 280.328 88.2062 271.998 89.3858 261.942C91.3756 244.961 119.138 245.294 119.15 266.976Z" fill="#FE5456"/>
<g style="mix-blend-mode:multiply" opacity="0.36">
<path d="M144.222 278.53C143.376 278.054 142.399 277.507 141.422 276.9C138.646 275.222 137.848 275.603 118.962 276.769H118.223C116.365 276.876 114.53 276.9 112.754 276.829C104.301 276.407 96.0045 274.388 88.3046 270.879C88.662 267.975 89.0314 265.059 89.3888 261.977C91.1046 247.293 112.028 245.508 117.711 259.228C126.147 252.731 142.387 250.244 144.103 266.499C144.306 268.201 144.306 272.437 144.222 278.53Z" fill="#FE5456"/>
</g>
<path d="M138.249 174.869C151.928 187.698 151.165 221.862 151.165 221.862C151.165 221.862 138.571 230.192 131.076 226.967C131.076 226.967 125.405 191.97 128.396 181.188C130.23 174.548 135.7 172.489 138.249 174.869Z" fill="#021946"/>
<g style="mix-blend-mode:multiply" opacity="0.36">
<path d="M147.746 207.297C147.555 213.842 147.615 219.994 147.233 224.064C142.908 226.266 135.926 229.026 131.076 226.908C131.076 226.908 125.405 191.934 128.396 181.141C128.973 178.735 130.367 176.603 132.339 175.108L138.297 174.87C138.94 175.596 148.413 183.342 147.746 207.297Z" fill="#021946"/>
</g>
<path d="M103.15 169.705C103.15 169.705 83.0854 172.989 82.4777 176.654C81.87 180.32 89.4957 233.013 89.4957 245.377C89.4484 253.425 88.9671 261.465 88.054 269.462C88.054 269.462 104.127 273.96 119.474 273.675C127.921 273.627 136.344 272.77 144.627 271.116C144.627 271.116 143.733 255.896 143.435 245.769C143.138 235.642 145.521 206.119 145.544 195.314C145.494 187.872 142.924 180.667 138.252 174.869C135.869 172.109 123.335 169.205 123.335 169.205L103.15 169.705Z" fill="#021946"/>
<g style="mix-blend-mode:multiply" opacity="0.36">
<path d="M93.5794 241.284C91.8636 244.402 90.5053 246.996 89.4329 249.138C89.4329 247.948 89.4329 246.639 89.4329 245.377C89.4329 237.155 86.0491 211.117 83.9758 193.517L99.4655 184.533C101.467 190.542 101.467 227.075 93.5794 241.284Z" fill="#021946"/>
</g>
<path d="M104.985 162.362L103.15 169.8C103.15 169.8 111.026 182.89 120.331 181.593C129.637 180.296 123.334 169.253 123.334 169.253L123.703 164.326L106.545 154.175L104.985 162.362Z" fill="#E08D68"/>
<path d="M132.891 134.232C133.38 136.695 133.165 144.739 132.688 150.892C132.224 156.901 130.603 165.612 127.184 166.362C123.764 167.111 109.085 164.291 108.405 155.866C105.903 153.89 96.395 142.264 99.7432 136.516C105.689 126.366 131.33 126.294 132.891 134.232Z" fill="#F4A484"/>
<path d="M120.903 148.392C121.469 148.392 121.927 147.71 121.927 146.869C121.927 146.027 121.469 145.345 120.903 145.345C120.337 145.345 119.878 146.027 119.878 146.869C119.878 147.71 120.337 148.392 120.903 148.392Z" fill="#24292D"/>
<path d="M131.054 146.441C131.054 147.286 130.589 147.964 130.029 147.964C129.469 147.964 129.004 147.286 129.004 146.441C129.004 145.596 129.469 144.918 130.029 144.918C130.589 144.918 131.054 145.608 131.054 146.441Z" fill="#24292D"/>
<path d="M122.619 143.156C121.734 142.878 120.804 142.773 119.879 142.847C118.97 143.022 118.124 143.433 117.424 144.037C117.598 143.544 117.902 143.108 118.306 142.775C118.722 142.425 119.231 142.201 119.771 142.133C120.294 142.063 120.825 142.12 121.32 142.298C121.816 142.476 122.261 142.77 122.619 143.156Z" fill="#24292D"/>
<path d="M127.146 142.74C127.499 142.346 127.942 142.044 128.439 141.859C128.935 141.675 129.468 141.614 129.993 141.681C130.526 141.752 131.03 141.966 131.45 142.302C131.87 142.637 132.19 143.081 132.376 143.585C131.676 142.981 130.83 142.57 129.922 142.395C128.983 142.323 128.038 142.44 127.146 142.74Z" fill="#24292D"/>
<path d="M126.43 148.677C126.638 149.552 126.993 150.384 127.478 151.141L128.825 153.521C129.059 153.906 129.274 154.304 129.468 154.711C129.58 154.963 129.649 155.233 129.671 155.508C129.67 155.626 129.65 155.742 129.611 155.853C129.575 155.945 129.522 156.03 129.456 156.103C129.361 156.224 129.244 156.325 129.111 156.401C128.687 156.658 128.218 156.832 127.729 156.912C127.271 157.011 126.802 157.051 126.334 157.031V156.948C127.131 156.619 127.896 156.221 128.622 155.758C128.753 155.639 128.825 155.532 128.789 155.568C128.758 155.394 128.714 155.223 128.658 155.056C128.526 154.651 128.37 154.253 128.193 153.866L127.097 151.391C126.698 150.56 126.448 149.666 126.358 148.749L126.43 148.677Z" fill="#E5744C"/>
<path d="M129.614 158.376C127.715 158.275 125.821 158.656 124.109 159.483C124.109 159.483 128.815 160.173 129.244 159.697C129.511 159.31 129.641 158.845 129.614 158.376Z" fill="white"/>
<path d="M133.341 136.362C132.602 137.956 127.49 140.289 118.125 139.777C118.125 139.777 122.82 138.492 123.844 134.838C122.571 136.592 120.897 138.017 118.961 138.994C117.026 139.971 114.884 140.472 112.716 140.455C112.972 144.113 112.094 147.761 110.202 150.903C110.202 150.903 108.081 153.688 108.402 155.937C108.724 158.186 106.46 161.804 104.983 162.661C104.089 155.997 97.0949 142.954 98.4532 135.612C98.7146 133.611 99.6647 131.762 101.141 130.384C102.617 129.005 104.527 128.182 106.544 128.056C109.594 123.212 120.842 121.225 128.229 125.235C133.674 128.198 134.699 133.446 133.341 136.362Z" fill="#24292D"/>
<path d="M110.942 148.618C109.369 144.775 104.091 145.048 104.067 148.333C104.067 153.664 107.236 155.235 108.38 155.937C109.524 156.639 111.907 150.951 110.942 148.618Z" fill="#F4A484"/>
<path d="M78.7707 210.938C77.5792 218.435 76.5425 225.801 76.1613 225.408C75.1604 224.337 57.8478 219.625 56.7754 218.982C53.5348 216.979 49.727 216.089 45.9326 216.448L42.7394 216.293C41.6776 216.043 40.5669 216.097 39.5342 216.448C38.1997 217.043 37.8304 218.09 39.0576 218.495C40.0988 218.79 41.1573 219.021 42.2271 219.185C42.2271 219.185 37.9495 219.09 34.5895 218.828C33.3265 218.721 33.1835 220.446 33.1835 220.446C33.1835 220.446 32.6473 220.363 32.3852 220.303C30.6694 219.923 30.0022 222.493 30.6932 222.683C31.3271 222.866 31.9717 223.009 32.6235 223.112C32.1945 223.278 31.432 224.468 32.5162 224.79C33.6005 225.111 36.8414 225.777 36.8414 225.777C36.1027 225.777 35.4831 227.217 35.912 227.372C38.7032 228.248 41.539 228.975 44.4075 229.55C46.5155 229.633 48.6268 229.553 50.7225 229.312C52.0928 229.109 54.9643 228.99 54.9643 228.99C54.9643 228.99 79.4617 240.89 82.369 241.212C85.0261 241.557 89.4466 240.617 90.8645 236.606C92.1633 233.036 97.537 210.831 97.537 210.831C95.8093 199.467 80.6413 199.586 78.7707 210.938Z" fill="#F4A484"/>
<path d="M55.3209 228.717C56.0766 227.578 56.5691 226.285 56.7626 224.933" stroke="#E08D68" stroke-width="0.57" stroke-linecap="round" stroke-linejoin="round"/>
<path d="M45.147 219.578C45.147 219.578 47.0534 222.744 52.9752 222.327C48.4713 223.148 45.6355 227.718 45.6355 227.718" stroke="#E08D68" stroke-width="0.57" stroke-linecap="round" stroke-linejoin="round"/>
<path d="M37.2924 225.766L43.7623 226.694" stroke="#E08D68" stroke-width="0.57" stroke-linecap="round" stroke-linejoin="round"/>
<path d="M33.6361 223.017L43.3588 224.148" stroke="#E08D68" stroke-width="0.57" stroke-linecap="round" stroke-linejoin="round"/>
<path d="M34.0315 220.447L42.8606 221.28" stroke="#E08D68" stroke-width="0.57" stroke-linecap="round" stroke-linejoin="round"/>
<path d="M82.4415 176.643C75.7929 189.9 75.5546 219.828 75.5546 219.828C75.5546 219.828 88.6612 226.647 96.4775 223.493C96.4775 223.493 101.529 194.993 99.5516 184.545C98.3482 178.142 85.6824 170.169 82.4415 176.643Z" fill="#021946"/>
<path d="M363.734 436.883C363.305 442.548 365.164 455.185 363.734 455.483H321.84C321.84 455.483 321.423 449.116 326.38 447.736C333.005 445.892 341.071 444.523 344.086 441.881C345.575 440.584 346.29 436.883 346.29 436.883H363.734Z" fill="#FE5456"/>
<path d="M333.302 445.962C333.302 445.962 338.628 445.486 340.534 448.509" stroke="#7DBBF1" stroke-width="0.85" stroke-linecap="round" stroke-linejoin="round"/>
<path d="M338.104 444.546C338.104 444.546 343.43 444.07 345.336 447.093" stroke="#7DBBF1" stroke-width="0.85" stroke-linecap="round" stroke-linejoin="round"/>
<path d="M388.133 436.883C388.67 445.011 387.252 454.793 389.551 455.483H417.373C417.409 453.944 417.134 452.413 416.565 450.981C415.996 449.55 415.144 448.248 414.061 447.153C412.536 445.606 408.949 443.821 407.317 442.191C405.684 440.56 405.613 436.895 405.613 436.895L388.133 436.883Z" fill="#FE5456"/>
<path d="M404.886 446.986C404.886 446.986 408.461 442.797 412.929 446.177" stroke="#7DBBF1" stroke-width="0.85" stroke-linecap="round" stroke-linejoin="round"/>
<path d="M400.48 444.856C400.48 444.856 405.818 440.477 409.893 443.904" stroke="#7DBBF1" stroke-width="0.85" stroke-linecap="round" stroke-linejoin="round"/>
<path d="M337.866 266.012C336.519 278.84 345.527 438.561 345.527 438.561H364.174C364.174 438.561 370.025 325.262 369.238 308.733C368.452 292.204 372.026 276.519 370.978 266.476C369.929 256.432 340.153 244.378 337.866 266.012Z" fill="#021946"/>
<path d="M364.521 266.976C364.521 324.56 387.886 438.597 387.886 438.597H407.117C407.117 438.597 397.418 308.887 397.061 292.228C396.799 280.328 395.452 271.998 394.285 261.942C392.295 244.961 364.533 245.294 364.521 266.976Z" fill="#021946"/>
<g style="mix-blend-mode:multiply" opacity="0.36">
<path d="M395.426 271.378C387.685 274.716 379.359 276.492 370.929 276.602C369.856 276.602 368.748 276.602 367.652 276.507C366.556 276.412 365.65 276.388 364.697 276.352C350.613 275.603 342.857 275.936 340.414 276.602C339.37 276.981 338.47 277.676 337.84 278.59C337.697 272.235 337.685 267.796 337.84 266.059C339.556 249.673 357.036 252.624 365.888 259.359C367.14 256.209 369.436 253.583 372.394 251.922L385.703 250.958C388.029 251.808 390.065 253.299 391.577 255.258C393.089 257.216 394.015 259.563 394.246 262.025C394.663 265.238 395.069 268.272 395.426 271.378Z" fill="#021946"/>
</g>
<path d="M346.288 174.869C332.562 187.698 333.372 221.862 333.372 221.862C333.372 221.862 345.966 230.192 353.461 226.967C353.461 226.967 359.121 191.97 356.13 181.188C354.307 174.548 348.826 172.489 346.288 174.869Z" fill="#1B84C1"/>
<path d="M384.549 169.705C384.549 169.705 403.613 175.763 404.268 179.428C404.923 183.093 394.259 232.418 394.259 244.782C394.259 257.146 395.618 269.463 395.618 269.463C395.618 269.463 379.532 273.961 364.186 273.675C355.156 273.554 346.16 272.542 337.329 270.653C337.329 270.653 338.175 255.516 338.521 245.389C338.866 235.262 339.057 206.119 339.033 195.338C339.078 187.896 341.648 180.688 346.325 174.894C348.708 172.133 364.412 169.229 364.412 169.229L384.549 169.705Z" fill="#1B84C1"/>
<g style="mix-blend-mode:multiply" opacity="0.36">
<path d="M394.261 244.782C394.261 248.233 394.368 251.661 394.511 254.814C391.461 248.805 385.706 243.283 382.786 242.355C379.069 241.165 347.649 228.349 345.182 228.86C343.033 228.997 340.874 228.829 338.772 228.36C338.832 224.79 338.855 220.935 338.903 217.198L355.322 171.229C359.874 170.039 364.378 169.194 364.378 169.194C363.031 170.277 361.16 176.334 359.79 179.44C358.42 182.546 350.854 214.33 350.854 214.33L376.519 216.877C379.724 192.423 386.635 182.569 386.635 182.569L401.91 195.445C398.943 212.046 394.261 236.571 394.261 244.782Z" fill="#1B84C1"/>
</g>
<path d="M382.726 162.362L384.549 169.8C384.549 169.8 376.673 182.89 367.379 181.593C358.085 180.296 364.376 169.253 364.376 169.253L364.007 164.326L381.165 154.175L382.726 162.362Z" fill="#E08D68"/>
<path d="M355.486 134.315C354.774 139.839 354.618 145.42 355.021 150.975C355.486 156.984 357.107 165.683 360.514 166.445C363.922 167.206 378.613 164.386 379.304 155.961C381.807 153.986 391.303 142.359 387.967 136.612C382.009 126.366 357.047 126.39 355.486 134.315Z" fill="#F4A484"/>
<path d="M366.793 148.392C367.359 148.392 367.817 147.71 367.817 146.869C367.817 146.027 367.359 145.345 366.793 145.345C366.227 145.345 365.768 146.027 365.768 146.869C365.768 147.71 366.227 148.392 366.793 148.392Z" fill="#24292D"/>
<path d="M357.87 147.797C358.436 147.797 358.895 147.115 358.895 146.274C358.895 145.433 358.436 144.751 357.87 144.751C357.304 144.751 356.845 145.433 356.845 146.274C356.845 147.115 357.304 147.797 357.87 147.797Z" fill="#24292D"/>
<path d="M365.006 143.787C365.291 143.301 365.7 142.9 366.193 142.626C366.685 142.352 367.242 142.214 367.806 142.228C368.388 142.237 368.955 142.415 369.438 142.74C369.894 143.032 370.261 143.443 370.498 143.93C369.986 143.739 369.545 143.525 369.092 143.406C368.672 143.272 368.235 143.2 367.794 143.192C366.836 143.224 365.892 143.425 365.006 143.787Z" fill="#24292D"/>
<path d="M361.266 143.18C360.374 142.844 359.431 142.663 358.478 142.645C358.036 142.646 357.598 142.719 357.179 142.859C356.726 142.978 356.285 143.192 355.761 143.383C356.004 142.871 356.384 142.436 356.86 142.127C357.335 141.818 357.887 141.647 358.454 141.633C359.018 141.618 359.576 141.753 360.071 142.025C360.565 142.297 360.978 142.696 361.266 143.18Z" fill="#24292D"/>
<path d="M361.397 148.689C361.305 149.634 361.063 150.557 360.683 151.426L359.586 154.009C359.408 154.437 359.253 154.877 359.122 155.294C359.058 155.48 359.01 155.671 358.979 155.865V155.925C359.014 155.983 359.058 156.035 359.11 156.079C359.831 156.598 360.606 157.037 361.421 157.388V157.472C360.937 157.488 360.453 157.444 359.98 157.341C359.468 157.247 358.981 157.049 358.55 156.758C358.415 156.658 358.302 156.533 358.216 156.389C358.147 156.294 358.102 156.183 358.085 156.067C358.074 155.973 358.074 155.877 358.085 155.782C358.115 155.509 358.191 155.243 358.311 154.996C358.502 154.553 358.717 154.12 358.955 153.699L360.289 151.236C360.777 150.448 361.127 149.583 361.326 148.677L361.397 148.689Z" fill="#E08D68"/>
<path d="M357.822 159.483C359.61 158.911 361.549 159.043 363.243 159.852C363.243 159.852 358.537 160.542 358.108 160.066C357.679 159.59 357.822 159.483 357.822 159.483Z" fill="white"/>
<path d="M354.964 137.492C355.715 139.098 369.179 138.991 376.519 138.836C376.519 138.836 374.338 145.608 377.508 150.903C377.508 150.903 379.617 153.688 379.307 155.937C378.997 158.186 382.488 162.934 382.691 161.244C383.334 155.972 390.65 141.014 388.648 133.779C386.968 127.686 383.144 127.96 383.144 127.96C380.081 123.117 372.491 125.735 357.24 122.379C351.211 121.046 353.606 134.588 354.964 137.492Z" fill="#24292D"/>
<path d="M376.746 148.618C378.306 144.775 383.585 145.048 383.621 148.333C383.621 153.664 380.451 155.235 379.307 155.937C378.163 156.639 375.792 150.951 376.746 148.618Z" fill="#F4A484"/>
<path d="M337.116 225.433C338.35 225.982 339.666 226.323 341.012 226.444C342.28 226.486 343.549 226.451 344.813 226.337C344.813 226.337 378.89 238.237 382.119 238.083C384.502 237.928 389.745 236.393 391.985 232.573C394.225 228.753 398.907 214.318 400.671 207.845C403.983 195.647 387.671 193.72 383.394 205.584C380.57 213.414 379.819 221.565 379.474 221.054C378.616 219.697 350.294 216.817 349.686 215.794C348.554 213.771 344.479 212.855 343.323 212.807C342.516 212.775 341.715 212.643 340.94 212.414C339.379 212.069 338.021 213.604 339.534 214.271C340.726 214.782 342.811 215.639 342.811 215.639C342.811 215.639 335.519 213.045 334.113 212.521C333.941 212.45 333.756 212.414 333.57 212.414C333.384 212.414 333.199 212.451 333.027 212.522C332.855 212.593 332.699 212.698 332.567 212.829C332.436 212.961 332.331 213.117 332.26 213.289C332.189 213.461 332.152 213.645 332.152 213.831C332.153 214.017 332.189 214.201 332.261 214.373C332.332 214.545 332.437 214.701 332.568 214.833C332.7 214.964 332.857 215.068 333.029 215.139C334.947 216.234 335.328 216.389 335.328 216.389C334.563 215.884 333.638 215.681 332.731 215.818C331.861 216.032 332.373 218.448 333.315 218.721L333.815 218.876C333.571 219.066 333.388 219.323 333.289 219.616C333.191 219.909 333.181 220.225 333.261 220.523C333.341 220.822 333.508 221.09 333.74 221.294C333.972 221.499 334.259 221.63 334.566 221.672L335.007 221.827C335.007 221.827 333.481 223.124 334.685 223.922C335.888 224.719 337.116 225.433 337.116 225.433Z" fill="#F4A484"/>
<path d="M360.624 174.406C359.779 177.881 358.313 177.036 357.86 178.047C357.407 179.059 348.328 213.497 347.935 215.068C346.863 220.149 340.428 224.136 336.735 222.458C332.695 220.625 331.301 214.973 332.04 211.748C332.779 208.523 349.246 175.453 349.246 175.453C349.246 175.453 350.497 165.1 351.14 164.743C352.942 163.811 354.824 163.043 356.764 162.447C357.956 162.197 363.746 162.447 363.711 162.447C363.632 163.197 363.264 163.888 362.686 164.374C361.066 164.72 359.427 164.966 357.777 165.112C357.777 165.112 361.923 165.338 362.114 165.743C362.469 167.598 362.636 169.483 362.614 171.371C362.099 172.472 361.429 173.494 360.624 174.406Z" fill="#F4A484"/>
<path d="M353.964 165.874L355.953 165.398" stroke="#E08D68" stroke-width="0.57" stroke-linecap="round" stroke-linejoin="round"/>
<path d="M354.355 167.658C354.355 167.658 360.217 167.742 360.396 167.884C360.575 168.027 360.98 170.621 361.409 171.014C361.838 171.407 362.064 171.371 362.064 171.371" stroke="#E08D68" stroke-width="0.57" stroke-linecap="round" stroke-linejoin="round"/>
<path d="M353.438 169.967C353.438 169.967 358.204 170.491 358.514 170.622C358.823 170.753 359.336 173.442 360.265 173.478C361.194 173.513 361.457 172.466 361.457 172.466" stroke="#E08D68" stroke-width="0.57" stroke-linecap="round" stroke-linejoin="round"/>
<path d="M353.711 172.311L357.619 172.907" stroke="#E08D68" stroke-width="0.57" stroke-linecap="round" stroke-linejoin="round"/>
<path d="M356.296 174.144C355.379 174.227 355.82 175.857 356.296 175.941C357.113 176.078 357.946 176.078 358.763 175.941C359.049 175.718 359.286 175.44 359.46 175.123C359.634 174.806 359.742 174.456 359.776 174.096C359.653 173.487 359.477 172.89 359.251 172.311" stroke="#E08D68" stroke-width="0.57" stroke-linecap="round" stroke-linejoin="round"/>
<path d="M358.513 177.333C356.839 178.149 354.94 178.388 353.116 178.011" stroke="#E08D68" stroke-width="0.57" stroke-linecap="round" stroke-linejoin="round"/>
<path d="M357.429 178.678C357.429 178.678 356.476 179.298 354.355 178.523" stroke="#E08D68" stroke-width="0.57" stroke-linecap="round" stroke-linejoin="round"/>
<path d="M357.31 162.363L363.661 162.434C363.923 162.434 363.411 164.172 362.636 164.362C361.862 164.552 357.727 165.1 357.727 165.1C357.727 165.1 361.981 165.397 362.064 165.73C362.148 166.064 362.398 167.908 362.398 167.908" stroke="#E08D68" stroke-width="0.57" stroke-linecap="round" stroke-linejoin="round"/>
<path d="M404.305 179.392C410.56 186.211 396.81 223.422 396.81 223.422C396.81 223.422 386.086 222.684 378.306 219.531C378.306 219.531 384.263 187.103 386.646 182.546C389.601 176.786 399.419 174.073 404.305 179.392Z" fill="#1B84C1"/>
<path d="M348.122 214.33C347.193 218.209 343.833 223.743 337.959 222.755C333.085 221.934 332.132 215.758 332.132 215.758" stroke="#E08D68" stroke-width="0.57" stroke-linecap="round" stroke-linejoin="round"/>
<path d="M179.765 455.483C179.765 455.483 180.432 438.882 164.752 426.506C164.752 426.506 186.652 428.886 188.427 455.483H179.765Z" fill="#48BE97"/>
<path d="M182.075 455.482C182.075 455.482 180.049 427.969 204.571 422.293C204.571 422.293 190.451 432.218 189.081 455.482H182.075Z" fill="#36A871"/>
<path d="M182.075 455.483C182.075 455.483 187.651 430.945 210.91 431.826C210.91 431.826 193.311 441.691 192.286 455.483H182.075Z" fill="#48BE97"/>
<path d="M300.048 455.482C300.048 455.482 296.926 445.106 310.772 439.477C310.772 439.477 295.079 436.454 293.805 455.482H300.048Z" fill="#48BE97"/>
<path d="M298.39 455.483C298.39 455.483 295.495 443.904 301.5 429.481C301.5 429.481 290.383 434.943 293.398 455.483H298.39Z" fill="#36A871"/>
<path d="M298.39 455.482C298.39 455.482 297.496 442.226 280.839 442.857C280.839 442.857 292.754 446.712 291.074 455.482H298.39Z" fill="#48BE97"/>
</g>
<defs>
<clipPath id="clip0_616_5614">
<rect width="481" height="471" fill="white"/>
</clipPath>
</defs>
</svg>
