<svg width="50" height="51" viewBox="0 0 50 51" fill="none" xmlns="http://www.w3.org/2000/svg">
<g clip-path="url(#clip0_34_359)">
<path d="M1.85569 27.5728L36.2151 31.3874L33.2151 36.5176C32.3046 38.0801 34.2703 39.7155 35.6411 38.5416L49.4359 26.7186C49.6112 26.568 49.7518 26.3814 49.8482 26.1714C49.9446 25.9614 49.9946 25.733 49.9946 25.502C49.9946 25.2709 49.9446 25.0426 49.8482 24.8326C49.7518 24.6226 49.6112 24.4359 49.4359 24.2853L35.6411 12.4624C34.2692 11.2822 32.3046 12.9239 33.2151 14.4801L36.2088 19.6166L1.85569 23.4259C-0.608895 23.6926 -0.610978 27.3051 1.85569 27.5728Z" fill="#E6387D"/>
</g>
<defs>
<clipPath id="clip0_34_359">
<rect width="50" height="50" fill="white" transform="translate(0.000488281 0.5)"/>
</clipPath>
</defs>
</svg>
