<svg width="100" height="101" viewBox="0 0 100 101" fill="none" xmlns="http://www.w3.org/2000/svg">
<g clip-path="url(#clip0_123_2505)">
<path d="M93.5484 85.9839C92.8297 85.9871 92.1211 86.1531 91.4758 86.4694L69.6145 64.6081C70.05 64.0048 70.4548 63.3806 70.8339 62.7371L87.0758 67.0887C87.2047 68.2691 87.7639 69.3606 88.6467 70.1547C89.5295 70.9488 90.6739 71.3899 91.8613 71.3935C94.529 71.3935 96.7 69.2226 96.7 66.5548C96.7 63.8871 94.529 61.7161 91.8613 61.7161C91.0519 61.7175 90.2559 61.9221 89.5463 62.3113C88.8366 62.7005 88.2362 63.2618 87.8 63.9435L72.329 59.7984C72.7177 58.8694 73.029 57.9048 73.3 56.9226L82.8097 54.3742C83.2239 55.1297 83.833 55.7604 84.5737 56.2006C85.3143 56.6409 86.1594 56.8746 87.021 56.8774C89.6887 56.8774 91.8597 54.7065 91.8597 52.0387C91.8597 49.371 89.6887 47.2 87.021 47.2C85.8885 47.2024 84.7927 47.6019 83.9245 48.3289C83.0563 49.056 82.4706 50.0646 82.2694 51.179L74.0016 53.3935C74.1244 52.4338 74.1885 51.4675 74.1936 50.5C74.1936 48.2629 73.8645 46.1065 73.2935 44.0484H80.6452C83.3129 44.0484 85.4839 41.8774 85.4839 39.2097V32.6758C93.6226 31.8645 100 24.9774 100 16.629C100 7.73548 92.7645 0.5 83.871 0.5C74.9774 0.5 67.7419 7.73548 67.7419 16.629C67.7419 24.979 74.1194 31.8645 82.2581 32.6758V39.2097C82.2581 40.0984 81.5355 40.8226 80.6452 40.8226H72.1597C68.4177 32.2887 59.9 26.3065 50 26.3065C48.1435 26.3065 46.3435 26.5355 44.6065 26.9339L46.0952 21.3806C47.2099 21.1798 48.2189 20.5942 48.9462 19.7259C49.6736 18.8577 50.0734 17.7617 50.0758 16.629C50.0758 13.9613 47.9048 11.7903 45.2371 11.7903C42.5694 11.7903 40.3984 13.9613 40.3984 16.629C40.3984 18.4468 41.4161 20.0129 42.9016 20.8403L40.9629 28.0758C39.621 28.6194 38.3452 29.2839 37.1355 30.0484L33.3306 15.8532C34.0123 15.4166 34.5735 14.8158 34.9627 14.1059C35.3518 13.3961 35.5566 12.5999 35.5581 11.7903C35.5581 9.12258 33.3871 6.95161 30.7194 6.95161C28.0516 6.95161 25.8806 9.12258 25.8806 11.7903C25.8843 12.9773 26.3252 14.1213 27.119 15.0038C27.9128 15.8862 29.0039 16.4453 30.1839 16.5742L34.3419 32.0903C33.6925 32.646 33.0728 33.2355 32.4855 33.8565L10.8048 12.1774C11.1081 11.5468 11.2903 10.8484 11.2903 10.1048C11.2903 7.4371 9.11936 5.26613 6.45161 5.26613C3.78387 5.26613 1.6129 7.4371 1.6129 10.1048C1.6129 12.7726 3.78387 14.9435 6.45161 14.9435C7.17027 14.9403 7.87886 14.7743 8.52419 14.4581L30.4161 36.35C29.9839 36.9468 29.5806 37.5629 29.2032 38.2L12.9226 33.8371C12.7941 32.6569 12.2351 31.5654 11.3526 30.7712C10.4701 29.9771 9.32592 29.536 8.13871 29.5323C5.47097 29.5323 3.3 31.7032 3.3 34.371C3.3 37.0387 5.47097 39.2097 8.13871 39.2097C8.94812 39.2086 9.74428 39.0041 10.454 38.6149C11.1636 38.2257 11.7641 37.6642 12.2 36.9823L27.6952 41.1339C27.3098 42.0672 26.9839 43.0239 26.7194 43.9984L17.1887 46.5516C16.7744 45.7962 16.1652 45.1656 15.4246 44.7254C14.684 44.2852 13.839 44.0514 12.9774 44.0484C10.3097 44.0484 8.13871 46.2194 8.13871 48.8871C8.13871 51.5548 10.3097 53.7258 12.9774 53.7258C14.1099 53.7234 15.2056 53.3239 16.0739 52.5969C16.9421 51.8698 17.5278 50.8612 17.729 49.7468L26.0081 47.529C25.8804 48.5143 25.8131 49.5065 25.8065 50.5C25.8065 52.7371 26.1355 54.8935 26.7065 56.9516H19.3548C16.6871 56.9516 14.5161 59.1226 14.5161 61.7903V68.3242C6.37742 69.1355 0 76.021 0 84.371C0 93.2645 7.23548 100.5 16.129 100.5C25.0226 100.5 32.2581 93.2645 32.2581 84.371C32.2581 76.021 25.8806 69.1355 17.7419 68.3242V61.7903C17.7419 60.9016 18.4645 60.1774 19.3548 60.1774H27.8403C31.5823 68.7113 40.1 74.6936 50 74.6936C51.8484 74.6936 53.6419 74.4661 55.3726 74.071L53.9048 79.5452C52.7904 79.7464 51.7818 80.3321 51.0547 81.2003C50.3277 82.0686 49.9282 83.1643 49.9258 84.2968C49.9258 86.9645 52.0968 89.1355 54.7645 89.1355C57.4323 89.1355 59.6032 86.9645 59.6032 84.2968C59.6004 83.4352 59.3667 82.5901 58.9264 81.8495C58.4862 81.1088 57.8555 80.4997 57.1 80.0855L59.0177 72.9323C60.3726 72.3855 61.6629 71.7145 62.8839 70.9419L66.671 85.0742C65.9888 85.5101 65.4271 86.1104 65.0376 86.8201C64.6481 87.5298 64.4433 88.326 64.4419 89.1355C64.4419 91.8032 66.6129 93.9742 69.2806 93.9742C71.9484 93.9742 74.1194 91.8032 74.1194 89.1355C74.1157 87.9485 73.6748 86.8045 72.881 85.9221C72.0872 85.0396 70.9961 84.4805 69.8161 84.3516L65.6742 68.8952C66.3323 68.3339 66.9548 67.7323 67.55 67.1048L89.1952 88.75C88.8789 89.3953 88.7129 90.1039 88.7097 90.8226C88.7097 93.4903 90.8806 95.6613 93.5484 95.6613C96.2161 95.6613 98.3871 93.4903 98.3871 90.8226C98.3871 88.1548 96.2161 85.9839 93.5484 85.9839ZM91.8613 64.9436C92.1807 64.9432 92.4931 65.0377 92.7589 65.215C93.0246 65.3923 93.2318 65.6444 93.3542 65.9395C93.4766 66.2346 93.5087 66.5593 93.4465 66.8726C93.3842 67.186 93.2304 67.4738 93.0045 67.6997C92.7786 67.9256 92.4908 68.0794 92.1775 68.1416C91.8642 68.2039 91.5394 68.1718 91.2443 68.0494C90.9492 67.927 90.6971 67.7198 90.5198 67.454C90.3425 67.1883 90.2481 66.8759 90.2484 66.5565C90.2484 65.6677 90.971 64.9436 91.8613 64.9436ZM87.0226 50.4274C87.342 50.4271 87.6544 50.5216 87.9202 50.6988C88.1859 50.8761 88.3931 51.1283 88.5155 51.4233C88.6379 51.7184 88.67 52.0432 88.6078 52.3565C88.5455 52.6698 88.3917 52.9577 88.1658 53.1836C87.9399 53.4095 87.6521 53.5633 87.3388 53.6255C87.0254 53.6878 86.7007 53.6556 86.4056 53.5332C86.1105 53.4108 85.8584 53.2037 85.6811 52.9379C85.5038 52.6722 85.4094 52.3598 85.4097 52.0403C85.4097 51.1516 86.1323 50.4274 87.0226 50.4274ZM79.0323 15.0161C79.0323 12.3484 81.2032 10.1774 83.871 10.1774C86.5387 10.1774 88.7097 12.3484 88.7097 15.0161C88.7097 17.6839 86.5387 19.8548 83.871 19.8548C81.2032 19.8548 79.0323 17.6839 79.0323 15.0161ZM83.871 29.5323C81.0806 29.5315 78.3667 28.6197 76.1419 26.9355C77.9565 24.5306 80.8113 23.0806 83.871 23.0806C86.9306 23.0806 89.7855 24.5306 91.6 26.9371C89.3747 28.6201 86.6611 29.5312 83.871 29.5323ZM70.9677 16.629C70.9677 9.51452 76.7565 3.72581 83.871 3.72581C90.9855 3.72581 96.7742 9.51452 96.7742 16.629C96.7746 19.5668 95.7682 22.416 93.9226 24.7016C92.6568 23.123 91.0374 21.8643 89.1952 21.0274C90.8629 19.5468 91.9355 17.4145 91.9355 15.0161C91.9355 10.5694 88.3177 6.95161 83.871 6.95161C79.4242 6.95161 75.8064 10.5694 75.8064 15.0161C75.8064 17.4145 76.879 19.5468 78.5468 21.0258C76.7053 21.8639 75.0861 23.1223 73.8194 24.7C71.9729 22.4155 70.9662 19.5665 70.9677 16.629ZM45.2355 15.0161C45.5549 15.0158 45.8673 15.1103 46.1331 15.2876C46.3988 15.4648 46.606 15.717 46.7284 16.0121C46.8508 16.3071 46.8829 16.6319 46.8207 16.9452C46.7584 17.2586 46.6046 17.5464 46.3787 17.7723C46.1528 17.9982 45.865 18.152 45.5517 18.2142C45.2383 18.2765 44.9136 18.2444 44.6185 18.122C44.3234 17.9996 44.0713 17.7924 43.894 17.5266C43.7167 17.2609 43.6223 16.9485 43.6226 16.629C43.6226 15.7403 44.3452 15.0161 45.2355 15.0161ZM29.1065 11.7903C29.1061 11.4709 29.2006 11.1585 29.3779 10.8927C29.5552 10.627 29.8073 10.4198 30.1024 10.2974C30.3975 10.175 30.7222 10.1429 31.0355 10.2051C31.3489 10.2674 31.6367 10.4212 31.8626 10.6471C32.0885 10.873 32.2423 11.1608 32.3045 11.4741C32.3668 11.7875 32.3347 12.1122 32.2123 12.4073C32.0899 12.7024 31.8827 12.9545 31.6169 13.1318C31.3512 13.3091 31.0388 13.4035 30.7194 13.4032C29.829 13.4032 29.1065 12.679 29.1065 11.7903ZM6.45161 11.7177C6.03632 11.6992 5.6442 11.5211 5.3569 11.2207C5.06959 10.9202 4.90925 10.5205 4.90925 10.1048C4.90925 9.68913 5.06959 9.28945 5.3569 8.989C5.6442 8.68856 6.03632 8.51051 6.45161 8.49194C6.8669 8.51051 7.25902 8.68856 7.54633 8.989C7.83363 9.28945 7.99398 9.68913 7.99398 10.1048C7.99398 10.5205 7.83363 10.9202 7.54633 11.2207C7.25902 11.5211 6.8669 11.6992 6.45161 11.7177ZM8.13871 35.9839C7.72342 35.9653 7.3313 35.7872 7.04399 35.4868C6.75669 35.1864 6.59634 34.7867 6.59634 34.371C6.59634 33.9553 6.75669 33.5556 7.04399 33.2551C7.3313 32.9547 7.72342 32.7766 8.13871 32.7581C8.554 32.7766 8.94612 32.9547 9.23343 33.2551C9.52073 33.5556 9.68108 33.9553 9.68108 34.371C9.68108 34.7867 9.52073 35.1864 9.23343 35.4868C8.94612 35.7872 8.554 35.9653 8.13871 35.9839ZM12.9774 50.5C12.5621 50.4814 12.17 50.3034 11.8827 50.0029C11.5954 49.7025 11.4351 49.3028 11.4351 48.8871C11.4351 48.4714 11.5954 48.0717 11.8827 47.7713C12.17 47.4708 12.5621 47.2928 12.9774 47.2742C13.3927 47.2928 13.7848 47.4708 14.0721 47.7713C14.3594 48.0717 14.5198 48.4714 14.5198 48.8871C14.5198 49.3028 14.3594 49.7025 14.0721 50.0029C13.7848 50.3034 13.3927 50.4814 12.9774 50.5ZM8.4 94.6774C10.2145 92.2726 13.0694 90.8226 16.129 90.8226C19.1887 90.8226 22.0435 92.2726 23.8581 94.679C21.7016 96.3 19.0306 97.2742 16.129 97.2742C13.2274 97.2742 10.5565 96.3 8.4 94.6774ZM11.2903 82.7581C11.2903 80.0903 13.4613 77.9194 16.129 77.9194C18.7968 77.9194 20.9677 80.0903 20.9677 82.7581C20.9677 85.4258 18.7968 87.5968 16.129 87.5968C13.4613 87.5968 11.2903 85.4258 11.2903 82.7581ZM29.0323 84.371C29.0327 87.3087 28.0262 90.1579 26.1806 92.4436C24.9149 90.8649 23.2954 89.6063 21.4532 88.7694C23.121 87.2887 24.1935 85.1565 24.1935 82.7581C24.1935 78.3113 20.5758 74.6936 16.129 74.6936C11.6823 74.6936 8.06452 78.3113 8.06452 82.7581C8.06452 85.1565 9.1371 87.2887 10.8048 88.7677C8.96331 89.6058 7.34412 90.8643 6.07742 92.4419C4.23091 90.1574 3.22431 87.3084 3.22581 84.371C3.22581 77.2565 9.01452 71.4677 16.129 71.4677C23.2435 71.4677 29.0323 77.2565 29.0323 84.371ZM54.7645 85.9113C54.3492 85.8927 53.9571 85.7147 53.6698 85.4142C53.3825 85.1138 53.2222 84.7141 53.2222 84.2984C53.2222 83.8827 53.3825 83.483 53.6698 83.1826C53.9571 82.8821 54.3492 82.7041 54.7645 82.6855C55.1798 82.7041 55.5719 82.8821 55.8592 83.1826C56.1465 83.483 56.3069 83.8827 56.3069 84.2984C56.3069 84.7141 56.1465 85.1138 55.8592 85.4142C55.5719 85.7147 55.1798 85.8927 54.7645 85.9113ZM70.8935 89.1371C70.875 89.5524 70.6969 89.9445 70.3965 90.2318C70.096 90.5191 69.6964 90.6795 69.2806 90.6795C68.8649 90.6795 68.4652 90.5191 68.1648 90.2318C67.8644 89.9445 67.6863 89.5524 67.6677 89.1371C67.6677 88.7093 67.8377 88.2991 68.1402 87.9966C68.4426 87.6941 68.8529 87.5242 69.2806 87.5242C69.7084 87.5242 70.1187 87.6941 70.4211 87.9966C70.7236 88.2991 70.8935 88.7093 70.8935 89.1371ZM41.9355 44.0484C41.9355 39.6016 45.5532 35.9839 50 35.9839C54.4468 35.9839 58.0645 39.6016 58.0645 44.0484C58.0645 48.4952 54.4468 52.1129 50 52.1129C45.5532 52.1129 41.9355 48.4952 41.9355 44.0484ZM54.3758 56.0323L50 68.2871L45.6242 56.0323C47.0145 55.5887 48.4823 55.3387 50 55.3387C51.5177 55.3387 52.9855 55.5887 54.3758 56.0323ZM42.6677 57.3452L47.6613 71.329C43.3168 70.8383 39.2362 68.9957 35.9952 66.0613C36.9937 62.395 39.3891 59.266 42.6677 57.3452ZM57.3323 57.3452C60.6113 59.2654 63.0069 62.3947 64.0048 66.0613C60.7638 68.9957 56.6832 70.8383 52.3387 71.329L57.3323 57.3452ZM50 29.5323C61.5613 29.5323 70.9677 38.9387 70.9677 50.5C70.9677 55.3532 69.2952 59.8145 66.5161 63.3726C65.6121 61.0942 64.2481 59.0268 62.5092 57.2992C60.7703 55.5717 58.6939 54.2213 56.4097 53.3323C57.9141 52.2956 59.1443 50.9091 59.9944 49.292C60.8446 47.6748 61.2893 45.8754 61.2903 44.0484C61.2903 37.8226 56.2242 32.7581 50 32.7581C43.7758 32.7581 38.7097 37.8226 38.7097 44.0484C38.7097 47.8935 40.6452 51.2919 43.5903 53.3323C41.3061 54.2213 39.2297 55.5717 37.4908 57.2992C35.7519 59.0268 34.3879 61.0942 33.4839 63.3726C30.6003 59.7013 29.0327 55.1683 29.0323 50.5C29.0323 38.9387 38.4387 29.5323 50 29.5323ZM93.5484 92.4355C93.1331 92.4169 92.741 92.2389 92.4537 91.9384C92.1664 91.638 92.006 91.2383 92.006 90.8226C92.006 90.4069 92.1664 90.0072 92.4537 89.7067C92.741 89.4063 93.1331 89.2283 93.5484 89.2097C93.9637 89.2283 94.3558 89.4063 94.6431 89.7067C94.9304 90.0072 95.0908 90.4069 95.0908 90.8226C95.0908 91.2383 94.9304 91.638 94.6431 91.9384C94.3558 92.2389 93.9637 92.4169 93.5484 92.4355Z" fill="#E6387D"/>
</g>
<defs>
<clipPath id="clip0_123_2505">
<rect width="100" height="100" fill="white" transform="translate(0 0.5)"/>
</clipPath>
</defs>
</svg>
