<svg width="60" height="61" viewBox="0 0 60 61" fill="none" xmlns="http://www.w3.org/2000/svg">
<g clip-path="url(#clip0_74_1181)">
<path d="M40.071 60.465C39.8083 60.465 39.5443 60.4422 39.2815 60.3955C30.2512 58.7692 21.2486 53.846 13.9336 46.5316C6.61859 39.2173 1.6954 30.2141 0.0703326 21.1831C-0.236617 19.4778 0.477704 17.7056 1.88929 16.6666C3.73402 15.3124 5.66835 14.0848 7.67901 12.992C9.02681 12.2594 10.6159 12.2177 11.9327 12.8815C16.4346 15.1508 19.4189 18.9302 20.802 24.1149C21.1772 25.5176 20.8431 27.0391 19.9084 28.1841L16.926 31.8341C16.4479 32.4195 16.3898 33.2267 16.782 33.8425C19.294 37.8098 22.6548 41.1706 26.6221 43.6826C27.2385 44.0754 28.0457 44.0167 28.6318 43.5392L32.2811 40.5569C33.4261 39.6221 34.9457 39.2886 36.351 39.6632C41.535 41.0463 45.315 44.0312 47.5843 48.5331C48.2481 49.8487 48.2071 51.4384 47.4738 52.7862C46.3806 54.7967 45.1525 56.7308 43.798 58.5753C43.3671 59.1589 42.8057 59.6336 42.1587 59.9617C41.5118 60.2898 40.7964 60.4622 40.071 60.465ZM9.93629 15.2676C9.63818 15.2676 9.32997 15.346 9.04576 15.5013C7.14895 16.5321 5.32413 17.6901 3.58383 18.9675C3.04256 19.366 2.76719 20.0367 2.88277 20.6765C4.40489 29.1397 9.04702 37.6042 15.9534 44.5112C22.8604 51.4176 31.3248 56.0597 39.7881 57.5824C40.4291 57.6974 41.0986 57.422 41.4965 56.8814C42.7743 55.1411 43.9327 53.3163 44.9639 51.4195C45.2481 50.8965 45.2746 50.2978 45.0327 49.8197C43.119 46.0232 40.0382 43.6036 35.6133 42.4232C35.0948 42.2855 34.5232 42.4137 34.0874 42.7699L30.4387 45.751C28.897 47.011 26.7459 47.1487 25.0892 46.0946C20.7676 43.358 17.1066 39.697 14.37 35.3754C13.3159 33.7174 13.4536 31.5669 14.7136 30.0258L17.6959 26.3766C18.0509 25.9408 18.1803 25.3717 18.0414 24.8519C16.861 20.427 14.4414 17.3462 10.6456 15.4319C10.4252 15.3225 10.1823 15.2662 9.93629 15.2676ZM58.5486 31.9654L58.4873 31.9642C58.1089 31.9483 57.7523 31.7827 57.4958 31.5039C57.2394 31.2251 57.1042 30.8559 57.12 30.4774C57.425 23.1978 54.6555 16.078 49.522 10.9432C46.969 8.39372 43.9145 6.40202 40.5519 5.09416C37.1893 3.7863 33.5918 3.19076 29.9872 3.34525C29.2286 3.3642 28.5333 2.76672 28.5004 1.97724C28.4925 1.78983 28.5217 1.6027 28.5861 1.42654C28.6506 1.25039 28.7491 1.08866 28.8761 0.95059C29.0031 0.812525 29.156 0.70083 29.3262 0.621885C29.4963 0.54294 29.6804 0.498293 29.8678 0.490494C37.9445 0.148176 45.843 3.22525 51.5418 8.92339C57.2393 14.6209 60.3132 22.5214 59.9747 30.5968C59.9592 30.9648 59.8023 31.3125 59.5366 31.5676C59.2708 31.8226 58.9169 31.9651 58.5486 31.9654Z" fill="#FE800A"/>
<path d="M50.9477 31.9654C50.7529 31.9657 50.5602 31.9261 50.3813 31.8491C50.2024 31.7721 50.0411 31.6593 49.9074 31.5177C49.7737 31.3761 49.6704 31.2086 49.6038 31.0256C49.5373 30.8426 49.5088 30.6478 49.5203 30.4534C49.6743 27.8509 49.2758 25.2452 48.351 22.8076C47.4262 20.37 45.996 18.1558 44.1544 16.3104C40.4337 12.5904 35.2756 10.6394 30.012 10.9445C29.8245 10.9564 29.6365 10.9311 29.4589 10.8699C29.2813 10.8088 29.1176 10.7131 28.9773 10.5883C28.8369 10.4635 28.7226 10.3121 28.6412 10.1428C28.5597 9.97361 28.5125 9.7899 28.5025 9.60234C28.4914 9.41509 28.5174 9.22751 28.5789 9.05031C28.6404 8.8731 28.7362 8.70975 28.8608 8.56957C28.9855 8.42939 29.1365 8.31515 29.3053 8.23335C29.4741 8.15155 29.6573 8.10381 29.8446 8.09286C32.8497 7.91513 35.8584 8.3755 38.6728 9.4437C41.4873 10.5119 44.0437 12.1637 46.1742 14.2906C48.3011 16.4211 49.953 18.9777 51.0213 21.7922C52.0896 24.6068 52.5501 27.6156 52.3725 30.6208C52.3513 30.9843 52.1919 31.326 51.927 31.576C51.6622 31.8259 51.3118 31.9652 50.9477 31.9654Z" fill="#FE800A"/>
<path d="M43.3555 31.9654C43.1566 31.9657 42.9598 31.9244 42.7777 31.8442C42.5957 31.7639 42.4324 31.6466 42.2983 31.4996C42.1642 31.3526 42.0623 31.1793 41.9991 30.9906C41.9359 30.802 41.9128 30.6023 41.9313 30.4042C42.0828 28.8078 41.8794 27.1976 41.3357 25.689C40.7919 24.1805 39.9212 22.8108 38.786 21.6782C37.6536 20.5428 36.2839 19.672 34.7753 19.1283C33.2667 18.5845 31.6565 18.3812 30.0601 18.5329C29.8718 18.5532 29.6814 18.5358 29.5 18.4819C29.3185 18.4279 29.1496 18.3384 29.003 18.2186C28.8564 18.0988 28.7351 17.951 28.6461 17.7839C28.5571 17.6168 28.5023 17.4337 28.4847 17.2451C28.4671 17.0566 28.4872 16.8665 28.5437 16.6858C28.6003 16.5051 28.6922 16.3375 28.8141 16.1926C28.936 16.0478 29.0854 15.9286 29.2538 15.842C29.4222 15.7554 29.6061 15.7032 29.7948 15.6883C31.8095 15.497 33.8415 15.7538 35.7452 16.4402C37.649 17.1266 39.3773 18.2256 40.8065 19.6584C42.2391 21.0875 43.3379 22.8158 44.0241 24.7194C44.7104 26.6231 44.9671 28.6549 44.776 30.6694C44.7431 31.0236 44.5792 31.3528 44.3163 31.5925C44.0535 31.8323 43.7113 31.9652 43.3555 31.9654Z" fill="#FE800A"/>
</g>
<defs>
<clipPath id="clip0_74_1181">
<rect width="60" height="60" fill="white" transform="translate(0 0.464691)"/>
</clipPath>
</defs>
</svg>
