<svg width="20" height="21" viewBox="0 0 20 21" fill="none" xmlns="http://www.w3.org/2000/svg">
<path d="M17.2734 2.48438H16.3828V1H14.8984V2.48438H5.10156V1H3.61719V2.48438H2.72656C1.49884 2.48438 0.5 3.48321 0.5 4.71094V17.7734C0.5 19.0012 1.49884 20 2.72656 20H17.2734C18.5012 20 19.5 19.0012 19.5 17.7734V4.71094C19.5 3.48321 18.5012 2.48438 17.2734 2.48438ZM18.0156 17.7734C18.0156 18.1827 17.6827 18.5156 17.2734 18.5156H2.72656C2.31732 18.5156 1.98438 18.1827 1.98438 17.7734V7.97656H18.0156V17.7734ZM18.0156 6.49219H1.98438V4.71094C1.98438 4.3017 2.31732 3.96875 2.72656 3.96875H3.61719V5.45312H5.10156V3.96875H14.8984V5.45312H16.3828V3.96875H17.2734C17.6827 3.96875 18.0156 4.3017 18.0156 4.71094V6.49219Z" fill="#FE800A"/>
<path d="M3.32031 9.53516H4.80469V11.0195H3.32031V9.53516ZM6.28906 9.53516H7.77344V11.0195H6.28906V9.53516ZM9.25781 9.53516H10.7422V11.0195H9.25781V9.53516ZM12.2266 9.53516H13.7109V11.0195H12.2266V9.53516ZM15.1953 9.53516H16.6797V11.0195H15.1953V9.53516ZM3.32031 12.5039H4.80469V13.9883H3.32031V12.5039ZM6.28906 12.5039H7.77344V13.9883H6.28906V12.5039ZM9.25781 12.5039H10.7422V13.9883H9.25781V12.5039ZM12.2266 12.5039H13.7109V13.9883H12.2266V12.5039ZM3.32031 15.4727H4.80469V16.957H3.32031V15.4727ZM6.28906 15.4727H7.77344V16.957H6.28906V15.4727ZM9.25781 15.4727H10.7422V16.957H9.25781V15.4727ZM12.2266 15.4727H13.7109V16.957H12.2266V15.4727ZM15.1953 12.5039H16.6797V13.9883H15.1953V12.5039Z" fill="#FE800A"/>
</svg>
