<svg width="100" height="101" viewBox="0 0 100 101" fill="none" xmlns="http://www.w3.org/2000/svg">
<g clip-path="url(#clip0_123_2511)">
<path d="M66.6667 0.5H33.3333C32.8913 0.5 32.4674 0.675595 32.1548 0.988155C31.8423 1.30072 31.6667 1.72464 31.6667 2.16667V35.5C31.6667 35.942 31.8423 36.366 32.1548 36.6785C32.4674 36.9911 32.8913 37.1667 33.3333 37.1667H66.6667C67.1087 37.1667 67.5326 36.9911 67.8452 36.6785C68.1577 36.366 68.3333 35.942 68.3333 35.5V17.45C68.3333 17.008 68.1577 16.584 67.8452 16.2715C67.5326 15.9589 67.1087 15.7833 66.6667 15.7833C66.2246 15.7833 65.8007 15.9589 65.4882 16.2715C65.1756 16.584 65 17.008 65 17.45V33.8333H35V3.83333H43.3333V12.1667C43.3333 12.6087 43.5089 13.0326 43.8215 13.3452C44.134 13.6577 44.558 13.8333 45 13.8333H55C55.442 13.8333 55.866 13.6577 56.1785 13.3452C56.4911 13.0326 56.6667 12.6087 56.6667 12.1667V3.83333H65V10.9167C65 11.3587 65.1756 11.7826 65.4882 12.0952C65.8007 12.4077 66.2246 12.5833 66.6667 12.5833C67.1087 12.5833 67.5326 12.4077 67.8452 12.0952C68.1577 11.7826 68.3333 11.3587 68.3333 10.9167V2.16667C68.3333 1.72464 68.1577 1.30072 67.8452 0.988155C67.5326 0.675595 67.1087 0.5 66.6667 0.5ZM53.3333 10.5H46.6667V3.83333H53.3333V10.5ZM61.6667 53.8333H56.6667V45.5C56.6667 45.058 56.4911 44.634 56.1785 44.3215C55.866 44.0089 55.442 43.8333 55 43.8333C54.558 43.8333 54.134 44.0089 53.8215 44.3215C53.5089 44.634 53.3333 45.058 53.3333 45.5V55.5C53.3333 55.942 53.5089 56.366 53.8215 56.6785C54.134 56.9911 54.558 57.1667 55 57.1667H57.9996L50 66.3L42.0004 57.1667H45C45.442 57.1667 45.866 56.9911 46.1785 56.6785C46.4911 56.366 46.6667 55.942 46.6667 55.5V45.5C46.6667 45.058 46.4911 44.634 46.1785 44.3215C45.866 44.0089 45.442 43.8333 45 43.8333C44.558 43.8333 44.134 44.0089 43.8215 44.3215C43.5089 44.634 43.3333 45.058 43.3333 45.5V53.8333H38.3333C38.013 53.8336 37.6995 53.9262 37.4304 54.1001C37.1613 54.274 36.948 54.5217 36.8161 54.8137C36.6842 55.1057 36.6393 55.4294 36.6867 55.7463C36.7341 56.0631 36.8718 56.3596 37.0833 56.6002L48.75 69.9335C49.0667 70.2925 49.5215 70.4975 50 70.4975C50.4785 70.4975 50.9333 70.2925 51.25 69.9335L62.9167 56.6002C63.1282 56.3596 63.2659 56.0631 63.3133 55.7463C63.3607 55.4294 63.3158 55.1057 63.1839 54.8137C63.052 54.5217 62.8387 54.274 62.5696 54.1001C62.3005 53.9262 61.987 53.8336 61.6667 53.8333ZM60 77.1667H40C39.558 77.1667 39.134 77.3423 38.8215 77.6548C38.5089 77.9674 38.3333 78.3913 38.3333 78.8333V98.8333C38.3333 99.2754 38.5089 99.6993 38.8215 100.012C39.134 100.324 39.558 100.5 40 100.5H60C60.442 100.5 60.866 100.324 61.1785 100.012C61.4911 99.6993 61.6667 99.2754 61.6667 98.8333V78.8333C61.6667 78.3913 61.4911 77.9674 61.1785 77.6548C60.866 77.3423 60.442 77.1667 60 77.1667ZM58.3333 97.1667H41.6667V80.5H45V87.1667C45 87.6087 45.1756 88.0326 45.4882 88.3452C45.8007 88.6577 46.2246 88.8333 46.6667 88.8333H53.3333C53.7754 88.8333 54.1993 88.6577 54.5118 88.3452C54.8244 88.0326 55 87.6087 55 87.1667V85.5C55 85.058 54.8244 84.634 54.5118 84.3215C54.1993 84.0089 53.7754 83.8333 53.3333 83.8333C52.8913 83.8333 52.4674 84.0089 52.1548 84.3215C51.8423 84.634 51.6667 85.058 51.6667 85.5H48.3333V80.5H58.3333V97.1667ZM98.3333 72.1667H78.3333C77.8913 72.1667 77.4674 72.3423 77.1548 72.6548C76.8423 72.9674 76.6667 73.3913 76.6667 73.8333V93.8333C76.6667 94.2754 76.8423 94.6993 77.1548 95.0118C77.4674 95.3244 77.8913 95.5 78.3333 95.5H98.3333C98.7754 95.5 99.1993 95.3244 99.5118 95.0118C99.8244 94.6993 100 94.2754 100 93.8333V73.8333C100 73.3913 99.8244 72.9674 99.5118 72.6548C99.1993 72.3423 98.7754 72.1667 98.3333 72.1667ZM90 75.5V80.5H86.6667V75.5H90ZM96.6667 92.1667H80V75.5H83.3333V82.1667C83.3333 82.6087 83.5089 83.0326 83.8215 83.3452C84.134 83.6577 84.558 83.8333 85 83.8333H91.6667C92.1087 83.8333 92.5326 83.6577 92.8452 83.3452C93.1577 83.0326 93.3333 82.6087 93.3333 82.1667V75.5H96.6667V92.1667ZM85.9498 63.1831C86.1483 63.1831 86.346 63.149 86.5331 63.0831C86.7565 63.0017 86.9599 62.8733 87.1295 62.7067C87.2991 62.54 87.4311 62.339 87.5165 62.1171L93.9167 45.6C94.033 45.3006 94.0604 44.9739 93.9954 44.6594C93.9304 44.3448 93.7759 44.0557 93.5504 43.8269C93.3251 43.5979 93.0384 43.4389 92.7248 43.3691C92.4112 43.2992 92.0841 43.3214 91.7829 43.4331L87.0831 45.0998L84.2331 37.2667C84.1566 36.9645 83.997 36.6899 83.7723 36.4738C83.5477 36.2578 83.267 36.109 82.9621 36.0444C82.6572 35.98 82.3404 36.0024 82.0477 36.109C81.7549 36.2156 81.4979 36.4022 81.3058 36.6475C81.1135 36.8927 80.9937 37.187 80.9602 37.4968C80.9267 37.8067 80.9807 38.1197 81.1162 38.4004L84.4496 47.7998C84.5994 48.2105 84.9049 48.5458 85.3 48.7331C85.5076 48.8459 85.7369 48.9131 85.9725 48.9304C86.2082 48.9477 86.4448 48.9146 86.6667 48.8333L89.4833 47.8L85.0829 59.1335L74.4498 53.2669L77.2665 52.2496C77.6801 52.0957 78.0157 51.784 78.1998 51.3829C78.3666 50.9773 78.3666 50.5223 78.1998 50.1167L74.7835 40.7167C74.7091 40.5091 74.5942 40.3183 74.4455 40.1554C74.2968 39.9925 74.1173 39.8608 73.9173 39.7677C73.7174 39.6747 73.501 39.6222 73.2806 39.6134C73.0602 39.6046 72.8403 39.6395 72.6335 39.7163C71.7725 40.0433 71.3396 41.0062 71.6667 41.8662L74.5167 49.7L69.8169 51.3667C69.5151 51.4746 69.2509 51.6671 69.0557 51.9213C68.8606 52.1756 68.7429 52.4806 68.7167 52.8C68.6767 53.1327 68.738 53.4698 68.8927 53.7671C69.0473 54.0645 69.288 54.3083 69.5833 54.4667L85.1 63.0163C85.3635 63.1461 85.6568 63.2036 85.9498 63.1829V63.1831ZM21.6667 68.8333H1.66667C1.22464 68.8333 0.800716 69.0089 0.488155 69.3215C0.175595 69.634 0 70.058 0 70.5L0 90.5C0 90.942 0.175595 91.366 0.488155 91.6785C0.800716 91.9911 1.22464 92.1667 1.66667 92.1667H21.6667C22.1087 92.1667 22.5326 91.9911 22.8452 91.6785C23.1577 91.366 23.3333 90.942 23.3333 90.5V70.5C23.3333 70.058 23.1577 69.634 22.8452 69.3215C22.5326 69.0089 22.1087 68.8333 21.6667 68.8333ZM13.3333 72.1667V77.1667H10V72.1667H13.3333ZM20 88.8333H3.33333V72.1667H6.66667V78.8333C6.66667 79.2754 6.84226 79.6993 7.15482 80.0118C7.46738 80.3244 7.89131 80.5 8.33333 80.5H15C15.442 80.5 15.8659 80.3244 16.1785 80.0118C16.4911 79.6993 16.6667 79.2754 16.6667 78.8333V72.1667H20V88.8333ZM27.05 43.4663L20.6167 51.1333C20.4754 51.3007 20.3684 51.4944 20.302 51.7031C20.2356 51.9119 20.211 52.1317 20.2296 52.35C20.2482 52.5683 20.3097 52.7807 20.4105 52.9752C20.5113 53.1698 20.6495 53.3425 20.8171 53.4835L23.1169 55.4002L11.1165 57.2669L10.8667 45.1331L13.1667 47.0504C13.5054 47.3343 13.943 47.4722 14.3833 47.4338C14.8173 47.3925 15.2179 47.1831 15.4996 46.8504L21.9335 39.1835C22.0929 39.019 22.2166 38.8233 22.2969 38.6088C22.3773 38.3943 22.4125 38.1655 22.4005 37.9367C22.3885 37.708 22.3295 37.4841 22.2271 37.2792C22.1247 37.0743 21.9812 36.8927 21.8055 36.7457C21.6298 36.5987 21.4257 36.4895 21.2059 36.4249C20.9862 36.3603 20.7554 36.3417 20.5281 36.3703C20.3009 36.3988 20.0819 36.4739 19.8849 36.5909C19.688 36.7078 19.5172 36.8641 19.3833 37.05L14.0333 43.4327L10.2004 40.2167C9.94885 39.9944 9.63605 39.8532 9.30292 39.8115C8.9698 39.7699 8.63187 39.8298 8.33333 39.9833C8.04191 40.1219 7.79702 40.3422 7.62841 40.6174C7.4598 40.8925 7.37473 41.2107 7.38354 41.5333L7.83354 59.2337C7.836 59.4716 7.88926 59.7062 7.98976 59.9217C8.09026 60.1373 8.23567 60.3289 8.41625 60.4837C8.72108 60.7355 9.10511 60.8712 9.50042 60.8671H9.75L27.25 58.1498C27.5647 58.0995 27.8585 57.96 28.0964 57.7479C28.3343 57.5357 28.5064 57.2598 28.5923 56.9529C28.6782 56.6459 28.6743 56.3208 28.5811 56.016C28.4878 55.7112 28.3092 55.4395 28.0662 55.2331L24.2333 52.0167L29.5996 45.6333C29.7408 45.4659 29.8477 45.2723 29.9141 45.0636C29.9806 44.8549 30.0052 44.6351 29.9867 44.4168C29.9682 44.1986 29.9069 43.9861 29.8062 43.7915C29.7056 43.597 29.5676 43.4242 29.4002 43.2829C29.0619 42.998 28.6243 42.8591 28.1837 42.8966C27.743 42.9342 27.3352 43.1451 27.05 43.4831V43.4663Z" fill="#E6387D"/>
<path d="M48.3334 22.1667C48.3334 21.7246 48.1578 21.3007 47.8452 20.9882C47.5327 20.6756 47.1087 20.5 46.6667 20.5H40C39.558 20.5 39.1341 20.6756 38.8215 20.9882C38.509 21.3007 38.3334 21.7246 38.3334 22.1667C38.3334 22.6087 38.509 23.0326 38.8215 23.3452C39.1341 23.6577 39.558 23.8333 40 23.8333H46.6667C47.1087 23.8333 47.5327 23.6577 47.8452 23.3452C48.1578 23.0326 48.3334 22.6087 48.3334 22.1667ZM40 27.1667C39.558 27.1667 39.1341 27.3423 38.8215 27.6548C38.509 27.9674 38.3334 28.3913 38.3334 28.8333C38.3334 29.2754 38.509 29.6993 38.8215 30.0118C39.1341 30.3244 39.558 30.5 40 30.5H45C45.4421 30.5 45.866 30.3244 46.1786 30.0118C46.4911 29.6993 46.6667 29.2754 46.6667 28.8333C46.6667 28.3913 46.4911 27.9674 46.1786 27.6548C45.866 27.3423 45.4421 27.1667 45 27.1667H40Z" fill="#E6387D"/>
</g>
<defs>
<clipPath id="clip0_123_2511">
<rect width="100" height="100" fill="white" transform="translate(0 0.5)"/>
</clipPath>
</defs>
</svg>
