<svg width="60" height="61" viewBox="0 0 60 61" fill="none" xmlns="http://www.w3.org/2000/svg">
<g clip-path="url(#clip0_74_1802)">
<path d="M1.18114 60.1196H58.819C59.1322 60.1196 59.4326 59.9952 59.6541 59.7737C59.8756 59.5522 60 59.2518 60 58.9386V25.7433C59.9941 25.5464 59.9451 25.353 59.8565 25.177C59.7679 25.001 59.6418 24.8464 59.4871 24.7243L56.3559 22.025V6.57795C56.3506 6.26826 56.2238 5.97306 56.0029 5.75594C55.782 5.53883 55.4846 5.41719 55.1749 5.41723H36.8193L32.9188 2.04304C32.0969 1.36861 31.0666 1 30.0035 1C28.9403 1 27.91 1.36861 27.0882 2.04304L23.1809 5.41723H4.82526C4.51553 5.41719 4.21817 5.53883 3.99727 5.75594C3.77637 5.97306 3.64961 6.26826 3.6443 6.57795V22.0587L0.54679 24.6974C0.375614 24.8122 0.235918 24.9681 0.14044 25.1508C0.0449625 25.3335 -0.00325967 25.5372 0.000171061 25.7433V58.9386C0.000171061 59.2518 0.124594 59.5522 0.346068 59.7737C0.567542 59.9952 0.867926 60.1196 1.18114 60.1196ZM18.7607 42.2566L2.38235 56.2933V28.2942L18.7607 42.2566ZM57.6111 28.2605V56.3742L41.2125 42.2634L57.6111 28.2605ZM38.9721 43.4646L55.6001 57.7577H4.31238L20.9674 43.4646H38.9721ZM56.9835 25.6624L56.3559 26.1955V25.163L56.9835 25.6624ZM28.62 3.86511C29.0166 3.55976 29.503 3.39418 30.0035 3.39418C30.5039 3.39418 30.9903 3.55976 31.3869 3.86511L33.1819 5.41723H26.825L28.62 3.86511ZM6.00623 7.75892H53.9939V28.2133L38.9181 41.1027H21.0416L5.96574 28.2402C5.99289 28.1436 6.00651 28.0437 6.00623 27.9433V7.75892ZM3.6443 26.263L2.96946 25.7096L3.6443 25.1562V26.263Z" fill="#FE800A"/>
<path d="M26.6026 33.9494C29.5858 34.7694 32.7666 34.4619 35.5374 33.0856C35.8166 32.9433 36.0279 32.6959 36.1247 32.3979C36.2215 32.0998 36.196 31.7756 36.0537 31.4963C35.9114 31.2171 35.664 31.0059 35.366 30.9091C35.0679 30.8123 34.7437 30.8378 34.4644 30.9801C32.2518 32.0706 29.7234 32.3385 27.3314 31.7359C20.8597 29.2593 22.6075 22.3692 22.6615 22.079C23.1812 20.122 25.7388 15.1551 31.3669 15.5803C37.6902 16.0729 37.6699 21.9103 37.6024 23.0777C37.4607 25.5072 36.0638 27.3495 34.9436 27.3495H34.9031C34.8122 27.3552 34.7212 27.3412 34.6362 27.3086C34.5512 27.276 34.4742 27.2255 34.4105 27.1605C34.1425 26.6997 34.029 26.1653 34.0865 25.6354L34.8828 19.3189V19.1704C34.8859 18.878 34.7804 18.5948 34.5867 18.3757C34.393 18.1566 34.1248 18.0172 33.8342 17.9845C33.5436 17.9517 33.2512 18.0279 33.0136 18.1984C32.7759 18.3689 32.61 18.6215 32.5479 18.9072C31.8553 18.348 31.0012 18.0262 30.1117 17.9895H30.0105C27.6081 17.9895 24.8345 19.8993 24.3284 23.5096C24.0765 24.7849 24.3318 26.108 25.04 27.198C25.7481 28.288 26.8534 29.059 28.121 29.347C28.8557 29.4709 29.6082 29.4395 30.3301 29.2547C31.0519 29.0698 31.727 28.7358 32.3117 28.274C32.4054 28.4243 32.5115 28.5666 32.6289 28.6991C32.9005 29.0118 33.2351 29.2635 33.6107 29.438C33.9863 29.6124 34.3945 29.7056 34.8086 29.7114C37.4202 29.8329 39.7484 26.8973 39.9644 23.2127C40.2276 18.5833 37.7307 13.7042 31.5424 13.2251C25.0909 12.7257 21.3254 17.8882 20.3806 21.4784C18.464 28.7396 23.3499 32.7212 26.6026 33.9494ZM31.7584 25.1765C31.5157 25.7935 31.0718 26.3106 30.4986 26.6437C29.9253 26.9769 29.2564 27.1067 28.6001 27.012C27.9226 26.8412 27.3396 26.4105 26.9772 25.8132C26.6148 25.2159 26.502 24.4999 26.6633 23.8201C27.0277 21.2624 28.8835 20.3312 30.0375 20.3312H30.0847C31.1307 20.3312 31.9068 21.5796 31.9271 21.6066C31.9964 21.7283 32.088 21.8358 32.197 21.9238L31.7584 25.1765Z" fill="#FE800A"/>
</g>
<defs>
<clipPath id="clip0_74_1802">
<rect width="60" height="60" fill="white" transform="translate(0 0.464691)"/>
</clipPath>
</defs>
</svg>
