<svg width="100" height="101" viewBox="0 0 100 101" fill="none" xmlns="http://www.w3.org/2000/svg">
<g clip-path="url(#clip0_123_2518)">
<path d="M53.1603 49.2057C53.8046 49.6429 54.7578 49.4554 55.191 48.817L72.758 22.9364C72.8658 22.7776 72.9414 22.599 72.9802 22.411C73.0191 22.223 73.0205 22.0291 72.9844 21.8406C72.9483 21.652 72.8755 21.4724 72.7699 21.312C72.6644 21.1516 72.5283 21.0135 72.3695 20.9057C72.0486 20.688 71.6544 20.6066 71.2736 20.6795C70.8928 20.7524 70.5565 20.9736 70.3388 21.2944L52.7718 47.175C52.6639 47.3339 52.5884 47.5124 52.5496 47.7004C52.5108 47.8884 52.5094 48.0823 52.5454 48.2708C52.5815 48.4594 52.6544 48.639 52.7599 48.7994C52.8654 48.9598 53.0014 49.0979 53.1603 49.2057ZM72.2794 49.4579C75.3218 49.4579 77.7974 46.4155 77.7974 42.6756C77.4857 33.6743 67.0722 33.6764 66.7614 42.6756C66.7614 46.4155 69.2368 49.4579 72.2794 49.4579ZM72.2794 38.8174C73.6855 38.8174 74.8733 40.5841 74.8733 42.6756C74.8733 44.7671 73.6855 46.5338 72.2794 46.5338C70.8733 46.5338 69.6853 44.7671 69.6853 42.6756C69.6853 40.5841 70.8735 38.8174 72.2794 38.8174ZM58.5457 27.4358C58.5457 23.6959 56.0704 20.6535 53.0277 20.6535C45.7101 21.0151 45.7128 33.8583 53.0277 34.2181C56.0704 34.2181 58.5457 31.1755 58.5457 27.4358ZM50.4339 27.4358C50.4339 25.3443 51.6218 23.5776 53.0279 23.5776C54.434 23.5776 55.6218 25.3443 55.6218 27.4358C55.6218 29.5273 54.434 31.294 53.0279 31.294C51.6218 31.294 50.4339 29.5271 50.4339 27.4358Z" fill="#E6387D"/>
<path d="M52.2725 67.9372C88.1564 78.6334 112.998 33.7088 85.0565 8.88999C84.7627 8.63694 84.3804 8.51097 83.9937 8.5398C83.607 8.56863 83.2476 8.74989 82.9945 9.0437C82.7415 9.33752 82.6155 9.71983 82.6443 10.1065C82.6732 10.4932 82.8544 10.8526 83.1482 11.1057C109.086 34.2117 85.2928 75.7307 52.2725 64.8554V54.9203C52.2725 53.6673 51.5142 51.9029 47.9023 50.6135C43.7815 49.1425 39.0273 49.0121 34.7262 49.6201C20.9398 22.7079 49.1554 -6.44221 76.4253 6.67178C76.7738 6.842 77.1755 6.86685 77.5423 6.74085C77.909 6.61485 78.2107 6.34833 78.3809 5.99992C78.5511 5.6515 78.576 5.24973 78.45 4.883C78.324 4.51627 78.0574 4.2146 77.709 4.04438C48.2942 -10.1326 17.5635 20.862 31.7588 50.2219C31.336 50.3368 30.9176 50.4674 30.5046 50.6135C26.8927 51.9031 26.1344 53.6675 26.1344 54.9203V64.6521C23.161 63.2449 19.9546 62.7943 16.0079 62.7407C14.0723 62.8066 14.0717 65.5974 16.0063 65.6648C18.9398 65.6664 21.6757 66.0678 23.7105 66.7951C25.7131 67.5109 26.1346 68.2336 26.1346 68.3462C26.1346 68.4591 25.7124 69.1829 23.7054 69.8991C19.0511 71.5608 12.9263 71.56 8.27402 69.8991C6.26711 69.1827 5.84487 68.4589 5.84487 68.3462C5.84487 68.2137 6.35795 67.3805 8.79646 66.6204C10.625 65.9802 9.79279 63.3168 7.92644 63.8289C3.78923 65.1184 2.92078 66.9972 2.92078 68.3462V94.7779C2.92078 96.031 3.67909 97.7954 7.29094 99.0847C12.5773 100.972 19.4039 100.971 24.6885 99.0847C26.0022 98.6157 26.9372 98.0837 27.5966 97.5365C28.2561 98.0837 29.1911 98.6157 30.5048 99.0847C35.7913 100.972 42.6179 100.971 47.9025 99.0847C49.2162 98.6157 50.1512 98.0837 50.8106 97.5365C51.4701 98.0837 52.4051 98.6157 53.7188 99.0847C59.0051 100.972 65.8317 100.971 71.1164 99.0847C74.7282 97.7952 75.4865 96.0308 75.4865 94.7779V81.562C75.4865 80.3089 74.7282 78.5445 71.1164 77.2552C65.83 75.3682 59.0034 75.3687 53.7188 77.2552C53.1739 77.4497 52.6949 77.6552 52.2727 77.8681C52.2711 75.9621 52.2754 70.3058 52.2711 68.3174C52.2735 68.2645 52.2721 67.9946 52.2725 67.9372ZM72.5622 88.17C72.5622 88.2829 72.14 89.0067 70.1331 89.7229C65.4787 91.3846 59.3539 91.3838 54.7016 89.7229C52.6947 89.0065 52.2725 88.2827 52.2725 88.17V85.2563C52.6947 85.469 53.1737 85.6746 53.7186 85.8692C59.0049 87.7562 65.8315 87.7556 71.1162 85.8692C71.661 85.6746 72.14 85.4692 72.5622 85.2563V88.17ZM49.3484 61.5284C49.3484 61.6413 48.9262 62.3651 46.9193 63.0813C42.2649 64.743 36.1399 64.7424 31.4876 63.0813C29.4807 62.3649 29.0585 61.6411 29.0585 61.5284V58.6146C29.4807 58.8273 29.9597 59.033 30.5046 59.2275C35.7911 61.1146 42.6177 61.114 47.9023 59.2275C48.4472 59.033 48.9262 58.8275 49.3484 58.6146V61.5284ZM30.5046 65.8352C36.2927 67.8519 43.7525 67.7951 49.3484 65.2225V68.2413C49.3484 68.3542 48.9262 69.078 46.9193 69.7944C42.2645 71.4561 36.1403 71.4551 31.4876 69.7944C29.4807 69.078 29.0585 68.3542 29.0585 68.2413V65.2225C29.4807 65.4352 29.9595 65.6407 30.5046 65.8352ZM26.1344 81.562C26.1344 81.6748 25.7122 82.3987 23.7053 83.1151C19.0505 84.7767 12.9264 84.7759 8.27382 83.1151C6.26692 82.3987 5.84468 81.6748 5.84468 81.562V78.6482C6.26692 78.8609 6.74588 79.0666 7.29074 79.2611C12.5771 81.1481 19.4037 81.1475 24.6883 79.2611C25.2332 79.0666 25.7122 78.8611 26.1344 78.6482V81.562ZM5.84468 85.2561C6.26692 85.4688 6.74588 85.6744 7.29074 85.869C12.5771 87.756 19.4037 87.7554 24.6883 85.869C25.2332 85.6744 25.7122 85.469 26.1344 85.2561V88.1699C26.1344 88.2827 25.7122 89.0065 23.7053 89.7227C19.0509 91.3844 12.9261 91.3836 8.27382 89.7227C6.26692 89.0063 5.84468 88.2825 5.84468 88.1699V85.2561ZM29.0585 85.2561C29.4807 85.4688 29.9597 85.6744 30.5046 85.869C35.7911 87.756 42.6177 87.7554 47.9023 85.869C48.4472 85.6744 48.9262 85.469 49.3484 85.2561V88.1699C49.3484 88.2827 48.9262 89.0065 46.9193 89.7227C42.2649 91.3844 36.1399 91.3838 31.4876 89.7227C29.4807 89.0063 29.0585 88.2825 29.0585 88.1699V85.2561ZM46.9193 83.1151C42.2645 84.7767 36.1403 84.7758 31.4876 83.1151C29.4807 82.3987 29.0585 81.6748 29.0585 81.562V78.6482C29.4807 78.8609 29.9597 79.0666 30.5046 79.2611C35.7911 81.1481 42.6177 81.1475 47.9023 79.2611C48.4472 79.0666 48.9262 78.8611 49.3484 78.6482V81.562C49.3484 81.6748 48.9262 82.3987 46.9193 83.1151ZM49.3484 74.9541C49.3484 75.067 48.9262 75.7906 46.9193 76.507C42.2645 78.1687 36.1403 78.1677 31.4876 76.507C29.4807 75.7906 29.0585 75.0668 29.0585 74.9541V71.9353C29.4807 72.1479 29.9597 72.3536 30.5046 72.5482C35.7911 74.4352 42.6177 74.4346 47.9023 72.5482C48.4472 72.3536 48.9262 72.1481 49.3484 71.9353V74.9541ZM31.4876 53.3675C36.1405 51.7066 42.2678 51.707 46.9193 53.3675C48.9262 54.0839 49.3484 54.8077 49.3484 54.9203C49.3484 55.033 48.9262 55.757 46.9193 56.4734C42.2645 58.1351 36.1403 58.1341 31.4876 56.4734C29.4807 55.757 29.0585 55.0332 29.0585 54.9203C29.0585 54.8075 29.4807 54.0839 31.4876 53.3675ZM7.29074 72.653C13.0789 74.6695 20.5385 74.613 26.1344 72.0403V74.9543C26.1344 75.0672 25.7122 75.791 23.7053 76.5072C19.0505 78.1689 12.9264 78.1681 8.27382 76.5072C6.26692 75.7908 5.84468 75.067 5.84468 74.9543V72.0403C6.26672 72.253 6.74569 72.4585 7.29074 72.653ZM23.7053 96.331C19.0505 97.9927 12.9264 97.9919 8.27382 96.331C6.26692 95.6146 5.84468 94.8908 5.84468 94.7781V91.8642C11.92 94.597 20.0607 94.5964 26.1344 91.8642V94.7781C26.1344 94.8908 25.7122 95.6146 23.7053 96.331ZM46.9193 96.331C42.2645 97.9927 36.1403 97.9917 31.4876 96.331C29.4807 95.6146 29.0585 94.8908 29.0585 94.7781V91.8642C35.1338 94.597 43.2747 94.5964 49.3484 91.8642V94.7781C49.3484 94.8908 48.9262 95.6144 46.9193 96.331ZM70.1331 96.331C65.4783 97.9927 59.3543 97.9919 54.7016 96.331C52.6947 95.6146 52.2725 94.8908 52.2725 94.7781V91.8642C58.3478 94.597 66.4885 94.5964 72.5622 91.8642V94.7781C72.5622 94.8908 72.14 95.6146 70.1331 96.331ZM54.7016 80.0091C59.3564 78.3474 65.4804 78.3482 70.1331 80.0091C72.14 80.7255 72.5622 81.4493 72.5622 81.562C72.5622 81.6747 72.14 82.3987 70.1331 83.1151C65.4783 84.7767 59.3543 84.7759 54.7016 83.1151C52.6947 82.3987 52.2725 81.6748 52.2725 81.562C52.2725 81.4491 52.6947 80.7255 54.7016 80.0091Z" fill="#E6387D"/>
</g>
<defs>
<clipPath id="clip0_123_2518">
<rect width="100" height="100" fill="white" transform="translate(0 0.5)"/>
</clipPath>
</defs>
</svg>
