<svg width="60" height="61" viewBox="0 0 60 61" fill="none" xmlns="http://www.w3.org/2000/svg">
<g clip-path="url(#clip0_74_1806)">
<path d="M30.5 0C18.0912 0 8 10.0912 8 22.5C8 38.0962 28.31 58.5862 29.1725 59.4525C29.5253 59.8032 30.0026 60 30.5 60C30.9974 60 31.4747 59.8032 31.8275 59.4525C32.69 58.5862 53 38.0962 53 22.5C53 10.0912 42.9087 0 30.5 0ZM30.5 55.4137C26.0225 50.6213 11.75 34.4137 11.75 22.5C11.75 12.1612 20.1613 3.75 30.5 3.75C40.8387 3.75 49.25 12.1612 49.25 22.5C49.25 34.4025 34.9775 50.6213 30.5 55.4137Z" fill="#FE800A"/>
<path d="M30.5 11.25C24.2975 11.25 19.25 16.2975 19.25 22.5C19.25 28.7025 24.2975 33.75 30.5 33.75C36.7025 33.75 41.75 28.7025 41.75 22.5C41.75 16.2975 36.7025 11.25 30.5 11.25ZM30.5 30C26.3637 30 23 26.6363 23 22.5C23 18.3637 26.3637 15 30.5 15C34.6363 15 38 18.3637 38 22.5C38 26.6363 34.6363 30 30.5 30Z" fill="#FE800A"/>
</g>
<defs>
<clipPath id="clip0_74_1806">
<rect width="60" height="60" fill="white" transform="translate(0 0.464691)"/>
</clipPath>
</defs>
</svg>
