<svg width="60" height="60" viewBox="0 0 60 60" fill="none" xmlns="http://www.w3.org/2000/svg">
<g clip-path="url(#clip0_124_5802)">
<path d="M2.14322 12.8313L10.6953 46.0334C10.718 46.1217 10.7977 46.1835 10.889 46.1835H49.111C49.2023 46.1835 49.282 46.1217 49.3047 46.0334L57.86 12.8187C57.9069 12.6366 57.6994 12.4963 57.5479 12.6077L40.7287 24.9747C40.627 25.0495 40.4823 25.0126 40.4289 24.8982L29.9244 2.38836C29.8525 2.23447 29.6337 2.23447 29.5619 2.38836L19.0588 24.8949C19.0049 25.0104 18.8583 25.0467 18.7568 24.9698L2.45767 12.6219C2.30662 12.5075 2.09595 12.6477 2.14322 12.8313Z" stroke="#FE800A" stroke-width="3.8"/>
<path d="M12.2751 58H49.266" stroke="#FE800A" stroke-width="3.8" stroke-linecap="round"/>
</g>
<defs>
<clipPath id="clip0_124_5802">
<rect width="60" height="60" fill="white"/>
</clipPath>
</defs>
</svg>
