<svg width="60" height="60" viewBox="0 0 60 60" fill="none" xmlns="http://www.w3.org/2000/svg">
<path d="M6.02002 13.0292V37.1168C6.02002 37.4453 6.12951 37.7737 6.239 37.9927C6.56746 38.6496 13.3558 53.1022 29.2317 59.8905C29.5 60 29.7414 60 29.9981 60C30.2711 60 30.5 60 30.7645 59.8905C46.6405 53.1022 53.5383 38.6496 53.7572 37.9927C53.8667 37.6642 53.9762 37.4453 53.9762 37.1168V13.0292C53.9762 12.0438 53.3193 11.1679 52.3339 10.9489C44.0127 8.86861 31.2025 0.437956 31.093 0.328467C30.908 0.143429 30.5 0 30.4361 0H29.4507C29.2258 0 28.8817 0.229725 28.6843 0.328467C28.4653 0.437956 15.7645 8.86861 7.44338 10.9489C6.67695 11.1679 6.02002 12.0438 6.02002 13.0292ZM10.3996 14.6715C17.7353 12.3723 26.8229 6.78832 30.1076 4.70803C33.3923 6.78832 42.4799 12.3723 49.8156 14.6715V36.5693C48.6113 38.8686 42.4799 49.8175 30.1076 55.5109C17.7353 49.8175 11.604 38.8686 10.3996 36.5693V14.6715Z" fill="#FE800A"/>
<path d="M26.3849 37.5547C26.8228 37.9927 27.3703 38.2117 27.9177 38.2117C28.4651 38.2117 29.0126 37.9927 29.4505 37.5547L40.29 26.7153C41.1659 25.8394 41.1659 24.5255 40.29 23.6496C39.414 22.7737 38.1002 22.7737 37.2243 23.6496L27.9177 32.9562L22.9907 28.0292C22.1148 27.1533 20.8009 27.1533 19.925 28.0292C19.0491 28.9051 19.0491 30.219 19.925 31.0949L26.3849 37.5547Z" fill="#FE800A"/>
</svg>
