<svg width="60" height="60" viewBox="0 0 60 60" fill="none" xmlns="http://www.w3.org/2000/svg">
<rect width="60" height="60" rx="30" fill="#E6387D"/>
<path d="M17.688 35.768C16.728 34.232 16.248 32.112 16.248 29.408C16.248 26.72 16.728 24.616 17.688 23.096C18.648 21.576 20.248 20.816 22.488 20.816C24.728 20.816 26.328 21.584 27.288 23.12C28.248 24.64 28.728 26.736 28.728 29.408C28.728 32.096 28.248 34.208 27.288 35.744C26.328 37.28 24.728 38.048 22.488 38.048C20.248 38.048 18.648 37.288 17.688 35.768ZM25.272 33.896C25.752 32.856 25.992 31.36 25.992 29.408C25.992 27.488 25.752 26.016 25.272 24.992C24.792 23.952 23.864 23.432 22.488 23.432C21.096 23.432 20.16 23.944 19.68 24.968C19.2 25.992 18.96 27.472 18.96 29.408C18.96 31.36 19.2 32.856 19.68 33.896C20.16 34.936 21.096 35.456 22.488 35.456C23.864 35.456 24.792 34.936 25.272 33.896ZM37.1531 20.528C38.2731 20.528 39.2331 20.728 40.0331 21.128C40.8331 21.512 41.4331 22.048 41.8331 22.736C42.2491 23.424 42.4571 24.192 42.4571 25.04C42.4571 26.112 42.1531 27.008 41.5451 27.728C40.9531 28.432 40.1131 28.856 39.0251 29V29.12C40.1931 29.456 41.1051 29.96 41.7611 30.632C42.4331 31.288 42.7691 32.2 42.7691 33.368C42.7691 34.792 42.2971 35.952 41.3531 36.848C40.4091 37.728 39.0571 38.168 37.2971 38.168C35.4891 38.168 34.0331 37.712 32.9291 36.8C31.8251 35.872 31.1931 34.504 31.0331 32.696H33.7451C33.8411 33.656 34.1851 34.424 34.7771 35C35.3691 35.56 36.1691 35.84 37.1771 35.84C38.1211 35.84 38.8411 35.592 39.3371 35.096C39.8491 34.6 40.1051 33.96 40.1051 33.176C40.1051 32.232 39.7371 31.512 39.0011 31.016C38.2811 30.52 37.2331 30.272 35.8571 30.272H35.2091V28.016H35.8571C38.4651 28.048 39.7691 27.16 39.7691 25.352C39.7691 24.568 39.5291 23.952 39.0491 23.504C38.5691 23.056 37.9131 22.832 37.0811 22.832C36.2491 22.832 35.5531 23.088 34.9931 23.6C34.4331 24.096 34.0971 24.824 33.9851 25.784H31.2971C31.4091 24.12 31.9691 22.832 32.9771 21.92C33.9851 20.992 35.3771 20.528 37.1531 20.528Z" fill="white"/>
</svg>
