<svg width="60" height="60" viewBox="0 0 60 60" fill="none" xmlns="http://www.w3.org/2000/svg">
<rect width="60" height="60" rx="30" fill="#E6387D"/>
<path d="M18.188 35.768C17.228 34.232 16.748 32.112 16.748 29.408C16.748 26.72 17.228 24.616 18.188 23.096C19.148 21.576 20.748 20.816 22.988 20.816C25.228 20.816 26.828 21.584 27.788 23.12C28.748 24.64 29.228 26.736 29.228 29.408C29.228 32.096 28.748 34.208 27.788 35.744C26.828 37.28 25.228 38.048 22.988 38.048C20.748 38.048 19.148 37.288 18.188 35.768ZM25.772 33.896C26.252 32.856 26.492 31.36 26.492 29.408C26.492 27.488 26.252 26.016 25.772 24.992C25.292 23.952 24.364 23.432 22.988 23.432C21.596 23.432 20.66 23.944 20.18 24.968C19.7 25.992 19.46 27.472 19.46 29.408C19.46 31.36 19.7 32.856 20.18 33.896C20.66 34.936 21.596 35.456 22.988 35.456C24.364 35.456 25.292 34.936 25.772 33.896ZM31.4131 35.864C34.0051 34.088 36.0771 32.352 37.6291 30.656C39.1971 28.944 39.9811 27.36 39.9811 25.904C39.9811 25.04 39.7651 24.352 39.3331 23.84C38.9171 23.328 38.2371 23.072 37.2931 23.072C36.3171 23.072 35.5811 23.392 35.0851 24.032C34.5891 24.656 34.3091 25.552 34.2451 26.72H31.5811C31.6931 24.784 32.2851 23.304 33.3571 22.28C34.4451 21.256 35.8291 20.744 37.5091 20.744C39.1571 20.744 40.4451 21.184 41.3731 22.064C42.3171 22.928 42.7891 24.128 42.7891 25.664C42.7891 26.896 42.4051 28.144 41.6371 29.408C40.8851 30.672 39.9251 31.84 38.7571 32.912C37.5891 33.968 36.3811 34.88 35.1331 35.648H43.1731V37.88H31.4131V35.864Z" fill="white"/>
</svg>
