<svg width="60" height="60" viewBox="0 0 60 60" fill="none" xmlns="http://www.w3.org/2000/svg">
<rect width="60" height="60" rx="30" fill="#E6387D"/>
<path d="M21.188 35.768C20.228 34.232 19.748 32.112 19.748 29.408C19.748 26.72 20.228 24.616 21.188 23.096C22.148 21.576 23.748 20.816 25.988 20.816C28.228 20.816 29.828 21.584 30.788 23.12C31.748 24.64 32.228 26.736 32.228 29.408C32.228 32.096 31.748 34.208 30.788 35.744C29.828 37.28 28.228 38.048 25.988 38.048C23.748 38.048 22.148 37.288 21.188 35.768ZM28.772 33.896C29.252 32.856 29.492 31.36 29.492 29.408C29.492 27.488 29.252 26.016 28.772 24.992C28.292 23.952 27.364 23.432 25.988 23.432C24.596 23.432 23.66 23.944 23.18 24.968C22.7 25.992 22.46 27.472 22.46 29.408C22.46 31.36 22.7 32.856 23.18 33.896C23.66 34.936 24.596 35.456 25.988 35.456C27.364 35.456 28.292 34.936 28.772 33.896ZM33.7651 23.624V21.056H39.1891V38H36.3091V23.624H33.7651Z" fill="white"/>
</svg>
