<svg width="60" height="60" viewBox="0 0 60 60" fill="none" xmlns="http://www.w3.org/2000/svg">
<rect width="60" height="60" rx="30" fill="#E6387D"/>
<path d="M17.188 35.768C16.228 34.232 15.748 32.112 15.748 29.408C15.748 26.72 16.228 24.616 17.188 23.096C18.148 21.576 19.748 20.816 21.988 20.816C24.228 20.816 25.828 21.584 26.788 23.12C27.748 24.64 28.228 26.736 28.228 29.408C28.228 32.096 27.748 34.208 26.788 35.744C25.828 37.28 24.228 38.048 21.988 38.048C19.748 38.048 18.148 37.288 17.188 35.768ZM24.772 33.896C25.252 32.856 25.492 31.36 25.492 29.408C25.492 27.488 25.252 26.016 24.772 24.992C24.292 23.952 23.364 23.432 21.988 23.432C20.596 23.432 19.66 23.944 19.18 24.968C18.7 25.992 18.46 27.472 18.46 29.408C18.46 31.36 18.7 32.856 19.18 33.896C19.66 34.936 20.596 35.456 21.988 35.456C23.364 35.456 24.292 34.936 24.772 33.896ZM30.2931 34.352V32.048L38.7171 20.912H41.6451V31.952H44.0211V34.352H41.6451V38H38.8851V34.352H30.2931ZM39.0771 24.176L33.1251 31.952H39.0771V24.176Z" fill="white"/>
</svg>
