<svg width="71" height="70" viewBox="0 0 71 70" fill="none" xmlns="http://www.w3.org/2000/svg">
<rect x="0.5" width="70" height="70" rx="35" fill="#FE800A"/>
<path d="M34.0552 37.264C36.7245 37.264 38.9778 37.4893 40.8152 37.94C42.6525 38.3907 44.1432 39.032 45.2872 39.864C46.4312 40.696 47.2632 41.7013 47.7832 42.88C48.3032 44.024 48.5632 45.272 48.5632 46.624C48.5632 48.808 47.9738 50.6973 46.7952 52.292C45.6512 53.852 44.0738 55.048 42.0632 55.88C40.0525 56.7467 37.7818 57.18 35.2512 57.18C32.7898 57.18 30.6752 56.7987 28.9072 56.036C27.1392 55.308 25.6832 54.3027 24.5392 53.02C23.4298 51.772 22.5632 50.3507 21.9392 48.756L25.0592 46.728C25.3712 47.5253 25.7872 48.34 26.3072 49.172C26.8272 50.004 27.4512 50.7667 28.1792 51.46C28.9418 52.1187 29.8258 52.656 30.8312 53.072C31.8365 53.488 32.9805 53.696 34.2632 53.696C35.6845 53.696 36.8978 53.4187 37.9032 52.864C38.9085 52.3093 39.6712 51.4947 40.1912 50.42C40.7112 49.3453 40.9712 48.028 40.9712 46.468C40.9712 45.0467 40.7285 43.816 40.2432 42.776C39.7925 41.7013 38.9952 40.8693 37.8512 40.28C36.7072 39.656 35.1472 39.344 33.1712 39.344H30.0512V36.12H32.6512C34.2805 36.12 35.6325 35.8773 36.7072 35.392C37.8165 34.9067 38.6485 34.1613 39.2032 33.156C39.7578 32.1507 40.0352 30.8853 40.0352 29.36C40.0352 28.008 39.8098 26.9333 39.3592 26.136C38.9432 25.304 38.3365 24.6973 37.5392 24.316C36.7765 23.9347 35.8752 23.744 34.8352 23.744C33.3098 23.744 32.0272 24.0733 30.9872 24.732C29.9818 25.356 29.1845 26.1533 28.5952 27.124C28.5952 26.812 28.6298 26.4827 28.6992 26.136C28.8032 25.7893 28.9245 25.4773 29.0632 25.2C29.2018 24.888 29.3752 24.628 29.5832 24.42C29.8258 24.212 30.1032 24.0733 30.4152 24.004V30.088H24.1752V24.732C24.7992 24.004 25.6485 23.3107 26.7232 22.652C27.7978 21.9933 29.0805 21.456 30.5712 21.04C32.0618 20.5893 33.7085 20.364 35.5112 20.364C37.7645 20.364 39.7752 20.6933 41.5432 21.352C43.3458 22.0107 44.7672 22.9813 45.8072 24.264C46.8472 25.512 47.3672 27.072 47.3672 28.944C47.3672 30.8507 46.7258 32.48 45.4432 33.832C44.1952 35.1493 42.4965 36.172 40.3472 36.9C38.1978 37.5933 35.7885 37.94 33.1192 37.94L35.8232 36.796V38.356L34.0552 37.264Z" fill="black"/>
</svg>
