<svg width="71" height="70" viewBox="0 0 71 70" fill="none" xmlns="http://www.w3.org/2000/svg">
<rect x="0.5" width="70" height="70" rx="35" fill="#FE800A"/>
<path d="M40.8672 47.612C40.8672 48.1667 41.1098 48.6 41.5952 48.912C42.0805 49.1893 42.7738 49.3973 43.6752 49.536C44.5765 49.64 45.6165 49.692 46.7952 49.692H48.3552V52.5H25.3192V49.692H27.4512C28.5605 49.692 29.5312 49.64 30.3632 49.536C31.2298 49.3973 31.8885 49.1893 32.3392 48.912C32.8245 48.6 33.0672 48.1667 33.0672 47.612V24.888L34.0032 24.42C33.6912 25.2173 33.2405 25.928 32.6512 26.552C32.0618 27.176 31.3338 27.7133 30.4672 28.164C29.6352 28.58 28.6992 28.892 27.6592 29.1C26.6192 29.308 25.5272 29.412 24.3832 29.412V24.94C25.7698 24.9053 27.0005 24.8013 28.0752 24.628C29.1845 24.4547 30.1725 24.1947 31.0392 23.848C31.9058 23.5013 32.6685 23.0853 33.3272 22.6C33.9858 22.08 34.5578 21.4907 35.0432 20.832H40.8672V47.612Z" fill="black"/>
</svg>
