<svg width="71" height="70" viewBox="0 0 71 70" fill="none" xmlns="http://www.w3.org/2000/svg">
<rect x="0.5" width="70" height="70" rx="35" fill="#FE800A"/>
<path d="M45.0272 17.244C42.7738 17.6947 40.7285 18.492 38.8912 19.636C37.0538 20.7453 35.4765 22.1667 34.1592 23.9C32.8418 25.5987 31.8192 27.592 31.0912 29.88C30.3978 32.1333 30.0512 34.6293 30.0512 37.368C30.0512 39.656 30.1725 41.5973 30.4152 43.192C30.6925 44.752 31.0912 46.0173 31.6112 46.988C32.1312 47.924 32.7552 48.6173 33.4832 49.068C34.2112 49.484 35.0085 49.692 35.8752 49.692C36.9152 49.692 37.7992 49.3453 38.5272 48.652C39.2898 47.9587 39.8618 46.936 40.2432 45.584C40.6592 44.1973 40.8672 42.5333 40.8672 40.592C40.8672 38.8933 40.7112 37.4373 40.3992 36.224C40.0872 34.976 39.5845 34.0053 38.8912 33.312C38.1978 32.6187 37.2965 32.272 36.1872 32.272C35.3552 32.272 34.5752 32.4453 33.8472 32.792C33.1538 33.104 32.4952 33.5373 31.8712 34.092C31.2818 34.6467 30.7272 35.3053 30.2072 36.068C29.7218 36.8307 29.2712 37.6453 28.8552 38.512L28.3872 35.704C28.6992 34.9067 29.1325 34.1093 29.6872 33.312C30.2418 32.5147 30.9178 31.7867 31.7152 31.128C32.5125 30.4693 33.4312 29.9493 34.4712 29.568C35.5458 29.152 36.7245 28.944 38.0072 28.944C40.0525 28.944 41.8725 29.3947 43.4672 30.296C45.0618 31.1973 46.3098 32.4973 47.2112 34.196C48.1472 35.8947 48.6152 37.9573 48.6152 40.384C48.6152 42.9147 48.0778 45.1333 47.0032 47.04C45.9285 48.9467 44.4378 50.42 42.5312 51.46C40.6592 52.5 38.4752 53.02 35.9792 53.02C33.3445 53.02 31.0045 52.448 28.9592 51.304C26.9138 50.16 25.3018 48.4093 24.1232 46.052C22.9792 43.6947 22.4072 40.7307 22.4072 37.16C22.4072 34.3173 22.9272 31.6307 23.9672 29.1C25.0418 26.5347 26.5498 24.212 28.4912 22.132C30.4672 20.052 32.8072 18.3187 35.5112 16.932C38.2152 15.5107 41.2138 14.54 44.5072 14.02L45.0272 17.244Z" fill="black"/>
</svg>
