<svg width="71" height="70" viewBox="0 0 71 70" fill="none" xmlns="http://www.w3.org/2000/svg">
<rect x="0.5" width="70" height="70" rx="35" fill="#FE800A"/>
<path d="M34.8872 57.18C32.5645 57.18 30.5538 56.816 28.8552 56.088C27.1912 55.3947 25.8045 54.4413 24.6952 53.228C23.5858 52.0493 22.7018 50.7493 22.0432 49.328L25.1632 47.196C25.6138 48.2013 26.2205 49.2067 26.9832 50.212C27.7458 51.2173 28.6992 52.0493 29.8432 52.708C30.9872 53.3667 32.3565 53.696 33.9512 53.696C35.4072 53.696 36.6378 53.3493 37.6432 52.656C38.6832 51.9627 39.4805 50.94 40.0352 49.588C40.5898 48.236 40.8672 46.624 40.8672 44.752C40.8672 43.088 40.6072 41.6667 40.0872 40.488C39.6018 39.3093 38.8912 38.4253 37.9552 37.836C37.0538 37.212 35.9965 36.9 34.7832 36.9C33.7778 36.9 32.8765 37.056 32.0792 37.368C31.2818 37.68 30.5538 38.1307 29.8952 38.72C29.2712 39.2747 28.7165 39.9853 28.2312 40.852H25.0072V20.832H46.0152L44.9752 26.552H27.6072L28.6472 21.872V38.148C28.6125 38.3907 28.5085 38.564 28.3352 38.668C28.1618 38.772 27.9885 38.8067 27.8152 38.772C27.6418 38.7027 27.5205 38.5467 27.4512 38.304C28.0752 37.3333 28.8205 36.484 29.6872 35.756C30.5885 35.028 31.6458 34.4733 32.8592 34.092C34.0725 33.676 35.4245 33.468 36.9152 33.468C39.3418 33.468 41.4045 33.988 43.1032 35.028C44.8365 36.0333 46.1538 37.3853 47.0552 39.084C47.9565 40.7827 48.4072 42.672 48.4072 44.752C48.4072 47.248 47.8525 49.432 46.7432 51.304C45.6338 53.1413 44.0565 54.58 42.0112 55.62C40.0005 56.66 37.6258 57.18 34.8872 57.18Z" fill="black"/>
</svg>
