<svg width="71" height="70" viewBox="0 0 71 70" fill="none" xmlns="http://www.w3.org/2000/svg">
<rect x="0.5" width="70" height="70" rx="35" fill="#FE800A"/>
<path d="M38.1112 46.936C39.4978 46.936 40.6072 46.884 41.4392 46.78C42.3058 46.676 42.9298 46.468 43.3112 46.156C43.7272 45.844 43.9872 45.3587 44.0912 44.7L44.6112 41.268H47.8872V52.5H22.7712V46.676C24.5738 45.6013 26.2898 44.5787 27.9192 43.608C29.5485 42.6027 31.0392 41.58 32.3912 40.54C33.7778 39.5 34.9738 38.4253 35.9792 37.316C36.9845 36.172 37.7645 34.9587 38.3192 33.676C38.8738 32.3587 39.1512 30.9547 39.1512 29.464C39.1512 28.0773 38.9605 26.968 38.5792 26.136C38.1978 25.304 37.6432 24.6973 36.9152 24.316C36.1872 23.9 35.2858 23.692 34.2112 23.692C33.2058 23.692 32.2872 23.8653 31.4552 24.212C30.6578 24.524 29.9472 24.9573 29.3232 25.512C28.6992 26.0667 28.1792 26.6733 27.7632 27.332C27.7632 27.02 27.7978 26.6907 27.8672 26.344C27.9365 25.9973 28.0405 25.668 28.1792 25.356C28.3525 25.044 28.5605 24.784 28.8032 24.576C29.0458 24.3333 29.3405 24.1947 29.6872 24.16V30.4H23.3952V24.784C24.0538 24.0907 24.9378 23.3973 26.0472 22.704C27.1565 22.0107 28.4738 21.456 29.9992 21.04C31.5245 20.5893 33.1885 20.364 34.9912 20.364C37.4872 20.364 39.6192 20.728 41.3872 21.456C43.1552 22.1493 44.4898 23.1893 45.3912 24.576C46.3272 25.928 46.7952 27.592 46.7952 29.568C46.7952 31.1627 46.3792 32.7053 45.5472 34.196C44.7152 35.652 43.5885 37.0387 42.1672 38.356C40.7458 39.6733 39.1165 40.9213 37.2792 42.1C35.4765 43.2787 33.5872 44.388 31.6112 45.428C29.6352 46.4333 27.6938 47.3867 25.7872 48.288C25.6485 48.2533 25.5792 48.1667 25.5792 48.028C25.5792 47.8547 25.5965 47.664 25.6312 47.456C25.7005 47.2133 25.7525 47.04 25.7872 46.936H38.1112Z" fill="black"/>
</svg>
