<svg width="30" height="30" viewBox="0 0 30 30" fill="none" xmlns="http://www.w3.org/2000/svg">
<path d="M28 7H2C1.46957 7 0.960859 6.78929 0.585786 6.41421C0.210714 6.03914 0 5.53043 0 5C0 4.46957 0.210714 3.96086 0.585786 3.58579C0.960859 3.21071 1.46957 3 2 3H28C28.5304 3 29.0391 3.21071 29.4142 3.58579C29.7893 3.96086 30 4.46957 30 5C30 5.53043 29.7893 6.03914 29.4142 6.41421C29.0391 6.78929 28.5304 7 28 7ZM28 27H2C1.46957 27 0.960859 26.7893 0.585786 26.4142C0.210714 26.0391 0 25.5304 0 25C0 24.4696 0.210714 23.9609 0.585786 23.5858C0.960859 23.2107 1.46957 23 2 23H28C28.5304 23 29.0391 23.2107 29.4142 23.5858C29.7893 23.9609 30 24.4696 30 25C30 25.5304 29.7893 26.0391 29.4142 26.4142C29.0391 26.7893 28.5304 27 28 27ZM28 17H2C1.46957 17 0.960859 16.7893 0.585786 16.4142C0.210714 16.0391 0 15.5304 0 15C0 14.4696 0.210714 13.9609 0.585786 13.5858C0.960859 13.2107 1.46957 13 2 13H28C28.5304 13 29.0391 13.2107 29.4142 13.5858C29.7893 13.9609 30 14.4696 30 15C30 15.5304 29.7893 16.0391 29.4142 16.4142C29.0391 16.7893 28.5304 17 28 17Z" fill="white"/>
</svg>
